<?xml version="1.0" encoding="utf-8" ?>
<svg baseProfile="tiny" height="100%" version="1.2" width="100%" xmlns="http://www.w3.org/2000/svg" xmlns:ev="http://www.w3.org/2001/xml-events" xmlns:xlink="http://www.w3.org/1999/xlink"><defs /><rect fill="#FFFFFF" height="100%" width="100%" x="0" y="0" /><text fill="#000000" font-family="Arial" font-size="60" font-weight="bold" x="50" y="70">T</text><path d="M 90.0,50.0 A 40,40 0 0,1 88.04226065180615,37.6393202250021" fill="none" stroke="#000000" stroke-width="2" /><path d="M 84.64101615137756,30.000000000000004 A 40,40 0 0,1 76.76522425435434,20.274206980904236" fill="none" stroke="#000000" stroke-width="2" /><path d="M 70.0,15.358983848622458 A 40,40 0 0,1 58.31646763271038,10.87409597064778" fill="none" stroke="#000000" stroke-width="2" /><path d="M 50.0,10.0 A 40,40 0 0,1 37.63932022500211,11.957739348193854" fill="none" stroke="#000000" stroke-width="2" /><path d="M 30.000000000000007,15.35898384862245 A 40,40 0 0,1 20.27420698090424,23.234775745645667" fill="none" stroke="#000000" stroke-width="2" /><path d="M 15.35898384862245,30.000000000000004 A 40,40 0 0,1 10.874095970647772,41.68353236728963" fill="none" stroke="#000000" stroke-width="2" /><path d="M 10.0,49.99999999999999 A 40,40 0 0,1 11.957739348193854,62.36067977499789" fill="none" stroke="#000000" stroke-width="2" /><path d="M 15.358983848622444,69.99999999999999 A 40,40 0 0,1 23.234775745645663,79.72579301909576" fill="none" stroke="#000000" stroke-width="2" /><path d="M 29.999999999999982,84.64101615137753 A 40,40 0 0,1 41.68353236728961,89.12590402935223" fill="none" stroke="#000000" stroke-width="2" /><path d="M 49.99999999999999,90.0 A 40,40 0 0,1 62.36067977499789,88.04226065180615" fill="none" stroke="#000000" stroke-width="2" /><path d="M 70.0,84.64101615137754 A 40,40 0 0,1 79.72579301909575,76.76522425435435" fill="none" stroke="#000000" stroke-width="2" /><path d="M 84.64101615137753,70.00000000000001 A 40,40 0 0,1 89.12590402935223,58.3164676327104" fill="none" stroke="#000000" stroke-width="2" /></svg>