<?xml version="1.0" encoding="UTF-8"?>
<svg version="1.1" xmlns="http://www.w3.org/2000/svg" width="486" height="137">
<path d="M0 0 C160.38 0 320.76 0 486 0 C486 45.21 486 90.42 486 137 C325.62 137 165.24 137 0 137 C0 91.79 0 46.58 0 0 Z " fill="#FCFCFE" transform="translate(0,0)"/>
<path d="M0 0 C1.98 0 3.96 0 6 0 C6 4.62 6 9.24 6 14 C8.31 14 10.62 14 13 14 C18.10969747 15.83949109 21.06903384 18.43114098 24 23 C24.80862802 26.89056877 24.36638267 30.13225157 22.8125 33.8125 C20.00417605 37.20185649 17.08535352 38.64511978 12.9296875 40.00390625 C7.36207668 42.37961453 3.50986672 47.03226687 -0.625 51.3125 C-1.45773438 52.15490234 -2.29046875 52.99730469 -3.1484375 53.86523438 C-6.55675188 57.33596215 -9.89243042 60.77769982 -12.8984375 64.60546875 C-13.93871094 65.79076172 -13.93871094 65.79076172 -15 67 C-15.99 67 -16.98 67 -18 67 C-18.66 67.99 -19.32 68.98 -20 70 C-20.66 70 -21.32 70 -22 70 C-22.495 71.485 -22.495 71.485 -23 73 C-26.10480855 73.4346732 -28.9105847 73.59973968 -32 73 C-33.9857272 71.33898291 -35.3322666 69.65110437 -36.80859375 67.53125 C-37.20175781 67.0259375 -37.59492187 66.520625 -38 66 C-38.66 66 -39.32 66 -40 66 C-39.82355617 73.53896378 -38.21426711 79.66641938 -34 86 C-32.515 86.99 -32.515 86.99 -31 88 C-30.9175 87.278125 -30.835 86.55625 -30.75 85.8125 C-29.07281289 79.52304835 -24.05742787 76.37736847 -18.9375 72.9375 C-13.29472748 69.18681524 -13.29472748 69.18681524 -9 64 C-7.6078125 64.2784375 -7.6078125 64.2784375 -6.1875 64.5625 C-2.98656229 65.24123881 -2.98656229 65.24123881 0 64 C1.09166275 62.06669397 1.09166275 62.06669397 2 60 C2.66 59.34 3.32 58.68 4 58 C3.64767793 55.57061311 3.64767793 55.57061311 3 53 C3 51.68 3 50.36 3 49 C3.99 48.34 4.98 47.68 6 47 C6.4125 47.515625 6.825 48.03125 7.25 48.5625 C7.8275 49.036875 8.405 49.51125 9 50 C12.5365682 49.62236177 14.23461352 48.13089991 16.6796875 45.6484375 C17.36160156 44.96136719 18.04351562 44.27429687 18.74609375 43.56640625 C19.44863281 42.84324219 20.15117188 42.12007812 20.875 41.375 C21.56980469 40.67503906 22.26460938 39.97507813 22.98046875 39.25390625 C26.21328392 35.97238576 29.39142706 32.64257722 32.46484375 29.2109375 C32.94042725 28.68032715 33.41601074 28.1497168 33.90600586 27.60302734 C35.6990358 24.97570429 35.70183132 22.10095426 36 19 C37.125 17.0625 37.125 17.0625 39 16 C42.93094707 15.49969765 45.1005787 15.4003858 48.4375 17.625 C50.48491197 20.7370662 50.68551032 22.34394496 50 26 C46.74989478 29.44128788 43.45590749 30.64385424 39 32 C35.75150023 33.72226496 35.75150023 33.72226496 35 37 C35.70125 37.0825 36.4025 37.165 37.125 37.25 C40.69658197 38.18171704 43.04287366 39.81429792 46 42 C46.8971875 42.6496875 46.8971875 42.6496875 47.8125 43.3125 C49.69122063 45.9822609 49.6994456 48.81412339 50 52 C50.66 52 51.32 52 52 52 C52 54.64 52 57.28 52 60 C55.96 60 59.92 60 64 60 C64 61.98 64 63.96 64 66 C60.04 66 56.08 66 52 66 C51.95875 67.65 51.9175 69.3 51.875 71 C51.34218105 76.98456065 49.39093053 80.89699934 45 85 C40.52475372 87.7547017 36.09594962 88.05889862 31 87 C27.21428743 84.81296354 24.17631796 81.98497351 21 79 C20.01229986 78.10209078 19.02266065 77.20631064 18.03125 76.3125 C16.12225223 74.5895868 14.23146353 72.85255459 12.34765625 71.1015625 C9.9892118 68.89049639 9.9892118 68.89049639 7 67 C4.84725052 67.30840599 4.84725052 67.30840599 3 68 C2.505 69.98 2.505 69.98 2 72 C3.26886964 73.12721436 4.54017562 74.25168658 5.8125 75.375 C6.52019531 76.00148438 7.22789063 76.62796875 7.95703125 77.2734375 C10.31356567 79.26500196 12.4685484 80.80420204 15.375 81.875 C19.67456845 83.71767219 22.41680223 86.12520335 25 90 C25.81964899 93.81668614 25.85666406 97.18809838 25 101 C22.07137242 105.05411625 18.51499068 108.74250466 14 111 C11.3276379 111.13415472 8.67749512 111.04318541 6 111 C6 109.35 6 107.7 6 106 C7.60875 105.9071875 7.60875 105.9071875 9.25 105.8125 C13.10805812 105.33792233 13.10805812 105.33792233 15.375 102.5625 C17.81167357 98.72005322 18.37518964 96.59607313 18 92 C16.30582349 89.10993419 14.83587031 88.95523736 11.5625 88.0625 C7.94599773 87.62138263 7.94599773 87.62138263 5.5625 89.9375 C5.046875 90.618125 4.53125 91.29875 4 92 C4.33 92.33 4.66 92.66 5 93 C5.08843793 95.44830426 5.11528752 97.86820599 5.09765625 100.31640625 C5.0962413 101.04746078 5.09482635 101.77851532 5.09336853 102.53172302 C5.08775408 104.87535632 5.07519922 107.21889539 5.0625 109.5625 C5.05748686 111.14778508 5.05292363 112.73307166 5.04882812 114.31835938 C5.03777997 118.2122761 5.02050572 122.10612205 5 126 C3.02 126 1.04 126 -1 126 C-1 121.38 -1 116.76 -1 112 C-3.31 112 -5.62 112 -8 112 C-10.4893453 111.10759319 -12.65270014 110.16891747 -15 109 C-15.763125 108.67128906 -16.52625 108.34257813 -17.3125 108.00390625 C-29.28807446 102.59618591 -40.09427277 92.33507376 -45 80 C-46.58989786 75.20320588 -47 71.12954778 -47 66 C-50.96 66 -54.92 66 -59 66 C-59 64.02 -59 62.04 -59 60 C-55.04 60 -51.08 60 -47 60 C-47.061875 59.01 -47.12375 58.02 -47.1875 57 C-47.15100359 50.9780929 -45.26919355 46.0148545 -41.125 41.625 C-36.80177553 37.72562107 -33.0031377 36.55173761 -27.1015625 36.76171875 C-18.83357176 37.69916751 -13.80457342 42.34322822 -8 48 C-8.66 49.32 -9.32 50.64 -10 52 C-14.13295614 51.48067567 -16.17479278 50.3437159 -19.1875 47.5 C-23.11183155 43.81275208 -23.11183155 43.81275208 -28.3125 42.6875 C-32.61926041 43.0524797 -34.02483986 43.93983528 -37 47 C-39.55417466 50.57584453 -39.57357174 54.7357174 -40 59 C-36.52404291 57.07078808 -36.52404291 57.07078808 -33.60546875 54.42578125 C-31.00820628 52.11920996 -28.5719659 52.4721935 -25.23046875 52.5703125 C-21.68140278 53.25402048 -20.08569333 55.17422194 -18 58 C-18 58.66 -18 59.32 -18 60 C-11.82747447 54.68570186 -11.82747447 54.68570186 -6 49 C-7.45628125 45.39471994 -9.28111266 43.83291627 -12.4375 41.625 C-16.80801873 38.31549144 -19.42386973 35.67098392 -20.3046875 30.05859375 C-20.63541771 24.93227555 -19.42102132 21.96118258 -16 18 C-12.22719167 14.58650675 -9.58754871 13.7640185 -4.625 13.75 C-3.09875 13.8325 -1.5725 13.915 0 14 C0 9.38 0 4.76 0 0 Z " fill="#531CB4" transform="translate(68,6)"/>
<path d="M0 0 C2.4375 1.625 2.4375 1.625 4 4 C4.5625 7 4.5625 7 4 10 C0.74989478 13.44128788 -2.54409251 14.64385424 -7 16 C-10.24849977 17.72226496 -10.24849977 17.72226496 -11 21 C-10.29875 21.0825 -9.5975 21.165 -8.875 21.25 C-5.30341803 22.18171704 -2.95712634 23.81429792 0 26 C0.598125 26.433125 1.19625 26.86625 1.8125 27.3125 C3.69122063 29.9822609 3.6994456 32.81412339 4 36 C4.66 36 5.32 36 6 36 C6 38.64 6 41.28 6 44 C9.96 44 13.92 44 18 44 C18 45.98 18 47.96 18 50 C14.04 50 10.08 50 6 50 C5.95875 51.65 5.9175 53.3 5.875 55 C5.34218105 60.98456065 3.39093053 64.89699934 -1 69 C-5.47524628 71.7547017 -9.90405038 72.05889862 -15 71 C-18.78571257 68.81296354 -21.82368204 65.98497351 -25 63 C-25.98770014 62.10209078 -26.97733935 61.20631064 -27.96875 60.3125 C-29.87774777 58.5895868 -31.76853647 56.85255459 -33.65234375 55.1015625 C-36.0107882 52.89049639 -36.0107882 52.89049639 -39 51 C-40.97536745 51.34786708 -40.97536745 51.34786708 -43 52 C-44.32 52 -45.64 52 -47 52 C-47.33 51.34 -47.66 50.68 -48 50 C-44.25 44.25 -44.25 44.25 -42 42 C-42.35232207 39.57061311 -42.35232207 39.57061311 -43 37 C-43 35.68 -43 34.36 -43 33 C-42.01 32.34 -41.02 31.68 -40 31 C-39.38125 31.7734375 -39.38125 31.7734375 -38.75 32.5625 C-38.1725 33.036875 -37.595 33.51125 -37 34 C-33.4634318 33.62236177 -31.76538648 32.13089991 -29.3203125 29.6484375 C-28.63839844 28.96136719 -27.95648438 28.27429688 -27.25390625 27.56640625 C-26.55136719 26.84324219 -25.84882812 26.12007812 -25.125 25.375 C-24.43019531 24.67503906 -23.73539063 23.97507812 -23.01953125 23.25390625 C-19.78671608 19.97238576 -16.60857294 16.64257722 -13.53515625 13.2109375 C-13.05957275 12.68032715 -12.58398926 12.1497168 -12.09399414 11.60302734 C-10.3009642 8.97570429 -10.29816868 6.10095426 -10 3 C-7.67133148 -1.01048467 -4.26353269 -0.52359173 0 0 Z " fill="#7042C0" transform="translate(114,22)"/>
<path d="M0 0 C1.98 0 3.96 0 6 0 C6 4.62 6 9.24 6 14 C8.31 14 10.62 14 13 14 C18.10969747 15.83949109 21.06903384 18.43114098 24 23 C24.80862802 26.89056877 24.36638267 30.13225157 22.8125 33.8125 C20.00417605 37.20185649 17.08535352 38.64511978 12.9296875 40.00390625 C7.36207668 42.37961453 3.50986672 47.03226687 -0.625 51.3125 C-1.45773438 52.15490234 -2.29046875 52.99730469 -3.1484375 53.86523438 C-6.55675188 57.33596215 -9.89243042 60.77769982 -12.8984375 64.60546875 C-13.59195313 65.39566406 -14.28546875 66.18585938 -15 67 C-15.99 67 -16.98 67 -18 67 C-18.66 67.99 -19.32 68.98 -20 70 C-20.66 70 -21.32 70 -22 70 C-22.33 70.99 -22.66 71.98 -23 73 C-26.10480855 73.4346732 -28.9105847 73.59973968 -32 73 C-33.9857272 71.33898291 -35.3322666 69.65110437 -36.80859375 67.53125 C-37.39833984 66.77328125 -37.39833984 66.77328125 -38 66 C-38.66 66 -39.32 66 -40 66 C-40 69.3 -40 72.6 -40 76 C-40.33 76 -40.66 76 -41 76 C-41.8866597 71.41774265 -42.16412757 67.04013755 -42.1875 62.375 C-42.20167969 61.08335938 -42.21585938 59.79171875 -42.23046875 58.4609375 C-42.01978565 55.29712011 -41.68453393 53.62334533 -40 51 C-40 53.64 -40 56.28 -40 59 C-36.52404291 57.07078808 -36.52404291 57.07078808 -33.60546875 54.42578125 C-31.00820628 52.11920996 -28.5719659 52.4721935 -25.23046875 52.5703125 C-21.68140278 53.25402048 -20.08569333 55.17422194 -18 58 C-18 58.66 -18 59.32 -18 60 C-11.82747447 54.68570186 -11.82747447 54.68570186 -6 49 C-7.45628125 45.39471994 -9.28111266 43.83291627 -12.4375 41.625 C-16.80801873 38.31549144 -19.42386973 35.67098392 -20.3046875 30.05859375 C-20.63541771 24.93227555 -19.42102132 21.96118258 -16 18 C-12.22719167 14.58650675 -9.58754871 13.7640185 -4.625 13.75 C-3.09875 13.8325 -1.5725 13.915 0 14 C0 9.38 0 4.76 0 0 Z " fill="#541DB4" transform="translate(68,6)"/>
<path d="M0 0 C3.32591397 2.05215968 4.8728424 3.4870834 6.9375 6.8125 C7.43832139 9.87185754 7.36163255 12.84651878 7.25 15.9375 C7.23549805 17.15373047 7.23549805 17.15373047 7.22070312 18.39453125 C7.06402825 26.63699226 7.06402825 26.63699226 4.5 29.3125 C3.984375 29.8075 3.46875 30.3025 2.9375 30.8125 C2.2775 31.8025 1.6175 32.7925 0.9375 33.8125 C-2.69341047 35.02280349 -6.09001364 35.11200617 -9.875 35.1875 C-10.92397461 35.24357422 -10.92397461 35.24357422 -11.99414062 35.30078125 C-16.10663767 35.37002816 -17.81183608 34.97450371 -21.38671875 32.6640625 C-26.32450747 27.4018935 -27.57344575 22.91670709 -27.5 15.8125 C-27.51998047 15.12671875 -27.53996094 14.4409375 -27.56054688 13.734375 C-27.55566572 8.61892695 -26.25636784 5.74612399 -23.0625 1.8125 C-17.02797243 -2.82944428 -6.98215778 -2.64475674 0 0 Z " fill="#561FB5" transform="translate(279.0625,56.1875)"/>
<path d="M0 0 C3.16554622 2.50379397 6.11054124 5.18411542 9 8 C8.34 9.32 7.68 10.64 7 12 C2.86704386 11.48067567 0.82520722 10.3437159 -2.1875 7.5 C-6.11183155 3.81275208 -6.11183155 3.81275208 -11.3125 2.6875 C-15.61926041 3.0524797 -17.02483986 3.93983528 -20 7 C-21.31165257 9.11660427 -21.31165257 9.11660427 -22 11 C-22.66 11 -23.32 11 -24 11 C-24 19.25 -24 27.5 -24 36 C-23.34 36 -22.68 36 -22 36 C-21.61521484 36.90878906 -21.61521484 36.90878906 -21.22265625 37.8359375 C-16.09661856 49.05453851 -7.93261939 58.0645512 3.46484375 63.0859375 C5.90828254 63.96693084 8.27217765 64.59418638 10.8125 65.125 C11.60269531 65.29257813 12.39289062 65.46015625 13.20703125 65.6328125 C13.79871094 65.75398438 14.39039063 65.87515625 15 66 C15 67.65 15 69.3 15 71 C2.35360992 70.95021106 -6.79933133 65.86418247 -15.8125 57.2265625 C-24.89593934 47.98091889 -30 39.32691459 -30 26 C-33.96 26 -37.92 26 -42 26 C-42 24.02 -42 22.04 -42 20 C-38.04 20 -34.08 20 -30 20 C-30.061875 19.01 -30.12375 18.02 -30.1875 17 C-30.15100359 10.9780929 -28.26919355 6.0148545 -24.125 1.625 C-17.1495773 -4.66655773 -7.95242791 -4.54636009 0 0 Z " fill="#541CB4" transform="translate(51,46)"/>
<path d="M0 0 C0.83402344 -0.02900391 1.66804688 -0.05800781 2.52734375 -0.08789062 C8.45922298 -0.14842 11.89802928 0.85322458 16.75 4.3125 C18.51834055 7.8491811 18.36938423 11.4607043 17.75 15.3125 C16.42110716 18.46223159 14.88111633 19.94362 11.75 21.3125 C6.69434459 21.80380194 1.81018925 21.66014659 -3.25 21.3125 C-3.25 19.0025 -3.25 16.6925 -3.25 14.3125 C3.185 13.8175 3.185 13.8175 9.75 13.3125 C9.75 11.6625 9.75 10.0125 9.75 8.3125 C3.81 7.9825 -2.13 7.6525 -8.25 7.3125 C-7.92 13.9125 -7.59 20.5125 -7.25 27.3125 C0.01 27.6425 7.27 27.9725 14.75 28.3125 C14.75 30.6225 14.75 32.9325 14.75 35.3125 C10.6669058 35.42864929 6.58423623 35.49973457 2.5 35.5625 C1.34113281 35.59601563 0.18226563 35.62953125 -1.01171875 35.6640625 C-2.68427734 35.68339844 -2.68427734 35.68339844 -4.390625 35.703125 C-5.41704102 35.72407227 -6.44345703 35.74501953 -7.50097656 35.76660156 C-10.97915805 35.19205293 -12.10172305 34.05195507 -14.25 31.3125 C-15.87613835 26.43408494 -15.47618441 21.42094388 -15.5 16.3125 C-15.520625 15.20648438 -15.54125 14.10046875 -15.5625 12.9609375 C-15.56765625 11.90132812 -15.5728125 10.84171875 -15.578125 9.75 C-15.5874707 8.77933594 -15.59681641 7.80867188 -15.60644531 6.80859375 C-15.25 4.3125 -15.25 4.3125 -13.91699219 2.53515625 C-9.77717795 -0.50119257 -4.89657084 0.05572729 0 0 Z " fill="#4E15B1" transform="translate(372.25,54.6875)"/>
<path d="M0 0 C1.98 0 3.96 0 6 0 C6 4.29 6 8.58 6 13 C7.50240234 12.93039063 7.50240234 12.93039063 9.03515625 12.859375 C22.40572655 12.42286718 22.40572655 12.42286718 28 17 C31.24334499 20.39993347 31.35601458 22.89226427 31.29296875 27.515625 C31.28330078 28.76601562 31.27363281 30.01640625 31.26367188 31.3046875 C31.23853516 32.60664062 31.21339844 33.90859375 31.1875 35.25 C31.16719727 37.22613281 31.16719727 37.22613281 31.14648438 39.2421875 C31.11112551 42.49520321 31.06177033 45.747396 31 49 C28.69 49 26.38 49 24 49 C23.98018066 48.22285645 23.96036133 47.44571289 23.93994141 46.64501953 C23.84492991 43.13799309 23.73515441 39.63158206 23.625 36.125 C23.5940625 34.90167969 23.563125 33.67835937 23.53125 32.41796875 C23.49257813 31.25136719 23.45390625 30.08476563 23.4140625 28.8828125 C23.3826416 27.80402832 23.3512207 26.72524414 23.31884766 25.61376953 C23.25323678 22.84238346 23.25323678 22.84238346 21 21 C18.42314322 20.69309346 15.95896697 20.48985507 13.375 20.375 C9.724375 20.189375 9.724375 20.189375 6 20 C6 29.24 6 38.48 6 48 C4.02 48 2.04 48 0 48 C0 32.16 0 16.32 0 0 Z " fill="#4F17B2" transform="translate(439,42)"/>
<path d="M0 0 C1.53237305 0.00966797 1.53237305 0.00966797 3.09570312 0.01953125 C4.15080078 0.03628906 5.20589844 0.05304687 6.29296875 0.0703125 C7.36740234 0.07933594 8.44183594 0.08835938 9.54882812 0.09765625 C12.19293729 0.12115944 14.83658747 0.15401675 17.48046875 0.1953125 C17.48046875 2.5053125 17.48046875 4.8153125 17.48046875 7.1953125 C16.7942041 7.21513184 16.10793945 7.23495117 15.40087891 7.25537109 C12.30201096 7.35042195 9.20383581 7.46018097 6.10546875 7.5703125 C5.02523438 7.60125 3.945 7.6321875 2.83203125 7.6640625 C1.80078125 7.70273437 0.76953125 7.74140625 -0.29296875 7.78125 C-1.72261963 7.82838135 -1.72261963 7.82838135 -3.18115234 7.87646484 C-5.70848301 7.98087046 -5.70848301 7.98087046 -7.51953125 10.1953125 C-7.71802196 12.74066391 -7.798049 15.15248009 -7.76953125 17.6953125 C-7.77726562 18.38496094 -7.785 19.07460937 -7.79296875 19.78515625 C-7.89566175 23.94745636 -7.89566175 23.94745636 -5.51953125 27.1953125 C-2.99915161 27.56667165 -2.99915161 27.56667165 -0.07421875 27.609375 C1.54033203 27.66738281 1.54033203 27.66738281 3.1875 27.7265625 C4.87939453 27.77296875 4.87939453 27.77296875 6.60546875 27.8203125 C8.30896484 27.87832031 8.30896484 27.87832031 10.046875 27.9375 C12.85790831 28.03198851 15.66893108 28.11754791 18.48046875 28.1953125 C18.48046875 30.8353125 18.48046875 33.4753125 18.48046875 36.1953125 C14.35548337 36.22423635 10.2305239 36.24208517 6.10546875 36.2578125 C4.34203125 36.27038086 4.34203125 36.27038086 2.54296875 36.28320312 C1.42148437 36.28642578 0.3 36.28964844 -0.85546875 36.29296875 C-2.41080322 36.30082397 -2.41080322 36.30082397 -3.99755859 36.30883789 C-6.51953125 36.1953125 -6.51953125 36.1953125 -8.51953125 35.1953125 C-8.51953125 34.5353125 -8.51953125 33.8753125 -8.51953125 33.1953125 C-9.17953125 33.1953125 -9.83953125 33.1953125 -10.51953125 33.1953125 C-14.10801834 29.85617648 -15.80834455 27.60176781 -16.18359375 22.6640625 C-16.19675948 21.00781365 -16.18315918 19.35116318 -16.14453125 17.6953125 C-16.16386719 16.86644531 -16.18320312 16.03757812 -16.203125 15.18359375 C-16.1701494 11.03526305 -15.87739873 8.06706493 -13.29296875 4.7265625 C-9.08680218 0.88769498 -5.63040363 -0.06290954 0 0 Z " fill="#531BB3" transform="translate(412.51953125,54.8046875)"/>
<path d="M0 0 C12.87 0 25.74 0 39 0 C39 2.31 39 4.62 39 7 C33.72 7 28.44 7 23 7 C23 20.86 23 34.72 23 49 C20.69 49 18.38 49 16 49 C16 35.14 16 21.28 16 7 C10.72 7 5.44 7 0 7 C0 4.69 0 2.38 0 0 Z " fill="#4E15B1" transform="translate(316,42)"/>
<path d="M0 0 C0.83789062 -0.01998047 1.67578125 -0.03996094 2.5390625 -0.06054688 C8.05717264 -0.05620874 11.29487972 0.71568967 15.625 4.4375 C18.86041729 7.84692131 18.9810745 10.3253699 18.91796875 14.953125 C18.9034668 16.82871094 18.9034668 16.82871094 18.88867188 18.7421875 C18.86353516 20.04414062 18.83839844 21.34609375 18.8125 22.6875 C18.79219727 24.66363281 18.79219727 24.66363281 18.77148438 26.6796875 C18.73612551 29.93270321 18.68677033 33.184896 18.625 36.4375 C16.62545254 36.48004356 14.62458364 36.47830783 12.625 36.4375 C11.625 35.4375 11.625 35.4375 11.51147461 32.93725586 C11.51671143 31.85323486 11.52194824 30.76921387 11.52734375 29.65234375 C11.53056641 28.48251953 11.53378906 27.31269531 11.53710938 26.10742188 C11.54548828 24.87572266 11.55386719 23.64402344 11.5625 22.375 C11.56701172 21.13943359 11.57152344 19.90386719 11.57617188 18.63085938 C11.58800392 15.56635883 11.60448827 12.50195279 11.625 9.4375 C7.91074757 8.19941586 4.31209247 8.08169129 0.4375 7.875 C-2.140625 7.730625 -4.71875 7.58625 -7.375 7.4375 C-7.375 16.6775 -7.375 25.9175 -7.375 35.4375 C-9.355 35.4375 -11.335 35.4375 -13.375 35.4375 C-13.47389302 30.93520526 -13.54647709 26.43354273 -13.59472656 21.93041992 C-13.6148398 20.39873238 -13.6421345 18.86712161 -13.67675781 17.33569336 C-13.72529315 15.13375927 -13.74796996 12.93284018 -13.765625 10.73046875 C-13.78627014 10.04599167 -13.80691528 9.36151459 -13.82818604 8.65629578 C-13.82966056 5.53061943 -13.76470143 3.86616072 -11.62158203 1.50878906 C-7.80372544 -0.31176677 -4.16265212 -0.03490028 0 0 Z " fill="#5017B2" transform="translate(184.375,54.5625)"/>
<path d="M0 0 C4.12098375 1.08685286 5.73669823 2.3402397 8.48828125 5.65625 C10.09330019 9.74175276 10.75357254 13.27894367 10.48828125 17.65625 C9.49828125 17.65625 8.50828125 17.65625 7.48828125 17.65625 C7.48828125 19.63625 7.48828125 21.61625 7.48828125 23.65625 C8.14828125 23.65625 8.80828125 23.65625 9.48828125 23.65625 C10.34682979 33.31015133 10.34682979 33.31015133 7.42578125 37.28125 C4.48828125 39.65625 4.48828125 39.65625 1.32421875 40.26171875 C-4.28034928 39.37708734 -6.92553971 36.27856137 -10.82421875 32.34375 C-11.53900391 31.65345703 -12.25378906 30.96316406 -12.99023438 30.25195312 C-15.82754579 27.48417055 -18.30559878 24.96542995 -20.51171875 21.65625 C-18.8883207 19.94740995 -17.21852822 18.28178283 -15.51171875 16.65625 C-14.85171875 16.65625 -14.19171875 16.65625 -13.51171875 16.65625 C-13.51171875 19.29625 -13.51171875 21.93625 -13.51171875 24.65625 C-12.52171875 24.98625 -11.53171875 25.31625 -10.51171875 25.65625 C-10.51171875 26.31625 -10.51171875 26.97625 -10.51171875 27.65625 C-9.85171875 27.65625 -9.19171875 27.65625 -8.51171875 27.65625 C-8.18171875 28.31625 -7.85171875 28.97625 -7.51171875 29.65625 C-5.61638533 30.12148063 -5.61638533 30.12148063 -3.44921875 30.28125 C-2.14984375 30.405 -0.85046875 30.52875 0.48828125 30.65625 C0.48828125 29.99625 0.48828125 29.33625 0.48828125 28.65625 C1.31328125 28.12 2.13828125 27.58375 2.98828125 27.03125 C5.8799222 24.76620663 5.8799222 24.76620663 6.11328125 20.71875 C5.89070806 17.40488253 5.41989093 16.56171044 3.36328125 13.71875 C0.15956349 11.42043074 -1.57794159 10.65625 -5.51171875 10.65625 C-8.22528063 11.88429126 -8.22528063 11.88429126 -10.51171875 13.65625 C-11.50171875 14.31625 -12.49171875 14.97625 -13.51171875 15.65625 C-14.50171875 14.99625 -15.49171875 14.33625 -16.51171875 13.65625 C-16.51171875 12.99625 -16.51171875 12.33625 -16.51171875 11.65625 C-17.17171875 11.32625 -17.83171875 10.99625 -18.51171875 10.65625 C-13.10165862 4.08437652 -8.98505507 -0.91502683 0 0 Z " fill="#F4F1FA" transform="translate(103.51171875,48.34375)"/>
<path d="M0 0 C10.89 0 21.78 0 33 0 C33 2.31 33 4.62 33 7 C24.42 7 15.84 7 7 7 C7 20.53 7 34.06 7 48 C4.69 48 2.38 48 0 48 C0 32.16 0 16.32 0 0 Z " fill="#531BB3" transform="translate(212,42)"/>
<path d="M0 0 C2.4375 1.625 2.4375 1.625 4 4 C4.5625 7 4.5625 7 4 10 C1.53463208 12.61038956 -0.36301377 13.81598176 -3.8125 14.8125 C-11.40486005 17.64102629 -16.56700108 24.62181695 -21.85327148 30.51611328 C-25.31740018 34.34833192 -29.0054331 37.75822365 -32.93359375 41.1171875 C-35.69972685 43.6375583 -38.0477439 46.42708009 -40.39453125 49.3359375 C-42.12869217 51.13338896 -43.71879787 52.02022121 -46 53 C-46.66 52.01 -47.32 51.02 -48 50 C-44.25 44.25 -44.25 44.25 -42 42 C-42.35232207 39.57061311 -42.35232207 39.57061311 -43 37 C-43 35.68 -43 34.36 -43 33 C-42.01 32.34 -41.02 31.68 -40 31 C-39.38125 31.7734375 -39.38125 31.7734375 -38.75 32.5625 C-38.1725 33.036875 -37.595 33.51125 -37 34 C-33.4634318 33.62236177 -31.76538648 32.13089991 -29.3203125 29.6484375 C-28.63839844 28.96136719 -27.95648438 28.27429688 -27.25390625 27.56640625 C-26.55136719 26.84324219 -25.84882812 26.12007812 -25.125 25.375 C-24.43019531 24.67503906 -23.73539063 23.97507812 -23.01953125 23.25390625 C-19.78671608 19.97238576 -16.60857294 16.64257722 -13.53515625 13.2109375 C-13.05957275 12.68032715 -12.58398926 12.1497168 -12.09399414 11.60302734 C-10.3009642 8.97570429 -10.29816868 6.10095426 -10 3 C-7.67133148 -1.01048467 -4.26353269 -0.52359173 0 0 Z " fill="#4E14B1" transform="translate(114,22)"/>
<path d="M0 0 C0 3 0 3 -1.93359375 5.19140625 C-2.75988281 5.97386719 -3.58617188 6.75632812 -4.4375 7.5625 C-8.54588624 11.11545529 -8.54588624 11.11545529 -10.16796875 16.0234375 C-10.17763672 17.18746094 -10.17763672 17.18746094 -10.1875 18.375 C-10.20876953 19.53128906 -10.20876953 19.53128906 -10.23046875 20.7109375 C-10.09681235 23.39864818 -10.09681235 23.39864818 -8 27 C-4.04 27 -0.08 27 4 27 C4.66 25.68 5.32 24.36 6 23 C7.7265625 21.078125 7.7265625 21.078125 9.625 19.25 C10.25664063 18.63640625 10.88828125 18.0228125 11.5390625 17.390625 C12.02117187 16.93171875 12.50328125 16.4728125 13 16 C13.66 16.33 14.32 16.66 15 17 C14.34 17.99 13.68 18.98 13 20 C13.33 20.33 13.66 20.66 14 21 C14.08843793 23.44830426 14.11528752 25.86820599 14.09765625 28.31640625 C14.0962413 29.04746078 14.09482635 29.77851532 14.09336853 30.53172302 C14.08775408 32.87535632 14.07519922 35.21889539 14.0625 37.5625 C14.05748686 39.14778508 14.05292363 40.73307166 14.04882812 42.31835938 C14.03777997 46.2122761 14.02050572 50.10612205 14 54 C12.02 54 10.04 54 8 54 C8 49.38 8 44.76 8 40 C5.69 40 3.38 40 1 40 C-1.4375 39 -1.4375 39 -3 38 C4.75 37.875 4.75 37.875 7 39 C7 37.35 7 35.7 7 34 C5.7625 33.95875 4.525 33.9175 3.25 33.875 C-8.40282168 32.50300373 -16.44797396 25.45425924 -24 17 C-23.34 16.67 -22.68 16.34 -22 16 C-21.34444881 13.47266765 -21.34444881 13.47266765 -21 11 C-20.49041481 13.03834076 -19.98627019 15.06668764 -19.5625 17.125 C-19.09524327 19.22082328 -19.09524327 19.22082328 -17 21 C-16.91363281 20.39671875 -16.82726563 19.7934375 -16.73828125 19.171875 C-15.58291341 12.60005792 -15.58291341 12.60005792 -12.875 9.8125 C-11.451875 8.9153125 -11.451875 8.9153125 -10 8 C-8.59670705 6.96840461 -7.20128732 5.92604231 -5.8125 4.875 C-5.13832031 4.37742187 -4.46414062 3.87984375 -3.76953125 3.3671875 C-1.89050136 1.97531912 -1.89050136 1.97531912 0 0 Z " fill="#C7B5E6" transform="translate(59,78)"/>
<path d="M0 0 C-1.20381448 2.49361571 -2.45428722 4.68143083 -4 7 C-4.33 7.66 -4.66 8.32 -5 9 C-5.99 9 -6.98 9 -8 9 C-8.21579179 12.78757996 -8.21579179 12.78757996 -7.1875 15.375 C-7 18 -7 18 -9.25 21.1875 C-12 24 -12 24 -15 26 C-17.28397032 25.65394389 -18.93409037 25.03295481 -21 24 C-21.19980469 24.55816406 -21.39960937 25.11632812 -21.60546875 25.69140625 C-23.54592129 28.90375206 -26.32375751 30.77140805 -29.3125 32.9375 C-37.90953712 39.03521512 -37.90953712 39.03521512 -43 48 C-47.68719162 46.15717252 -48.93663684 43.20632149 -51.02734375 38.8203125 C-52.51490001 34.50699676 -52.43078733 30.49933437 -52 26 C-51.01 25.67 -50.02 25.34 -49 25 C-44 30.75 -44 30.75 -44 33 C-37.64483406 32.95348249 -37.64483406 32.95348249 -32.5625 29.5625 C-32.046875 28.716875 -31.53125 27.87125 -31 27 C-30.34 26.34 -29.68 25.68 -29 25 C-29 25.66 -29 26.32 -29 27 C-25.99986868 24.81808631 -23.50436642 22.50953924 -21.125 19.6875 C-17.34119519 15.26322934 -13.28461643 11.13152561 -9.1875 7 C-8.5167041 6.31639404 -7.8459082 5.63278809 -7.15478516 4.9284668 C-6.20224854 3.97387573 -6.20224854 3.97387573 -5.23046875 3 C-4.65707764 2.4225 -4.08368652 1.845 -3.49291992 1.25 C-2 0 -2 0 0 0 Z " fill="#F0EBF8" transform="translate(80,46)"/>
<path d="M0 0 C3.3 0 6.6 0 10 0 C10.33 2.64 10.66 5.28 11 8 C12.94603274 8.59070014 12.94603274 8.59070014 15 9 C16.49743119 7.50256881 16.33202693 6.01175761 16.5625 3.9375 C16.706875 2.638125 16.85125 1.33875 17 0 C20.05317686 -0.2935747 22.95478744 -0.41858592 26 0 C28.9220732 2.435061 29.8535221 3.79888122 30.3125 7.5625 C28.46582282 10.99204334 26.10562071 11.38480403 22.56640625 12.75390625 C18.02762361 14.95766829 14.58634353 18.50691836 11 22 C7.11476704 20.67548876 4.65074713 19.08271136 1.75 16.1875 C0.72132812 15.18783203 0.72132812 15.18783203 -0.328125 14.16796875 C-2.24915929 11.67690792 -2.77829833 10.12353018 -3 7 C-2.29736404 4.45970078 -1.16905154 2.38486515 0 0 Z " fill="#F9F8FC" transform="translate(57,27)"/>
<path d="M0 0 C4.57627119 3.15254237 4.57627119 3.15254237 6 6 C6.58252427 13.22330097 6.58252427 13.22330097 4.125 16.5 C2 18 2 18 0 18 C0 18.66 0 19.32 0 20 C-2.64 20 -5.28 20 -8 20 C-8.33 19.01 -8.66 18.02 -9 17 C-9.66 17 -10.32 17 -11 17 C-12.625 16 -12.625 16 -14 14 C-14.2627431 11.28141321 -14.13487019 8.74236049 -14 6 C-16.64 7.98 -19.28 9.96 -22 12 C-23.32 11.34 -24.64 10.68 -26 10 C-26.99 10.99 -27.98 11.98 -29 13 C-29.66 12.67 -30.32 12.34 -31 12 C-29.92173635 10.72486237 -28.83714481 9.45507431 -27.75 8.1875 C-27.14671875 7.47980469 -26.5434375 6.77210937 -25.921875 6.04296875 C-24.05104458 4.0542608 -22.30527231 2.46154264 -20 1 C-17 1 -17 1 -15.3125 2.5 C-14.879375 2.995 -14.44625 3.49 -14 4 C-13.236875 3.360625 -12.47375 2.72125 -11.6875 2.0625 C-7.50116351 -1.15026986 -5.01527418 -1.30397129 0 0 Z " fill="#5923B6" transform="translate(104,59)"/>
<path d="M0 0 C1.85625 -0.01160156 1.85625 -0.01160156 3.75 -0.0234375 C7 0.375 7 0.375 8.9140625 1.4296875 C10.60485171 4.45851134 10.43283352 7.50137794 10.375 10.875 C10.38660156 11.55175781 10.39820313 12.22851562 10.41015625 12.92578125 C10.39377385 15.69440604 10.27792364 17.87713679 8.9140625 20.3203125 C5.95422084 21.95124566 3.34862335 21.7709289 0 21.75 C-1.2375 21.75773437 -2.475 21.76546875 -3.75 21.7734375 C-7 21.375 -7 21.375 -8.9140625 20.3203125 C-10.60485171 17.29148866 -10.43283352 14.24862206 -10.375 10.875 C-10.38660156 10.19824219 -10.39820313 9.52148438 -10.41015625 8.82421875 C-10.39377385 6.05559396 -10.27792364 3.87286321 -8.9140625 1.4296875 C-5.95422084 -0.20124566 -3.34862335 -0.0209289 0 0 Z " fill="#F3F0FA" transform="translate(269,61.625)"/>
<path d="M0 0 C0.33 0 0.66 0 1 0 C1 2.64 1 5.28 1 8 C4.47595709 6.07078808 4.47595709 6.07078808 7.39453125 3.42578125 C9.99179372 1.11920996 12.4280341 1.4721935 15.76953125 1.5703125 C19.31859722 2.25402048 20.91430667 4.17422194 23 7 C23 7.66 23 8.32 23 9 C23.66 9 24.32 9 25 9 C25.33 11.31 25.66 13.62 26 16 C25.01 16 24.02 16 23 16 C22.34 16.99 21.68 17.98 21 19 C20.34 19 19.68 19 19 19 C18.67 19.99 18.34 20.98 18 22 C14.89519145 22.4346732 12.0894153 22.59973968 9 22 C7.0142728 20.33898291 5.6677334 18.65110437 4.19140625 16.53125 C3.79824219 16.0259375 3.40507812 15.520625 3 15 C2.34 15 1.68 15 1 15 C1 18.3 1 21.6 1 25 C0.67 25 0.34 25 0 25 C-0.89550909 20.4087391 -1.13436842 16.04984186 -1.125 11.375 C-1.12757812 10.08335938 -1.13015625 8.79171875 -1.1328125 7.4609375 C-1.0283103 4.73773315 -0.82214646 2.57083894 0 0 Z " fill="#5721B5" transform="translate(27,57)"/>
<path d="M0 0 C2.93231569 1.34048717 5.16757113 2.84818486 7.5625 5 C8.2534375 5.60972656 8.944375 6.21945313 9.65625 6.84765625 C11.37511536 8.42614761 13.05787485 10.04419544 14.71875 11.68359375 C16.12640625 13.04677734 16.12640625 13.04677734 17.5625 14.4375 C18.43003906 15.30246094 19.29757813 16.16742188 20.19140625 17.05859375 C23.72556682 19.50153924 25.78684528 19.51792919 30 19 C34.42802597 15.29003229 35.0981682 10.4465894 36 5 C37.65 5 39.3 5 41 5 C41.62329548 10.63274431 41.6886319 14.79996041 38.25 19.5 C35.52697092 22.85565199 33.01724348 24.56823912 28.7734375 25.4765625 C23.38530271 25.81003013 20.32637763 24.99801963 16.0625 21.625 C14.35176438 20.10915832 12.66561942 18.5652809 11 17 C10.01229986 16.10209078 9.02266065 15.20631064 8.03125 14.3125 C6.12225223 12.5895868 4.23146353 10.85255459 2.34765625 9.1015625 C-0.0107882 6.89049639 -0.0107882 6.89049639 -3 5 C-1.125 1.125 -1.125 1.125 0 0 Z " fill="#541DB4" transform="translate(78,68)"/>
<path d="M0 0 C1.34444159 0.90029571 2.67531438 1.82088022 4 2.75 C5.11375 3.51570313 5.11375 3.51570313 6.25 4.296875 C7.11625 5.13992187 7.11625 5.13992187 8 6 C8 10 8 10 5.8828125 12.578125 C4.97273438 13.45984375 4.06265625 14.3415625 3.125 15.25 C2.22007813 16.14203125 1.31515625 17.0340625 0.3828125 17.953125 C-2 20 -2 20 -4 20 C-5.01866229 18.34467377 -6.01810813 16.67739862 -7 15 C-9.64458379 13.67770811 -11.67761301 13.90322806 -14.625 13.9375 C-16.12933594 13.95103516 -16.12933594 13.95103516 -17.6640625 13.96484375 C-18.82035156 13.98224609 -18.82035156 13.98224609 -20 14 C-20.28617188 14.64453125 -20.57234375 15.2890625 -20.8671875 15.953125 C-22 18 -22 18 -24.125 18.75 C-25.053125 18.87375 -25.053125 18.87375 -26 19 C-26.42034404 12.90501137 -26.07814737 9.87112047 -22 5 C-19.55878739 2.47460764 -18.24779767 2.04288806 -14.75 1.4375 C-9.60883949 2.20867408 -6.87865662 4.71313841 -3 8 C-0.9815408 9.70853702 -0.9815408 9.70853702 1 11 C3.20800528 10.78282648 3.20800528 10.78282648 5 10 C3.44499019 6.18315774 0.96404505 3.80804268 -2 1 C-1.34 0.67 -0.68 0.34 0 0 Z " fill="#F4F1FA" transform="translate(54,46)"/>
<path d="M0 0 C1.98 0 3.96 0 6 0 C6 15.84 6 31.68 6 48 C4.02 48 2.04 48 0 48 C0 32.16 0 16.32 0 0 Z " fill="#4C12B0" transform="translate(155,42)"/>
<path d="M0 0 C0.90105469 0.00902344 1.80210937 0.01804688 2.73046875 0.02734375 C3.41753906 0.03894531 4.10460937 0.05054688 4.8125 0.0625 C4.8125 2.3725 4.8125 4.6825 4.8125 7.0625 C1.5125 7.3925 -1.7875 7.7225 -5.1875 8.0625 C-5.5175 16.9725 -5.8475 25.8825 -6.1875 35.0625 C-8.1675 35.0625 -10.1475 35.0625 -12.1875 35.0625 C-12.28657258 30.86334693 -12.35906173 26.66481748 -12.40722656 22.46484375 C-12.42730982 21.03698879 -12.45458252 19.60921575 -12.48925781 18.18164062 C-12.53792669 16.12609632 -12.56049967 14.07164145 -12.578125 12.015625 C-12.59907227 10.77973633 -12.62001953 9.54384766 -12.64160156 8.27050781 C-12.10267023 4.46321874 -11.22019839 3.34489648 -8.1875 1.0625 C-5.17259443 0.05753148 -3.14568308 -0.04085303 0 0 Z " fill="#4D14B1" transform="translate(306.1875,54.9375)"/>
<path d="M0 0 C2.4375 1.6875 2.4375 1.6875 4 4 C4.70168294 8.03467693 4.18402591 9.68102176 2.125 13.25 C0 16 0 16 -2 18 C-5.625 18.125 -5.625 18.125 -9 18 C-9 19.65 -9 21.3 -9 23 C-7.02 23 -5.04 23 -3 23 C-3 23.33 -3 23.66 -3 24 C-4.98 24 -6.96 24 -9 24 C-9 28.29 -9 32.58 -9 37 C-9.33 37 -9.66 37 -10 37 C-10.14301599 32.49765878 -10.2854161 27.99529866 -10.42724609 23.49291992 C-10.47557937 21.96133905 -10.52408078 20.42976347 -10.57275391 18.89819336 C-10.64269534 16.69646555 -10.71203162 14.49471939 -10.78125 12.29296875 C-10.80312378 11.60849167 -10.82499756 10.92401459 -10.84753418 10.21879578 C-11.10092867 2.11304011 -11.10092867 2.11304011 -9.4375 0.25 C-5.90994481 -1.55900266 -3.77315158 -1.0106656 0 0 Z " fill="#EDE7F7" transform="translate(83,94)"/>
<path d="M0 0 C2.4375 1.625 2.4375 1.625 4 4 C4.5625 7 4.5625 7 4 10 C0.50376134 13.81407854 -3.12524944 14.85299987 -8 16 C-8 15.01 -8 14.02 -8 13 C-13.26964527 15.63482263 -16.97903554 19.79943911 -21 24 C-21.66 23.67 -22.32 23.34 -23 23 C-21.71802734 21.71416016 -21.71802734 21.71416016 -20.41015625 20.40234375 C-19.29349413 19.24814677 -18.17765156 18.0931565 -17.0625 16.9375 C-16.49853516 16.37611328 -15.93457031 15.81472656 -15.35351562 15.23632812 C-11.57088371 11.27249228 -10.33876083 8.64140483 -10 3 C-7.67133148 -1.01048467 -4.26353269 -0.52359173 0 0 Z " fill="#6534BB" transform="translate(114,22)"/>
<path d="M0 0 C4.875 4.625 4.875 4.625 6 8 C6.92232422 7.89171875 6.92232422 7.89171875 7.86328125 7.78125 C9.07564453 7.64203125 9.07564453 7.64203125 10.3125 7.5 C11.11300781 7.4071875 11.91351563 7.314375 12.73828125 7.21875 C15 7 15 7 18 7 C15.94958437 10.26547675 14.14890224 12.85464305 11.375 15.5625 C8.99597587 18.00413003 8.01068726 19.7841769 7 23 C2.31280838 21.15717252 1.06336316 18.20632149 -1.02734375 13.8203125 C-2.51490001 9.50699676 -2.43078733 5.49933437 -2 1 C-1.34 0.67 -0.68 0.34 0 0 Z " fill="#F9F7FC" transform="translate(30,71)"/>
<path d="M0 0 C2.46800047 1.15173355 4.04783565 2.04783565 6 4 C7.11375 4.144375 8.2275 4.28875 9.375 4.4375 C14.72277228 5.26732673 14.72277228 5.26732673 17 8 C17.57491549 11.95254396 17.61372366 14.07941451 15.375 17.4375 C12.28314769 19.47161336 10.63632575 19.60605429 7 19 C4.6875 17.4375 4.6875 17.4375 3 15 C2.66666667 12.66666667 2.33333333 10.33333333 2 8 C0.08378425 5.579887 0.08378425 5.579887 -2 4 C-1.34 2.68 -0.68 1.36 0 0 Z " fill="#6B3BBE" transform="translate(101,97)"/>
<path d="M0 0 C3 0.5625 3 0.5625 5.25 2.6875 C7.03468892 5.61948893 8.06897621 8.26810813 9 11.5625 C9.33 12.5525 9.66 13.5425 10 14.5625 C9.34 14.5625 8.68 14.5625 8 14.5625 C8 15.2225 8 15.8825 8 16.5625 C-1.92599445 15.26185245 -1.92599445 15.26185245 -5.6875 12.8125 C-7.45627813 9.78030892 -7.57581233 8.01737399 -7 4.5625 C-4.88658096 1.47365679 -3.68753254 0.69141235 0 0 Z " fill="#6C3CBE" transform="translate(30,21.4375)"/>
<path d="M0 0 C6.93 0 13.86 0 21 0 C21 2.64 21 5.28 21 8 C14.07 8 7.14 8 0 8 C0 5.36 0 2.72 0 0 Z " fill="#5B26B7" transform="translate(224,61)"/>
<path d="M0 0 C1.32 0 2.64 0 4 0 C4 10.56 4 21.12 4 32 C2.35 32 0.7 32 -1 32 C-1.02465504 27.60343827 -1.04283842 23.2069128 -1.05493164 18.81030273 C-1.05997121 17.31355082 -1.06680287 15.81680384 -1.07543945 14.32006836 C-1.08752159 12.17300193 -1.09323191 10.02600038 -1.09765625 7.87890625 C-1.10289307 6.5854126 -1.10812988 5.29191895 -1.11352539 3.95922852 C-1 1 -1 1 0 0 Z " fill="#470CAE" transform="translate(69,99)"/>
<path d="M0 0 C2.8605891 1.35937085 4.85927699 2.64520469 7 5 C5.92075721 8.23772838 5.24856932 8.86999864 2.6875 10.9375 C0.51803646 12.70488374 -1.2752723 14.31575352 -3.125 16.4375 C-5 18 -5 18 -7.75 17.75 C-8.4925 17.5025 -9.235 17.255 -10 17 C-10.48401324 12.92218842 -10.27978904 11.38271144 -7.8125 8.0078125 C-6.88993397 7.03252841 -5.95186019 6.071715 -5 5.125 C-4.52304687 4.62742187 -4.04609375 4.12984375 -3.5546875 3.6171875 C-2.38299322 2.39862545 -1.19322523 1.19748675 0 0 Z " fill="#F5F1FA" transform="translate(64,82)"/>
<path d="M0 0 C1.9375 1.0625 1.9375 1.0625 3 3 C3.39650104 6.63459282 3.41637627 9.09785142 1.875 12.4375 C0 14 0 14 -2.9375 14.5 C-6 14 -6 14 -8.375 12.4375 C-10.5996142 9.1005787 -10.50030235 6.93094707 -10 3 C-7.77766882 -1.05248626 -4.20052866 -0.45005664 0 0 Z " fill="#6736BC" transform="translate(33,102)"/>
<path d="M0 0 C0.33 0 0.66 0 1 0 C1 6.6 1 13.2 1 20 C3.31 20 5.62 20 8 20 C8 20.33 8 20.66 8 21 C5.69 21 3.38 21 1 21 C1.04125 22.27875 1.0825 23.5575 1.125 24.875 C1.1953125 27.0546875 1.1953125 27.0546875 1 29 C0.34 29.66 -0.32 30.32 -1 31 C-4.53571429 30.46428571 -4.53571429 30.46428571 -6 29 C-6.14115161 26.32941149 -6.04247107 23.67567762 -6 21 C-8.64 21 -11.28 21 -14 21 C-12 19 -12 19 -9.1796875 18.8046875 C-4.58984375 18.90234375 -4.58984375 18.90234375 0 19 C0 12.73 0 6.46 0 0 Z " fill="#E0D6F1" transform="translate(73,6)"/>
<path d="M0 0 C1.6875 1.5 1.6875 1.5 3 3 C3.99 2.67 4.98 2.34 6 2 C5.34 5.63 4.68 9.26 4 13 C3.67 13 3.34 13 3 13 C3 10.36 3 7.72 3 5 C0.36 6.98 -2.28 8.96 -5 11 C-6.32 10.34 -7.64 9.68 -9 9 C-9.99 9.99 -10.98 10.98 -12 12 C-12.66 11.67 -13.32 11.34 -14 11 C-12.92173635 9.72486237 -11.83714481 8.45507431 -10.75 7.1875 C-10.14671875 6.47980469 -9.5434375 5.77210937 -8.921875 5.04296875 C-4.17782027 0 -4.17782027 0 0 0 Z " fill="#7D53C6" transform="translate(87,60)"/>
<path d="M0 0 C0.33 0 0.66 0 1 0 C1 6.27 1 12.54 1 19 C0.67 19 0.34 19 0 19 C0 17.02 0 15.04 0 13 C-3.96 13 -7.92 13 -12 13 C-12 11.02 -12 9.04 -12 7 C-8.04 7 -4.08 7 0 7 C0 4.69 0 2.38 0 0 Z " fill="#916ECF" transform="translate(21,59)"/>
<path d="M0 0 C6.6 0 13.2 0 20 0 C20 1.32 20 2.64 20 4 C13.4 4 6.8 4 0 4 C0 2.68 0 1.36 0 0 Z " fill="#460BAE" transform="translate(111,67)"/>
<path d="M0 0 C0.66 0 1.32 0 2 0 C2 3.3 2 6.6 2 10 C0.39125 10.020625 -1.2175 10.04125 -2.875 10.0625 C-4.23238281 10.07990234 -4.23238281 10.07990234 -5.6171875 10.09765625 C-8 10 -8 10 -10 9 C-10 8.01 -10 7.02 -10 6 C-7.09399739 4.74335022 -5.20395416 4 -2 4 C-1.34 2.68 -0.68 1.36 0 0 Z " fill="#F1EDF9" transform="translate(65,101)"/>
<path d="M0 0 C0 3 0 3 -1.72265625 5.05078125 C-2.49480469 5.79714844 -3.26695313 6.54351562 -4.0625 7.3125 C-4.8771875 8.10140625 -5.691875 8.8903125 -6.53125 9.703125 C-9.6127126 12.57005539 -12.76114029 15.31243556 -16 18 C-17.33333333 15.33333333 -18.66666667 12.66666667 -20 10 C-18.68 9.01 -17.36 8.02 -16 7 C-15.5875 7.515625 -15.175 8.03125 -14.75 8.5625 C-13.14257486 10.2181691 -13.14257486 10.2181691 -11.1875 9.875 C-8.16651416 8.66660566 -6.49098494 6.77735192 -4.25 4.4375 C-3.45078125 3.61121094 -2.6515625 2.78492188 -1.828125 1.93359375 C-1.22484375 1.29550781 -0.6215625 0.65742187 0 0 Z " fill="#774AC3" transform="translate(90,46)"/>
<path d="M0 0 C2.5 0.25 2.5 0.25 4.5 2.25 C4.625 5.375 4.625 5.375 4.5 8.25 C1.125 8.875 1.125 8.875 -2.5 9.25 C-4.5 7.25 -4.5 7.25 -4.75 4.75 C-4.40058445 1.25584452 -3.49415548 0.34941555 0 0 Z " fill="#EAE3F5" transform="translate(40.5,63.75)"/>
<path d="M0 0 C0.66 0 1.32 0 2 0 C2 2.64 2 5.28 2 8 C2.99 8.33 3.98 8.66 5 9 C5 9.66 5 10.32 5 11 C5.66 11.33 6.32 11.66 7 12 C6.01 12.495 6.01 12.495 5 13 C4.67 13.66 4.34 14.32 4 15 C1.03 12.03 -1.94 9.06 -5 6 C-3.38405168 3.95880212 -1.7143618 1.95927063 0 0 Z " fill="#EBE5F6" transform="translate(88,65)"/>
<path d="M0 0 C0.33 0 0.66 0 1 0 C1 2.64 1 5.28 1 8 C2.32 7.67 3.64 7.34 5 7 C5 9.97 5 12.94 5 16 C3.68 15.67 2.36 15.34 1 15 C1 18.3 1 21.6 1 25 C0.67 25 0.34 25 0 25 C-0.89550909 20.4087391 -1.13436842 16.04984186 -1.125 11.375 C-1.12757812 10.08335938 -1.13015625 8.79171875 -1.1328125 7.4609375 C-1.0283103 4.73773315 -0.82214646 2.57083894 0 0 Z " fill="#9775D1" transform="translate(27,57)"/>
<path d="M0 0 C0.99 0.33 1.98 0.66 3 1 C2.2733313 1.55747925 2.2733313 1.55747925 1.53198242 2.1262207 C-0.60833906 4.74406412 -0.4299292 6.62709727 -0.51171875 9.98046875 C-0.56489258 11.72553711 -0.56489258 11.72553711 -0.61914062 13.50585938 C-0.64169922 14.72080078 -0.66425781 15.93574219 -0.6875 17.1875 C-0.72166016 18.41404297 -0.75582031 19.64058594 -0.79101562 20.90429688 C-0.8735941 23.93610678 -0.94271369 26.96762379 -1 30 C-4.11496916 25.32754625 -3.32850857 20.49414246 -3.3125 15 C-3.32861328 13.89398438 -3.34472656 12.78796875 -3.36132812 11.6484375 C-3.36197266 10.58882812 -3.36261719 9.52921875 -3.36328125 8.4375 C-3.36626221 7.46683594 -3.36924316 6.49617188 -3.37231445 5.49609375 C-2.94498514 2.63116592 -2.24052665 1.75954101 0 0 Z " fill="#764AC3" transform="translate(360,56)"/>
<path d="M0 0 C4.55555556 0.55555556 4.55555556 0.55555556 6 2 C6.1875 4.4375 6.1875 4.4375 6 7 C5.34 7.66 4.68 8.32 4 9 C-0.55555556 8.44444444 -0.55555556 8.44444444 -2 7 C-2.1875 4.5625 -2.1875 4.5625 -2 2 C-1.34 1.34 -0.68 0.68 0 0 Z " fill="#F6F3FB" transform="translate(98,64)"/>
<path d="M0 0 C0.66 0.33 1.32 0.66 2 1 C0.37660195 2.70884005 -1.29319053 4.37446717 -3 6 C-3.66 6 -4.32 6 -5 6 C-5 13.26 -5 20.52 -5 28 C-8.19140455 24.80859545 -7.40828726 21.09296124 -7.4375 16.75 C-7.47037109 15.90308594 -7.50324219 15.05617188 -7.53710938 14.18359375 C-7.57434154 9.83081466 -7.40387854 6.90598506 -4.59765625 3.453125 C-2 1 -2 1 0 0 Z " fill="#7E54C6" transform="translate(404,56)"/>
<path d="M0 0 C1.65 0 3.3 0 5 0 C5 2.97 5 5.94 5 9 C3.68 9.33 2.36 9.66 1 10 C0 9 0 9 -0.09765625 6.93359375 C-0.08605469 6.10988281 -0.07445313 5.28617188 -0.0625 4.4375 C-0.05347656 3.61121094 -0.04445313 2.78492188 -0.03515625 1.93359375 C-0.02355469 1.29550781 -0.01195313 0.65742188 0 0 Z " fill="#4D13B1" transform="translate(68,27)"/>
<path d="M0 0 C0 3 0 3 -1.8984375 5.19140625 C-2.71570312 5.97386719 -3.53296875 6.75632812 -4.375 7.5625 C-5.18710937 8.34753906 -5.99921875 9.13257812 -6.8359375 9.94140625 C-7.55007812 10.62074219 -8.26421875 11.30007812 -9 12 C-9.66 12.66 -10.32 13.32 -11 14 C-11.66 14 -12.32 14 -13 14 C-13.99 14.495 -13.99 14.495 -15 15 C-14.70579969 11.86886811 -14.05052333 11.04287077 -11.6015625 8.96484375 C-10.61929688 8.29582031 -9.63703125 7.62679687 -8.625 6.9375 C-4.03426207 3.79637101 -4.03426207 3.79637101 0 0 Z " fill="#E1D8F2" transform="translate(59,78)"/>
<path d="M0 0 C1.34444159 0.90029571 2.67531438 1.82088022 4 2.75 C5.11375 3.51570313 5.11375 3.51570313 6.25 4.296875 C6.8275 4.85890625 7.405 5.4209375 8 6 C8 7.32 8 8.64 8 10 C5.5 12.25 5.5 12.25 3 14 C2.67 13.34 2.34 12.68 2 12 C2.99 11.34 3.98 10.68 5 10 C3.44499019 6.18315774 0.96404505 3.80804268 -2 1 C-1.34 0.67 -0.68 0.34 0 0 Z " fill="#CAB9E8" transform="translate(54,46)"/>
<path d="M0 0 C3.3 0 6.6 0 10 0 C10 1.32 10 2.64 10 4 C6.7 4 3.4 4 0 4 C0 2.68 0 1.36 0 0 Z " fill="#470CAE" transform="translate(10,67)"/>
<path d="M0 0 C1.65 1.65 3.3 3.3 5 5 C4.01 5.99 3.02 6.98 2 8 C0.68 7.34 -0.64 6.68 -2 6 C-2 2 -2 2 0 0 Z " fill="#4D14B1" transform="translate(73,53)"/>
<path d="M0 0 C3 3 6 6 9 9 C8.360625 9.28875 7.72125 9.5775 7.0625 9.875 C4.84793921 10.82823451 4.84793921 10.82823451 4 13 C3.87625 11.88625 3.7525 10.7725 3.625 9.625 C3.3534187 5.96896323 3.3534187 5.96896323 1 4 C-0.98821313 3.60235737 -2.98944339 3.26224651 -5 3 C-5 2.67 -5 2.34 -5 2 C-3.35 2 -1.7 2 0 2 C0 1.34 0 0.68 0 0 Z " fill="#BBA5E1" transform="translate(32,99)"/>
<path d="M0 0 C-1.20381448 2.49361571 -2.45428722 4.68143083 -4 7 C-4.33 7.66 -4.66 8.32 -5 9 C-5.99 9 -6.98 9 -8 9 C-8.99 10.485 -8.99 10.485 -10 12 C-10.99 11.67 -11.98 11.34 -13 11 C-11.21427748 9.16052663 -9.42197551 7.32842259 -7.625 5.5 C-7.11710937 4.97535156 -6.60921875 4.45070313 -6.0859375 3.91015625 C-2.2265625 0 -2.2265625 0 0 0 Z " fill="#CBBBE8" transform="translate(80,46)"/>
<path d="M0 0 C1.09054688 0.02320312 2.18109375 0.04640625 3.3046875 0.0703125 C4.40039062 0.08835937 5.49609375 0.10640625 6.625 0.125 C7.46804687 0.14820312 8.31109375 0.17140625 9.1796875 0.1953125 C9.1796875 0.8553125 9.1796875 1.5153125 9.1796875 2.1953125 C7.5296875 2.1953125 5.8796875 2.1953125 4.1796875 2.1953125 C4.1796875 4.8353125 4.1796875 7.4753125 4.1796875 10.1953125 C3.8496875 10.1953125 3.5196875 10.1953125 3.1796875 10.1953125 C3.1796875 7.5553125 3.1796875 4.9153125 3.1796875 2.1953125 C0.5396875 2.1953125 -2.1003125 2.1953125 -4.8203125 2.1953125 C-2.8203125 0.1953125 -2.8203125 0.1953125 0 0 Z " fill="#A183D6" transform="translate(63.8203125,24.8046875)"/>
<path d="M0 0 C1.9375 0.75 1.9375 0.75 4 2 C4.75 4.125 4.75 4.125 5 6 C3.1875 6.6875 3.1875 6.6875 1 7 C-0.75 5.5625 -0.75 5.5625 -2 4 C-1.34 2.68 -0.68 1.36 0 0 Z " fill="#612EBA" transform="translate(101,97)"/>
<path d="M0 0 C0 0.66 0 1.32 0 2 C-1.609375 3.5859375 -1.609375 3.5859375 -3.75 5.375 C-6.6243732 7.81617866 -9.38543992 10.27649992 -12 13 C-12.66 12.67 -13.32 12.34 -14 12 C-12.23885299 9.99067777 -10.46713537 7.99283255 -8.6875 6 C-8.18798828 5.42765625 -7.68847656 4.8553125 -7.17382812 4.265625 C-3.33984375 0 -3.33984375 0 0 0 Z " fill="#622FBA" transform="translate(105,33)"/>
<path d="M0 0 C1.0828125 0.680625 1.0828125 0.680625 2.1875 1.375 C4.74894081 2.85494358 7.23277989 3.97217539 10 5 C7.22777417 6.38611291 5.08084714 5.61977541 2.109375 5.19140625 C-0.71447132 4.93516834 -3.24704405 5.38058491 -6 6 C-5.67 5.01 -5.34 4.02 -5 3 C-3.67696283 2.6278958 -2.34262065 2.29369827 -1 2 C-0.67 1.34 -0.34 0.68 0 0 Z " fill="#865FCA" transform="translate(76,84)"/>
<path d="M0 0 C1.65 0.33 3.3 0.66 5 1 C4.67 2.32 4.34 3.64 4 5 C2.35 5 0.7 5 -1 5 C-0.67 3.35 -0.34 1.7 0 0 Z " fill="#6E3FBF" transform="translate(15,89)"/>
<path d="M0 0 C1.65 0 3.3 0 5 0 C5.33 1.32 5.66 2.64 6 4 C4.35 4.33 2.7 4.66 1 5 C0.67 3.35 0.34 1.7 0 0 Z " fill="#6A3ABE" transform="translate(14,43)"/>
<path d="M0 0 C1 2 1 2 0.9375 5 C0.65618869 8.11767214 0.65618869 8.11767214 3 10 C5.57061311 10.64767793 5.57061311 10.64767793 8 11 C8 11.33 8 11.66 8 12 C5.69 12.66 3.38 13.32 1 14 C0.87625 13.195625 0.7525 12.39125 0.625 11.5625 C0.315625 10.2940625 0.315625 10.2940625 0 9 C-0.66 8.67 -1.32 8.34 -2 8 C-1.125 1.125 -1.125 1.125 0 0 Z " fill="#9C7CD4" transform="translate(105,24)"/>
<path d="M0 0 C1.98 0.495 1.98 0.495 4 1 C3.67 2.65 3.34 4.3 3 6 C1.68 5.67 0.36 5.34 -1 5 C-0.67 3.35 -0.34 1.7 0 0 Z " fill="#6D3DBE" transform="translate(55,124)"/>
<path d="M0 0 C1.98 0.495 1.98 0.495 4 1 C3.67 2.65 3.34 4.3 3 6 C1.68 5.67 0.36 5.34 -1 5 C-0.67 3.35 -0.34 1.7 0 0 Z " fill="#6A39BD" transform="translate(83,124)"/>
<path d="M0 0 C1.98 0.495 1.98 0.495 4 1 C3.67 2.65 3.34 4.3 3 6 C1.68 5.67 0.36 5.34 -1 5 C-0.67 3.35 -0.34 1.7 0 0 Z " fill="#6635BC" transform="translate(122,42)"/>
<path d="M0 0 C1.32 0 2.64 0 4 0 C4 1.65 4 3.3 4 5 C2.35 4.67 0.7 4.34 -1 4 C-0.67 2.68 -0.34 1.36 0 0 Z " fill="#612EBA" transform="translate(122,89)"/>
<path d="M0 0 C2.475 0.495 2.475 0.495 5 1 C4.67 2.32 4.34 3.64 4 5 C2.68 5 1.36 5 0 5 C0 3.35 0 1.7 0 0 Z " fill="#6533BB" transform="translate(82,8)"/>
<path d="M0 0 C1.65 0 3.3 0 5 0 C4.67 1.65 4.34 3.3 4 5 C2.68 4.67 1.36 4.34 0 4 C0 2.68 0 1.36 0 0 Z " fill="#6736BC" transform="translate(54,8)"/>
<path d="M0 0 C0 3 0 3 -1.53125 4.82421875 C-2.1809375 5.43910156 -2.830625 6.05398437 -3.5 6.6875 C-4.1496875 7.31011719 -4.799375 7.93273437 -5.46875 8.57421875 C-5.9740625 9.04472656 -6.479375 9.51523438 -7 10 C-7.99 9.34 -8.98 8.68 -10 8 C-9.44570313 7.59007813 -8.89140625 7.18015625 -8.3203125 6.7578125 C-7.59585938 6.21898438 -6.87140625 5.68015625 -6.125 5.125 C-5.04605469 4.32449219 -5.04605469 4.32449219 -3.9453125 3.5078125 C-1.91747368 2.00126838 -1.91747368 2.00126838 0 0 Z " fill="#C1ADE3" transform="translate(59,78)"/>
<path d="M0 0 C-0.598125 0.2475 -1.19625 0.495 -1.8125 0.75 C-4.29754739 2.17002708 -5.31362486 3.72705959 -7 6 C-7.99 6.33 -8.98 6.66 -10 7 C-9.63206382 4.33246269 -9.18001672 3.18001672 -7.25 1.25 C-4.62056017 -0.21079991 -2.9625559 -0.24687966 0 0 Z " fill="#E0D6F1" transform="translate(113,36)"/>
<path d="M0 0 C1.32 0.33 2.64 0.66 4 1 C4 1.66 4 2.32 4 3 C3.34 3 2.68 3 2 3 C2 3.66 2 4.32 2 5 C0.68 4.67 -0.64 4.34 -2 4 C-1.34 2.68 -0.68 1.36 0 0 Z " fill="#6331BA" transform="translate(36,33)"/>
<path d="M0 0 C-0.99 0.33 -1.98 0.66 -3 1 C-3 1.66 -3 2.32 -3 3 C-5.4375 2.625 -5.4375 2.625 -8 2 C-8.33 1.34 -8.66 0.68 -9 0 C-5.93109813 -1.53445094 -3.29905734 -0.54984289 0 0 Z " fill="#E0D5F1" transform="translate(58,106)"/>
<path d="M0 0 C0.66 0.33 1.32 0.66 2 1 C-1.96 4.465 -1.96 4.465 -6 8 C-6 5 -6 5 -4.6875 3.61328125 C-3.125 2.40885417 -1.5625 1.20442708 0 0 Z " fill="#7042C0" transform="translate(46,81)"/>
<path d="M0 0 C0.28875 0.61875 0.5775 1.2375 0.875 1.875 C1.93720042 4.13325765 1.93720042 4.13325765 4 6 C3.34 6.66 2.68 7.32 2 8 C0.35 6.02 -1.3 4.04 -3 2 C-2.01 1.34 -1.02 0.68 0 0 Z " fill="#9A79D2" transform="translate(66,70)"/>
<path d="M0 0 C2.97 1.98 2.97 1.98 6 4 C5.01 4.66 4.02 5.32 3 6 C1.35 4.35 -0.3 2.7 -2 1 C-1.34 0.67 -0.68 0.34 0 0 Z " fill="#DACFEF" transform="translate(54,46)"/>
<path d="M0 0 C0.66 0.33 1.32 0.66 2 1 C-1.465 3.97 -1.465 3.97 -5 7 C-5 6.01 -5 5.02 -5 4 C-2.5 1.8125 -2.5 1.8125 0 0 Z " fill="#7447C2" transform="translate(404,56)"/>
</svg>
