<?xml version="1.0" encoding="UTF-8"?>
<svg version="1.1" xmlns="http://www.w3.org/2000/svg" width="1867" height="275">
<path d="M0 0 C616.11 0 1232.22 0 1867 0 C1867 90.75 1867 181.5 1867 275 C1250.89 275 634.78 275 0 275 C0 184.25 0 93.5 0 0 Z " fill="#FEFEFE" transform="translate(0,0)"/>
<path d="M0 0 C1.40351983 1.01023932 2.80042027 2.02980391 4.1875 3.0625 C5.05375 3.64 5.92 4.2175 6.8125 4.8125 C14.91931144 12.49263715 19.10673467 21.08004477 19.63916016 32.14599609 C19.88267382 43.37468181 17.30876882 51.78191796 9.875 60.4375 C0.72701077 69.82622579 -8.19930577 75.01982237 -21.57080078 75.53540039 C-29.34919342 75.62446596 -35.97518164 75.09291924 -42.8125 71.0625 C-43.65039062 70.588125 -44.48828125 70.11375 -45.3515625 69.625 C-54.47524259 63.89169046 -60.88799324 55.34463433 -64.19140625 45.08203125 C-66.34200696 34.62659507 -65.67359272 23.75705611 -60.30078125 14.44140625 C-47.13764037 -5.46599558 -20.79446776 -13.42126596 0 0 Z " fill="#FCFFFC" transform="translate(588.8125,158.9375)"/>
<path d="M0 0 C11.8201039 8.50025991 18.93498697 17.86663004 21.73828125 32.3203125 C22.11681806 36.19607745 22 40.10579352 22 44 C-8.69 44 -39.38 44 -71 44 C-67.27516497 58.89934013 -60.99600727 69.41025805 -48 78 C-42.59367408 80.88708951 -37.26654023 82.12430476 -31.1640625 82.1328125 C-30.26429688 82.13410156 -29.36453125 82.13539063 -28.4375 82.13671875 C-27.0453125 82.13091797 -27.0453125 82.13091797 -25.625 82.125 C-24.24441406 82.13080078 -24.24441406 82.13080078 -22.8359375 82.13671875 C-10.82148272 82.11955524 5.98594567 79.01405433 15 70 C18 69.875 18 69.875 21 70 C22 71 22 71 22.375 73.25 C21.95918727 76.29929337 21.14409431 77.63884273 18.859375 79.6796875 C10.79164926 85.40845074 1.4570235 88.4387228 -8 91 C-8.90987671 91.26369385 -8.90987671 91.26369385 -9.83813477 91.53271484 C-24.90062877 94.78845889 -41.75056281 92.62929738 -55.1875 85.375 C-64.25985601 79.50378424 -71.22898874 71.66129781 -76 62 C-76.4125 61.2059375 -76.825 60.411875 -77.25 59.59375 C-79.92646382 53.5717064 -80.37824719 47.87452881 -80.4375 41.375 C-80.44765137 40.58746338 -80.45780273 39.79992676 -80.46826172 38.98852539 C-80.29759165 27.46829598 -75.12929383 15.42633166 -67.265625 7.015625 C-58.85645689 -0.46563491 -50.14168798 -5.14028457 -39 -7 C-38.18660156 -7.17917969 -37.37320313 -7.35835937 -36.53515625 -7.54296875 C-23.98390825 -9.80567448 -10.73582815 -6.85900132 0 0 Z " fill="#08FF08" transform="translate(995,151)"/>
<path d="M0 0 C8.25 0 16.5 0 25 0 C25.33 18.48 25.66 36.96 26 56 C28.31 53.69 30.62 51.38 33 49 C35.6953125 47.07421875 35.6953125 47.07421875 38.125 45.6875 C38.93195313 45.21699219 39.73890625 44.74648437 40.5703125 44.26171875 C41.77300781 43.63716797 41.77300781 43.63716797 43 43 C44.08861328 42.43152344 44.08861328 42.43152344 45.19921875 41.8515625 C49.35318159 40.5885724 53.36869782 40.65958015 57.6875 40.6875 C58.58436523 40.69313965 59.48123047 40.6987793 60.40527344 40.70458984 C71.76359718 40.91324585 79.33222646 43.58102398 87.5703125 51.51171875 C90.61347208 54.82441532 91.6817004 57.54380557 92 62 C92.66 62 93.32 62 94 62 C95.05866606 65.45833754 95.12073782 68.63108902 95.11352539 72.23730469 C95.11341209 74.12881256 95.11341209 74.12881256 95.11329651 76.05853271 C95.10819028 77.42964721 95.1029743 78.80076131 95.09765625 80.171875 C95.09579028 81.57863311 95.09436722 82.98539188 95.09336853 84.39215088 C95.08955744 88.08780727 95.0797392 91.78342413 95.06866455 95.47906494 C95.05842014 99.25296494 95.05386442 103.02687135 95.04882812 106.80078125 C95.03811564 114.20053882 95.02105616 121.60026386 95 129 C95.98742188 128.98839844 96.97484375 128.97679687 97.9921875 128.96484375 C99.91417969 128.95130859 99.91417969 128.95130859 101.875 128.9375 C103.15117188 128.92589844 104.42734375 128.91429687 105.7421875 128.90234375 C109 129 109 129 111 130 C111 132.31 111 134.62 111 137 C107.28395157 138.23868281 103.80969504 138.18154462 99.9375 138.203125 C98.75595337 138.21167511 98.75595337 138.21167511 97.55053711 138.22039795 C95.8862441 138.22983636 94.22193249 138.23637733 92.55761719 138.24023438 C90.00943659 138.24996397 87.46205467 138.28100686 84.9140625 138.3125 C83.29687979 138.319028 81.67969131 138.32427927 80.0625 138.328125 C79.29993896 138.3404718 78.53737793 138.3528186 77.75170898 138.36553955 C72.51129018 138.34341492 72.51129018 138.34341492 69.98046875 136.64355469 C69 135 69 135 69.25 132.375 C70 130 70 130 71 129 C73.34987262 128.76472227 75.70556039 128.58613583 78.0625 128.4375 C79.35285156 128.35371094 80.64320312 128.26992187 81.97265625 128.18359375 C82.97167969 128.12300781 83.97070312 128.06242188 85 128 C85.06958568 120.00259114 85.12285447 112.00530931 85.15543652 104.00767231 C85.17107623 100.29382426 85.19228309 96.58018372 85.22631836 92.86645508 C85.25897295 89.28083959 85.27686576 85.69542338 85.28463173 82.10967064 C85.29016435 80.74334769 85.30096836 79.37703535 85.31719017 78.0107975 C85.33904275 76.09365143 85.34022607 74.17630378 85.34057617 72.2590332 C85.34723801 71.16871292 85.35389984 70.07839264 85.36076355 68.95503235 C84.94933246 65.5849796 83.92837442 63.76193976 82 61 C81.443125 60.154375 80.88625 59.30875 80.3125 58.4375 C75.858262 53.74249238 69.66132311 51.14355685 63.234375 50.796875 C61.73965257 50.7756356 60.24483838 50.76022112 58.75 50.75 C58.01136719 50.729375 57.27273438 50.70875 56.51171875 50.6875 C47.76821485 50.62581743 41.47686749 54.29781666 35 60 C33.06953233 62.0326689 31.23969622 64.11236454 29.4453125 66.265625 C28 68 28 68 26 70 C25.66802252 72.58828428 25.66802252 72.58828428 25.68115234 75.64306641 C25.66128265 76.82413971 25.64141296 78.00521301 25.62094116 79.22207642 C25.60361435 81.14242203 25.60361435 81.14242203 25.5859375 83.1015625 C25.56657135 84.40829926 25.5472052 85.71503601 25.5272522 87.06137085 C25.4758583 90.53667109 25.43627178 94.01201012 25.39910889 97.48748779 C25.35911447 101.03342341 25.30800141 104.57919662 25.2578125 108.125 C25.16096753 115.08321476 25.07659034 122.04153365 25 129 C25.98742188 128.97679687 26.97484375 128.95359375 27.9921875 128.9296875 C29.27351563 128.91164062 30.55484375 128.89359375 31.875 128.875 C33.15117188 128.85179687 34.42734375 128.82859375 35.7421875 128.8046875 C39 129 39 129 41 131 C40.67028521 134.29714793 40.3773161 135.6226839 38 138 C35.3104026 138.21202418 32.72636277 138.30397614 30.03515625 138.30078125 C29.24604355 138.30506638 28.45693085 138.3093515 27.64390564 138.31376648 C25.97363241 138.31951363 24.30333414 138.32000721 22.63305664 138.31567383 C20.07590028 138.31251655 17.5199036 138.33595751 14.96289062 138.36132812 C13.3411473 138.36360134 11.71940085 138.36430451 10.09765625 138.36328125 C9.33195816 138.372491 8.56626007 138.38170074 7.77735901 138.39118958 C2.50822831 138.34522694 2.50822831 138.34522694 0.00561523 136.64526367 C-1.38077782 134.37701828 -1.21106022 132.60307604 -1 130 C3.77958622 127.61020689 9.65626015 129 15 129 C15 89.73 15 50.46 15 10 C10.05 10 5.1 10 0 10 C-0.99 9.01 -1.98 8.02 -3 7 C-2.75546876 3.65807308 -2.39456443 2.39456443 0 0 Z " fill="#0CFF0F" transform="translate(1181,103)"/>
<path d="M0 0 C1.14763227 0.00276538 1.14763227 0.00276538 2.31844902 0.00558662 C3.63518105 0.00146263 3.63518105 0.00146263 4.97851372 -0.00274467 C5.94379997 0.00444588 6.90908623 0.01163643 7.90362358 0.01904488 C9.42561867 0.0186068 9.42561867 0.0186068 10.97836113 0.01815987 C14.34399679 0.01955713 17.70941314 0.03513706 21.0750103 0.05078316 C23.40385632 0.05451187 25.7327039 0.05735951 28.06155205 0.0593586 C34.20023723 0.06700617 40.33882823 0.08666432 46.47747612 0.10876656 C52.73783913 0.1292008 58.99821732 0.13835512 65.25860405 0.14843941 C77.54901008 0.16990914 89.83934612 0.20405862 102.1296978 0.24609566 C102.1790629 5.19399743 102.21540049 10.14175649 102.23956108 15.08984566 C102.24963097 16.77379032 102.26328768 18.45771745 102.28057671 20.14160347 C102.30478205 22.55929066 102.31617076 24.97674709 102.3250103 27.39453316 C102.33533287 28.14979286 102.34565544 28.90505257 102.35629082 29.68319893 C102.35669098 31.53903546 102.25192496 33.39428846 102.1296978 35.24609566 C101.1396978 36.23609566 101.1396978 36.23609566 100.1296978 37.24609566 C94.56151598 36.67791384 94.56151598 36.67791384 93.1296978 35.24609566 C93.1296978 26.66609566 93.1296978 18.08609566 93.1296978 9.24609566 C70.0296978 9.24609566 46.9296978 9.24609566 23.1296978 9.24609566 C23.1296978 25.08609566 23.1296978 40.92609566 23.1296978 57.24609566 C33.6896978 56.91609566 44.2496978 56.58609566 55.1296978 56.24609566 C55.4596978 51.62609566 55.7896978 47.00609566 56.1296978 42.24609566 C56.7896978 41.58609566 57.4496978 40.92609566 58.1296978 40.24609566 C63.69787962 40.81427748 63.69787962 40.81427748 65.1296978 42.24609566 C65.2431493 45.03433303 65.29388043 47.79686911 65.29766655 50.58593941 C65.30265915 51.84187653 65.30265915 51.84187653 65.30775261 53.12318611 C65.31282536 54.89779293 65.31516083 56.67240933 65.31500053 58.44702339 C65.31718577 61.16861822 65.33533413 63.88980708 65.35430717 66.61133003 C65.35724122 68.33203176 65.35922594 70.05273543 65.36016655 71.77343941 C65.36735207 72.5911834 65.37453758 73.40892738 65.38194084 74.25145149 C65.35851984 80.01727362 65.35851984 80.01727362 63.1296978 82.24609566 C60.8196978 81.91609566 58.5096978 81.58609566 56.1296978 81.24609566 C56.1296978 76.29609566 56.1296978 71.34609566 56.1296978 66.24609566 C45.2396978 66.24609566 34.3496978 66.24609566 23.1296978 66.24609566 C23.1296978 83.73609566 23.1296978 101.22609566 23.1296978 119.24609566 C34.55818819 119.2065197 34.55818819 119.2065197 45.98663139 119.15600777 C47.41713194 119.15308773 48.84763331 119.15053938 50.2781353 119.14843941 C51.02361626 119.14332344 51.76909721 119.13820747 52.5371685 119.13293648 C57.9015542 119.13202386 57.9015542 119.13202386 60.1296978 120.24609566 C60.3171978 123.12109566 60.3171978 123.12109566 60.1296978 126.24609566 C56.69808316 128.53383875 55.44124454 128.49868185 51.40484428 128.50488472 C50.2303019 128.51118904 49.05575951 128.51749336 47.84562492 128.52398872 C45.9424324 128.51791603 45.9424324 128.51791603 44.00079155 128.51172066 C42.70021309 128.51363411 41.39963463 128.51554756 40.0596447 128.517519 C37.30828917 128.52046642 34.5570636 128.5161843 31.80572319 128.50683784 C28.27586328 128.49543215 24.74630713 128.50201201 21.21645832 128.51398277 C17.8528782 128.52293764 14.48938031 128.51667292 11.12579155 128.51172066 C9.21956268 128.51779335 9.21956268 128.51779335 7.27482414 128.52398872 C5.5177388 128.51453224 5.5177388 128.51453224 3.72515678 128.50488472 C2.69051796 128.50329353 1.65587914 128.50170235 0.58988762 128.50006294 C-1.8703022 128.24609566 -1.8703022 128.24609566 -3.8703022 126.24609566 C-4.0578022 123.18359566 -4.0578022 123.18359566 -3.8703022 120.24609566 C0.16427061 116.21152285 7.43506171 118.60201041 13.1296978 118.24609566 C13.4596978 82.27609566 13.7896978 46.30609566 14.1296978 9.24609566 C8.8496978 9.24609566 3.5696978 9.24609566 -1.8703022 9.24609566 C-2.5303022 8.91609566 -3.1903022 8.58609566 -3.8703022 8.24609566 C-3.9953022 5.37109566 -3.9953022 5.37109566 -3.8703022 2.24609566 C-1.8703022 0.24609566 -1.8703022 0.24609566 0 0 Z " fill="#06FF07" transform="translate(386.8703022003174,112.75390434265137)"/>
<path d="M0 0 C33.99 0 67.98 0 103 0 C103 43 103 43 101 46 C98.69 45.67 96.38 45.34 94 45 C93.505 27.675 93.505 27.675 93 10 C81.12 10 69.24 10 57 10 C57 45.64 57 81.28 57 118 C70.365 118.495 70.365 118.495 84 119 C84.66 119.33 85.32 119.66 86 120 C86.1875 122.875 86.1875 122.875 86 126 C82.48838502 128.34107666 81.06203396 128.25281532 76.90795898 128.25878906 C75.65333359 128.26509338 74.39870819 128.27139771 73.10606384 128.27789307 C71.73607238 128.27431366 70.36608221 128.27021179 68.99609375 128.265625 C67.59269646 128.26697215 66.18929962 128.26891309 64.78590393 128.27142334 C61.84623771 128.27437132 58.9066931 128.27008689 55.96704102 128.26074219 C52.1950512 128.24933722 48.42334566 128.25591561 44.65136623 128.26788712 C41.75435738 128.27510563 38.85741621 128.27281804 35.96040535 128.26763153 C34.56930572 128.26629555 33.17819997 128.26794097 31.78710747 128.27259064 C29.84562163 128.27765658 27.9041143 128.26856925 25.96264648 128.25878906 C24.85694809 128.25719788 23.75124969 128.25560669 22.61204529 128.25396729 C20 128 20 128 18 126 C17.8125 122.9375 17.8125 122.9375 18 120 C18.33 119.67 18.66 119.34 19 119 C28.24 119 37.48 119 47 119 C47 82.7 47 46.4 47 9 C34.79 9.33 22.58 9.66 10 10 C9.7106584 21.47338182 9.7106584 21.47338182 9.43188477 32.94702148 C9.39377677 34.38005586 9.35530892 35.81308073 9.31640625 37.24609375 C9.29993042 37.99669067 9.28345459 38.7472876 9.26647949 39.52062988 C9.1140718 44.8859282 9.1140718 44.8859282 8 46 C5.5625 46.1875 5.5625 46.1875 3 46 C1 44 1 44 0 40 C0 26.8 0 13.6 0 0 Z " fill="#0AFF05" transform="translate(782,113)"/>
<path d="M0 0 C5.51675049 4.52714782 10.38809509 11.41978174 11.75 18.5 C11.86439672 20.57707988 11.92620193 22.65728078 11.95532227 24.73730469 C11.9852401 26.62881256 11.9852401 26.62881256 12.01576233 28.55853271 C12.03274401 29.92964557 12.04962291 31.3007597 12.06640625 32.671875 C12.08698835 34.07863967 12.10798515 35.48539833 12.12937927 36.89215088 C12.18447035 40.58773927 12.23393655 44.28338226 12.28222656 47.97906494 C12.33253649 51.75301959 12.38817293 55.52689532 12.44335938 59.30078125 C12.55078228 66.70045392 12.65226219 74.1001924 12.75 81.5 C13.90628906 81.57347656 13.90628906 81.57347656 15.0859375 81.6484375 C16.59027344 81.76058594 16.59027344 81.76058594 18.125 81.875 C19.62160156 81.97941406 19.62160156 81.97941406 21.1484375 82.0859375 C23.75 82.5 23.75 82.5 25.75 84.5 C26.0625 87 26.0625 87 25.75 89.5 C22.05300856 91.96466096 20.15579069 91.75779399 15.74609375 91.765625 C14.72745995 91.76849518 14.72745995 91.76849518 13.68824768 91.77142334 C12.25513335 91.77278247 10.82200659 91.76910496 9.38891602 91.76074219 C7.19194015 91.75002167 4.99577886 91.76065453 2.79882812 91.7734375 C1.40624819 91.77211618 0.01366877 91.76955436 -1.37890625 91.765625 C-2.64806885 91.76336914 -3.91723145 91.76111328 -5.22485352 91.75878906 C-8.25 91.5 -8.25 91.5 -10.25 89.5 C-10.4375 86.4375 -10.4375 86.4375 -10.25 83.5 C-9.25 82.5 -9.25 82.5 -6.52734375 82.40234375 C-4.87412109 82.41974609 -4.87412109 82.41974609 -3.1875 82.4375 C-2.08277344 82.44652344 -0.97804688 82.45554687 0.16015625 82.46484375 C1.01480469 82.47644531 1.86945313 82.48804688 2.75 82.5 C2.71186465 74.40640329 2.65239048 66.31335793 2.56609726 58.22014523 C2.52668359 54.46160644 2.49446557 50.70329977 2.47900391 46.94458008 C2.46379643 43.31328125 2.42928016 39.68262084 2.38169098 36.05160713 C2.36691897 34.67027923 2.35896139 33.28886016 2.35811615 31.90745354 C2.34637805 22.33789832 1.93571695 16.68571695 -5 9.75 C-13.59308573 3.80094065 -22.13595049 3.50484252 -32.25 4.5 C-36.30880642 5.42870994 -38.88270783 7.09539111 -42.25 9.5 C-42.80552551 9.86223663 -43.36105103 10.22447327 -43.93341064 10.59768677 C-49.99560796 14.71290773 -55.22270357 19.34154441 -57.03265381 26.66815186 C-58.09881275 35.02242148 -57.91494719 43.4121158 -57.67486572 51.8114624 C-57.59110473 55.27765025 -57.58836396 58.743891 -57.578125 62.2109375 C-57.54654327 68.97608576 -57.42727395 75.73713817 -57.25 82.5 C-55.76886719 82.46519531 -55.76886719 82.46519531 -54.2578125 82.4296875 C-52.33582031 82.40261719 -52.33582031 82.40261719 -50.375 82.375 C-49.09882813 82.35179687 -47.82265625 82.32859375 -46.5078125 82.3046875 C-43.25 82.5 -43.25 82.5 -41.25 84.5 C-41.4375 87 -41.4375 87 -42.25 89.5 C-45.94994558 91.96663039 -48.81081297 91.80605136 -53.09375 91.80078125 C-53.85925171 91.80506638 -54.62475342 91.8093515 -55.41345215 91.81376648 C-57.03067028 91.81950517 -58.64791423 91.82001342 -60.26513672 91.81567383 C-62.74100653 91.81251149 -65.21568397 91.83598531 -67.69140625 91.86132812 C-69.26301932 91.86360092 -70.83463562 91.86430471 -72.40625 91.86328125 C-73.14693726 91.872491 -73.88762451 91.88170074 -74.65075684 91.89118958 C-79.74020906 91.84530022 -79.74020906 91.84530022 -82.25585938 90.14135742 C-83.25 88.5 -83.25 88.5 -83 85.875 C-82.25 83.5 -82.25 83.5 -81.25 82.5 C-76.63 82.5 -72.01 82.5 -67.25 82.5 C-67.25 57.09 -67.25 31.68 -67.25 5.5 C-70.88 5.5 -74.51 5.5 -78.25 5.5 C-78.91 5.17 -79.57 4.84 -80.25 4.5 C-80.375 1.625 -80.375 1.625 -80.25 -1.5 C-78.25 -3.5 -78.25 -3.5 -76.09521484 -3.72705078 C-75.22590332 -3.71657715 -74.3565918 -3.70610352 -73.4609375 -3.6953125 C-72.51992187 -3.68886719 -71.57890625 -3.68242187 -70.609375 -3.67578125 C-69.62453125 -3.65902344 -68.6396875 -3.64226562 -67.625 -3.625 C-66.63242187 -3.61597656 -65.63984375 -3.60695312 -64.6171875 -3.59765625 C-62.16135612 -3.57404249 -59.70564826 -3.5381707 -57.25 -3.5 C-57.25 0.79 -57.25 5.08 -57.25 9.5 C-56.404375 8.82453125 -55.55875 8.1490625 -54.6875 7.453125 C-39.03571125 -4.90987119 -18.5131728 -12.20106245 0 0 Z " fill="#0DFF0B" transform="translate(326.25,149.5)"/>
<path d="M0 0 C1.47773263 0.99254375 2.93906134 2.01039879 4.375 3.0625 C5.40625 3.805 6.4375 4.5475 7.5 5.3125 C17.26475077 14.65269639 23.93145247 25.10846832 24.54296875 38.83203125 C24.71971566 53.98947394 22.163899 66.29998216 11.24584961 77.69580078 C0.45376202 88.45663893 -11.1280648 93.67318279 -26.3125 94.4375 C-38.38556072 94.11068148 -49.04957353 90.31861902 -58.625 83.0625 C-60.23375 81.9178125 -60.23375 81.9178125 -61.875 80.75 C-71.94592592 70.90795876 -77.22923337 58.88337602 -77.6875 44.86328125 C-77.44135533 29.89460867 -73.57802337 18.24505203 -63.10546875 7.31640625 C-45.76577551 -8.43950399 -20.46677598 -11.91074031 0 0 Z M-59.9375 17.375 C-68.08382532 27.62733556 -69.53910856 38.32935401 -68.625 51.0625 C-65.88235085 63.6786861 -57.59241616 72.52471076 -47.19921875 79.6328125 C-40.82888294 83.17081388 -35.15056009 84.59923366 -27.875 84.5 C-27.0907666 84.49242676 -26.3065332 84.48485352 -25.49853516 84.47705078 C-14.98038055 84.18158488 -6.4747093 81.1136458 1.375 74.0625 C2.29925781 73.27552734 2.29925781 73.27552734 3.2421875 72.47265625 C8.10560998 68.03713145 10.79695348 63.06828629 13.375 57.0625 C13.74238281 56.30453125 14.10976563 55.5465625 14.48828125 54.765625 C17.28683015 46.2343658 16.29446586 34.69992308 12.7578125 26.55078125 C6.81862374 15.86359695 -2.07706792 8.13824073 -13.625 4.0625 C-30.89164835 -0.34800257 -47.79602435 4.20879623 -59.9375 17.375 Z " fill="#0AFF0A" transform="translate(592.625,149.9375)"/>
<path d="M0 0 C6.32088238 3.613757 9.74417912 10.50660818 12.14575195 17.15771484 C13.39112683 22.11405528 13.23314025 27.16859714 13.1875 32.25 C13.18065186 33.40669189 13.17380371 34.56338379 13.16674805 35.75512695 C12.97519005 45.9335287 11.92104639 56.00110745 5.21484375 64.1953125 C0.98669664 68.14158313 -3.50927875 69.78990414 -9.25 70.125 C-14.65938888 69.81849558 -18.50883579 68.58193262 -22.25 64.5625 C-31.1057123 49.87162843 -32.85725986 33.48603277 -29.125 16.625 C-27.06740188 10.09645269 -23.78162293 3.9135042 -18 0 C-12.27137761 -2.74417452 -5.78907944 -2.40196986 0 0 Z " fill="#FAFFFA" transform="translate(943.25,32.4375)"/>
<path d="M0 0 C6.32088238 3.613757 9.74417912 10.50660818 12.14575195 17.15771484 C13.39112683 22.11405528 13.23314025 27.16859714 13.1875 32.25 C13.18065186 33.40669189 13.17380371 34.56338379 13.16674805 35.75512695 C12.97519005 45.9335287 11.92104639 56.00110745 5.21484375 64.1953125 C0.98669664 68.14158313 -3.50927875 69.78990414 -9.25 70.125 C-14.65938888 69.81849558 -18.50883579 68.58193262 -22.25 64.5625 C-31.1057123 49.87162843 -32.85725986 33.48603277 -29.125 16.625 C-27.06740188 10.09645269 -23.78162293 3.9135042 -18 0 C-12.27137761 -2.74417452 -5.78907944 -2.40196986 0 0 Z " fill="#FAFFFA" transform="translate(742.25,32.4375)"/>
<path d="M0 0 C6.32088238 3.613757 9.74417912 10.50660818 12.14575195 17.15771484 C13.39112683 22.11405528 13.23314025 27.16859714 13.1875 32.25 C13.18065186 33.40669189 13.17380371 34.56338379 13.16674805 35.75512695 C12.97519005 45.9335287 11.92104639 56.00110745 5.21484375 64.1953125 C0.98669664 68.14158313 -3.50927875 69.78990414 -9.25 70.125 C-14.65938888 69.81849558 -18.50883579 68.58193262 -22.25 64.5625 C-31.1057123 49.87162843 -32.85725986 33.48603277 -29.125 16.625 C-27.06740188 10.09645269 -23.78162293 3.9135042 -18 0 C-12.27137761 -2.74417452 -5.78907944 -2.40196986 0 0 Z " fill="#FAFFFA" transform="translate(541.25,32.4375)"/>
<path d="M0 0 C6.32088238 3.613757 9.74417912 10.50660818 12.14575195 17.15771484 C13.39112683 22.11405528 13.23314025 27.16859714 13.1875 32.25 C13.18065186 33.40669189 13.17380371 34.56338379 13.16674805 35.75512695 C12.97519005 45.9335287 11.92104639 56.00110745 5.21484375 64.1953125 C0.98669664 68.14158313 -3.50927875 69.78990414 -9.25 70.125 C-14.65938888 69.81849558 -18.50883579 68.58193262 -22.25 64.5625 C-31.1057123 49.87162843 -32.85725986 33.48603277 -29.125 16.625 C-27.06740188 10.09645269 -23.78162293 3.9135042 -18 0 C-12.27137761 -2.74417452 -5.78907944 -2.40196986 0 0 Z " fill="#FAFFFA" transform="translate(474.25,32.4375)"/>
<path d="M0 0 C0.75625168 -0.00335861 1.51250336 -0.00671722 2.29167175 -0.01017761 C4.79871246 -0.01969874 7.30568647 -0.02163128 9.81274414 -0.02270508 C11.55147835 -0.02591675 13.29021229 -0.02928075 15.02894592 -0.03279114 C18.67653022 -0.03878525 22.32409081 -0.04063074 25.97167969 -0.04003906 C30.65045538 -0.0399374 35.32907944 -0.05359247 40.00781918 -0.07081127 C43.59970297 -0.08191803 47.19154996 -0.08395868 50.78344917 -0.08342934 C52.50865769 -0.08461135 54.2338671 -0.08904544 55.95905876 -0.0967617 C58.36994997 -0.10653535 60.78050995 -0.1036941 63.19140625 -0.09765625 C63.90683594 -0.10327576 64.62226563 -0.10889526 65.359375 -0.11468506 C69.02396701 -0.09130832 70.52203203 0.0530181 73.66040039 2.14526367 C73.97290039 4.64526367 73.97290039 4.64526367 73.66040039 7.14526367 C64.91079723 15.89486684 49.02916041 9.79187053 36.66040039 10.14526367 C36.66040039 45.78526367 36.66040039 81.42526367 36.66040039 118.14526367 C53.98540039 118.64026367 53.98540039 118.64026367 71.66040039 119.14526367 C72.32040039 119.47526367 72.98040039 119.80526367 73.66040039 120.14526367 C73.84790039 123.02026367 73.84790039 123.02026367 73.66040039 126.14526367 C70.03904532 128.55950039 67.39138332 128.43444265 63.20727539 128.41992188 C62.45087769 128.42503281 61.69447998 128.43014374 60.91516113 128.43540955 C58.41349387 128.44931614 55.91210172 128.4483482 53.41040039 128.44604492 C51.67309466 128.44993088 49.93578987 128.45426535 48.19848633 128.45903015 C44.55685343 128.46649437 40.91531749 128.46619935 37.27368164 128.4609375 C32.60269042 128.45513844 27.93209516 128.47208328 23.26116943 128.49528217 C19.67356031 128.50999898 16.08604704 128.5108941 12.49841309 128.50777245 C10.77599299 128.50828656 9.05356765 128.51354111 7.33117676 128.52358437 C4.92502942 128.5358938 2.51965987 128.52919105 0.11352539 128.51757812 C-0.60033325 128.52522186 -1.31419189 128.5328656 -2.04968262 128.54074097 C-4.94923663 128.50974171 -6.89252123 128.45194493 -9.32104492 126.78605652 C-10.33959961 125.14526367 -10.33959961 125.14526367 -10.08959961 122.52026367 C-9.33959961 120.14526367 -9.33959961 120.14526367 -8.33959961 119.14526367 C3.21040039 119.14526367 14.76040039 119.14526367 26.66040039 119.14526367 C26.66040039 82.84526367 26.66040039 46.54526367 26.66040039 9.14526367 C15.11040039 9.14526367 3.56040039 9.14526367 -8.33959961 9.14526367 C-8.99959961 8.48526367 -9.65959961 7.82526367 -10.33959961 7.14526367 C-10.08959961 4.08276367 -10.08959961 4.08276367 -9.33959961 1.14526367 C-6.34813403 -0.35046912 -3.28060299 -0.00207222 0 0 Z " fill="#0CFF05" transform="translate(132.339599609375,112.854736328125)"/>
<path d="M0 0 C0.33 -2.64 0.66 -5.28 1 -8 C3.875 -8.625 3.875 -8.625 7 -9 C10.30681337 -5.69318663 9.29661496 -1.51577192 9.32226562 2.98242188 C9.31743164 4.94018555 9.31743164 4.94018555 9.3125 6.9375 C9.32861328 8.23880859 9.34472656 9.54011719 9.36132812 10.88085938 C9.36197266 12.12544922 9.36261719 13.37003906 9.36328125 14.65234375 C9.36626221 15.79695068 9.36924316 16.94155762 9.37231445 18.12084961 C9 21 9 21 7.72729492 22.89672852 C6 24 6 24 2 24 C1.68546875 23.19175781 1.3709375 22.38351563 1.046875 21.55078125 C0.61890625 20.48214844 0.1909375 19.41351563 -0.25 18.3125 C-0.66765625 17.25675781 -1.0853125 16.20101562 -1.515625 15.11328125 C-4.99714268 7.81125601 -10.01079601 4.19700035 -17.2265625 1.01953125 C-28.57874974 -2.8185892 -44.77141832 -3.25362412 -55.78125 1.74609375 C-63.15002553 5.91048978 -67.95222482 10.4938235 -72 18 C-72.51518188 18.94951538 -72.51518188 18.94951538 -73.04077148 19.91821289 C-76.04004901 25.93614399 -76.66987292 31.13796684 -76.5625 37.8125 C-76.54497681 39.2660791 -76.54497681 39.2660791 -76.52709961 40.74902344 C-76.17029756 52.34168714 -72.60739583 60.4121561 -64.54296875 68.80078125 C-52.84067774 78.92119575 -40.68288292 78.74746098 -26 78 C-13.75883554 76.53536013 -1.95128671 70.38793198 7.1328125 62.1875 C9 61 9 61 11.1796875 61.25 C13 62 13 62 14 63 C14 66.31888993 13.93417691 68.93942643 11.66113281 71.52001953 C7.28287412 75.17357503 2.80458545 78.05818812 -2.25 80.6875 C-2.93707031 81.06455078 -3.62414063 81.44160156 -4.33203125 81.83007812 C-13.76631092 86.80783342 -22.90017904 88.4913094 -33.5 88.3125 C-34.93279297 88.31733398 -34.93279297 88.31733398 -36.39453125 88.32226562 C-52.90264599 88.19940415 -63.37919642 83.75938216 -75 72 C-85.91870525 59.98241006 -86.72968341 45.99039489 -86.17480469 30.50048828 C-85.37652023 19.08145274 -78.95572976 8.4234921 -70.75 0.6875 C-49.08147932 -17.14426744 -22.24425536 -15.2236432 0 0 Z " fill="#09FF0A" transform="translate(1140,155)"/>
<path d="M0 0 C2.31448322 1.23862567 4.44212824 2.58518827 6.58984375 4.09375 C7.62044922 4.79757813 7.62044922 4.79757813 8.671875 5.515625 C12.20788785 8.19464085 13.42980738 9.48361134 14.58984375 13.90625 C14.58984375 14.958125 14.58984375 16.01 14.58984375 17.09375 C13.58984375 18.09375 13.58984375 18.09375 11.02734375 18.59375 C6.4829852 17.93275239 4.56876833 15.83516021 1.32421875 12.72265625 C-2.01811433 9.58357316 -5.08090837 9.62695061 -9.51171875 9.703125 C-23.66290895 11.61029349 -36.53490897 25.07261391 -46.51953125 34.51171875 C-48.41015625 36.09375 -48.41015625 36.09375 -50.41015625 36.09375 C-50.41015625 53.25375 -50.41015625 70.41375 -50.41015625 88.09375 C-36.01975669 88.05416361 -36.01975669 88.05416361 -21.62939453 88.00366211 C-19.8297532 88.00074241 -18.03011122 87.99819398 -16.23046875 87.99609375 C-14.82075806 87.9884198 -14.82075806 87.9884198 -13.38256836 87.98059082 C-12.04295044 87.98040955 -12.04295044 87.98040955 -10.67626953 87.98022461 C-9.89905548 87.978004 -9.12184143 87.97578339 -8.32107544 87.97349548 C-6.41015625 88.09375 -6.41015625 88.09375 -4.41015625 89.09375 C-4.22265625 91.96875 -4.22265625 91.96875 -4.41015625 95.09375 C-8.03775355 97.5121482 -10.68854888 97.37625277 -14.87915039 97.35253906 C-15.63715439 97.3560437 -16.39515839 97.35954834 -17.1761322 97.36315918 C-19.68261867 97.37196465 -22.18882314 97.36613218 -24.6953125 97.359375 C-26.43501337 97.36072185 -28.17471387 97.36266255 -29.91441345 97.36517334 C-33.56024764 97.36812288 -37.20598384 97.36383191 -40.85180664 97.35449219 C-45.53178981 97.34308927 -50.21154381 97.34966348 -54.89151859 97.36163712 C-58.48337033 97.3688531 -62.07516744 97.36656915 -65.6670208 97.36138153 C-67.39305079 97.36004475 -69.11908569 97.36169376 -70.84510994 97.36634064 C-73.25372651 97.37140253 -75.6619681 97.363701 -78.07055664 97.35253906 C-79.14673752 97.35861176 -79.14673752 97.35861176 -80.24465942 97.36480713 C-85.18162546 97.32228079 -85.18162546 97.32228079 -87.41015625 95.09375 C-87.53515625 91.96875 -87.53515625 91.96875 -87.41015625 89.09375 C-79.33825712 85.05780044 -69.42760276 87.45444786 -60.41015625 87.09375 C-60.41015625 62.34375 -60.41015625 37.59375 -60.41015625 12.09375 C-67.01015625 11.76375 -73.61015625 11.43375 -80.41015625 11.09375 C-82.41015625 9.09375 -82.41015625 9.09375 -82.66015625 6.59375 C-82.41015625 4.09375 -82.41015625 4.09375 -80.41015625 2.09375 C-77.42919922 1.86669922 -77.42919922 1.86669922 -73.65234375 1.8984375 C-72.65776657 1.90268234 -72.65776657 1.90268234 -71.64309692 1.90701294 C-69.52360042 1.91821565 -67.40452521 1.94331949 -65.28515625 1.96875 C-63.84896443 1.97877972 -62.412766 1.98790559 -60.9765625 1.99609375 C-57.45413387 2.01645461 -53.93261708 2.0556006 -50.41015625 2.09375 C-50.41015625 9.35375 -50.41015625 16.61375 -50.41015625 24.09375 C-48.80140625 22.77375 -47.19265625 21.45375 -45.53515625 20.09375 C-44.52324219 19.27132812 -43.51132812 18.44890625 -42.46875 17.6015625 C-40.60919373 16.07686885 -38.76376274 14.5344301 -36.9453125 12.9609375 C-27.43964676 4.89456558 -12.90266829 -4.85157057 0 0 Z " fill="#07FF08" transform="translate(739.41015625,143.90625)"/>
<path d="M0 0 C0.8559375 -0.020625 1.711875 -0.04125 2.59375 -0.0625 C14.08883794 -0.1321672 23.97686177 4.34791615 32.36328125 12.23828125 C38.47923099 18.98285109 41.08581802 23.93654412 42.25 33.25 C14.53 33.25 -13.19 33.25 -41.75 33.25 C-38.87652856 20.3193785 -33.78192623 12.58156226 -22.75 5.25 C-15.24124192 0.74997774 -8.64111548 0.05113086 0 0 Z " fill="#FCFFFC" transform="translate(965.75,152.75)"/>
<path d="M0 0 C1.32 0 2.64 0 4 0 C4 90.75 4 181.5 4 275 C2.68 275 1.36 275 0 275 C0 184.25 0 93.5 0 0 Z " fill="#F1F1F1" transform="translate(0,0)"/>
<path d="M0 0 C7.20600106 3.31341357 10.81650074 9.08881257 13.71484375 16.2734375 C15.12743266 22.17026379 14.89899889 28.05515401 14.90234375 34.0859375 C14.91458984 35.23642578 14.92683594 36.38691406 14.93945312 37.57226562 C14.95692799 47.7368098 13.54822764 55.75030887 7.71484375 64.2734375 C3.23447512 68.64179692 -0.90585079 70.36063658 -7.09765625 70.7109375 C-12.59923935 70.53926849 -16.42047683 69.27910307 -20.28515625 65.2734375 C-26.59130733 55.25366411 -28.64697317 46.24637182 -28.66015625 34.5859375 C-28.68464844 33.46509766 -28.70914062 32.34425781 -28.734375 31.18945312 C-28.7715622 20.51052758 -26.57307628 11.66796276 -18.99609375 3.8671875 C-13.40038135 -1.34525693 -7.34802275 -2.33629441 0 0 Z M-18.28515625 10.2734375 C-22.87100703 17.91652213 -22.5304114 25.12548762 -22.59765625 33.8359375 C-22.62666016 35.06119141 -22.65566406 36.28644531 -22.68554688 37.54882812 C-22.74638816 46.33337363 -22.05887457 55.6706685 -15.72265625 62.3984375 C-11.66215984 65.52189627 -8.29954133 65.69130292 -3.28515625 65.2734375 C2.93610724 62.9136479 4.96294681 59.83539196 7.76953125 53.90625 C11.88535927 42.44315874 11.95983648 24.29724632 6.8515625 13.23828125 C4.76711072 9.63525979 3.09857427 7.08061364 -0.53515625 4.9609375 C-8.58873104 2.9475438 -12.90400693 3.99305103 -18.28515625 10.2734375 Z " fill="#13FF13" transform="translate(338.28515625,31.7265625)"/>
<path d="M0 0 C7.20600106 3.31341357 10.81650074 9.08881257 13.71484375 16.2734375 C15.12743266 22.17026379 14.89899889 28.05515401 14.90234375 34.0859375 C14.91458984 35.23642578 14.92683594 36.38691406 14.93945312 37.57226562 C14.95692799 47.7368098 13.54822764 55.75030887 7.71484375 64.2734375 C3.23447512 68.64179692 -0.90585079 70.36063658 -7.09765625 70.7109375 C-12.59923935 70.53926849 -16.42047683 69.27910307 -20.28515625 65.2734375 C-26.59130733 55.25366411 -28.64697317 46.24637182 -28.66015625 34.5859375 C-28.68464844 33.46509766 -28.70914063 32.34425781 -28.734375 31.18945312 C-28.7715622 20.51052758 -26.57307628 11.66796276 -18.99609375 3.8671875 C-13.40038135 -1.34525693 -7.34802275 -2.33629441 0 0 Z M-18.28515625 10.2734375 C-22.87100703 17.91652213 -22.5304114 25.12548762 -22.59765625 33.8359375 C-22.62666016 35.06119141 -22.65566406 36.28644531 -22.68554688 37.54882812 C-22.74638816 46.33337363 -22.05887457 55.6706685 -15.72265625 62.3984375 C-11.66215984 65.52189627 -8.29954133 65.69130292 -3.28515625 65.2734375 C2.93610724 62.9136479 4.96294681 59.83539196 7.76953125 53.90625 C11.88535927 42.44315874 11.95983648 24.29724632 6.8515625 13.23828125 C4.76711072 9.63525979 3.09857427 7.08061364 -0.53515625 4.9609375 C-8.58873104 2.9475438 -12.90400693 3.99305103 -18.28515625 10.2734375 Z " fill="#13FF13" transform="translate(271.28515625,31.7265625)"/>
<path d="M0 0 C7.20600106 3.31341357 10.81650074 9.08881257 13.71484375 16.2734375 C15.12743266 22.17026379 14.89899889 28.05515401 14.90234375 34.0859375 C14.91458984 35.23642578 14.92683594 36.38691406 14.93945312 37.57226562 C14.95692799 47.7368098 13.54822764 55.75030887 7.71484375 64.2734375 C3.23447512 68.64179692 -0.90585079 70.36063658 -7.09765625 70.7109375 C-12.59923935 70.53926849 -16.42047683 69.27910307 -20.28515625 65.2734375 C-26.59130733 55.25366411 -28.64697317 46.24637182 -28.66015625 34.5859375 C-28.68464844 33.46509766 -28.70914063 32.34425781 -28.734375 31.18945312 C-28.7715622 20.51052758 -26.57307628 11.66796276 -18.99609375 3.8671875 C-13.40038135 -1.34525693 -7.34802275 -2.33629441 0 0 Z M-18.28515625 10.2734375 C-22.87100703 17.91652213 -22.5304114 25.12548762 -22.59765625 33.8359375 C-22.62666016 35.06119141 -22.65566406 36.28644531 -22.68554688 37.54882812 C-22.74638816 46.33337363 -22.05887457 55.6706685 -15.72265625 62.3984375 C-11.66215984 65.52189627 -8.29954133 65.69130292 -3.28515625 65.2734375 C2.93610724 62.9136479 4.96294681 59.83539196 7.76953125 53.90625 C11.88535927 42.44315874 11.95983648 24.29724632 6.8515625 13.23828125 C4.76711072 9.63525979 3.09857427 7.08061364 -0.53515625 4.9609375 C-8.58873104 2.9475438 -12.90400693 3.99305103 -18.28515625 10.2734375 Z " fill="#13FF13" transform="translate(137.28515625,31.7265625)"/>
<path d="M0 0 C5.78517769 3.32414444 8.82356121 8.62234319 11.06567383 14.796875 C12.32861599 20.16004046 12.16675374 25.68098591 12.13354492 31.16357422 C12.12504398 33.30143956 12.15384411 35.43661676 12.18554688 37.57421875 C12.24451479 48.82637694 10.36499467 57.53868701 2.3984375 65.875 C-1.84984629 69.75471123 -6.255801 69.87793971 -11.8125 69.75390625 C-16.80416831 69.12214823 -19.99949125 66.78802328 -23.5 63.1875 C-30.02068189 53.29405161 -30.53757526 44.97074374 -30.625 33.25 C-30.65400391 31.97318359 -30.68300781 30.69636719 -30.71289062 29.38085938 C-30.78209982 19.02609875 -29.16611611 10.54212247 -21.8671875 2.84375 C-15.69173721 -2.74208443 -7.50214906 -3.29016745 0 0 Z M-19.3125 7.4375 C-27.21527334 18.85498386 -26.99212451 34.26466736 -24.97998047 47.64941406 C-23.52747372 54.05525494 -20.91445748 59.82918596 -15.5 63.75 C-11.08421595 65.13781785 -7.43005717 64.85384483 -3.125 63.25 C1.05583006 60.55568729 3.86392702 57.06656988 5.6875 52.4375 C6.91349645 46.15677138 6.90888139 40.00337207 6.9375 33.625 C6.958125 32.48740234 6.97875 31.34980469 7 30.17773438 C7.03795937 21.95478564 6.53285022 13.81857611 0.75 7.4375 C0.26660156 6.880625 -0.21679688 6.32375 -0.71484375 5.75 C-6.4051273 1.07534163 -14.25642801 2.93100105 -19.3125 7.4375 Z " fill="#10FF10" transform="translate(1546.3125,32.5625)"/>
<path d="M0 0 C5.78517769 3.32414444 8.82356121 8.62234319 11.06567383 14.796875 C12.32861599 20.16004046 12.16675374 25.68098591 12.13354492 31.16357422 C12.12504398 33.30143956 12.15384411 35.43661676 12.18554688 37.57421875 C12.24451479 48.82637694 10.36499467 57.53868701 2.3984375 65.875 C-1.84984629 69.75471123 -6.255801 69.87793971 -11.8125 69.75390625 C-16.80416831 69.12214823 -19.99949125 66.78802328 -23.5 63.1875 C-30.02068189 53.29405161 -30.53757526 44.97074374 -30.625 33.25 C-30.65400391 31.97318359 -30.68300781 30.69636719 -30.71289062 29.38085938 C-30.78209982 19.02609875 -29.16611611 10.54212247 -21.8671875 2.84375 C-15.69173721 -2.74208443 -7.50214906 -3.29016745 0 0 Z M-19.3125 7.4375 C-27.21527334 18.85498386 -26.99212451 34.26466736 -24.97998047 47.64941406 C-23.52747372 54.05525494 -20.91445748 59.82918596 -15.5 63.75 C-11.08421595 65.13781785 -7.43005717 64.85384483 -3.125 63.25 C1.05583006 60.55568729 3.86392702 57.06656988 5.6875 52.4375 C6.91349645 46.15677138 6.90888139 40.00337207 6.9375 33.625 C6.958125 32.48740234 6.97875 31.34980469 7 30.17773438 C7.03795937 21.95478564 6.53285022 13.81857611 0.75 7.4375 C0.26660156 6.880625 -0.21679688 6.32375 -0.71484375 5.75 C-6.4051273 1.07534163 -14.25642801 2.93100105 -19.3125 7.4375 Z " fill="#10FF10" transform="translate(1479.3125,32.5625)"/>
<path d="M0 0 C5.78517769 3.32414444 8.82356121 8.62234319 11.06567383 14.796875 C12.32861599 20.16004046 12.16675374 25.68098591 12.13354492 31.16357422 C12.12504398 33.30143956 12.15384411 35.43661676 12.18554688 37.57421875 C12.24451479 48.82637694 10.36499467 57.53868701 2.3984375 65.875 C-1.84984629 69.75471123 -6.255801 69.87793971 -11.8125 69.75390625 C-16.80416831 69.12214823 -19.99949125 66.78802328 -23.5 63.1875 C-30.02068189 53.29405161 -30.53757526 44.97074374 -30.625 33.25 C-30.65400391 31.97318359 -30.68300781 30.69636719 -30.71289062 29.38085938 C-30.78209982 19.02609875 -29.16611611 10.54212247 -21.8671875 2.84375 C-15.69173721 -2.74208443 -7.50214906 -3.29016745 0 0 Z M-19.3125 7.4375 C-27.21527334 18.85498386 -26.99212451 34.26466736 -24.97998047 47.64941406 C-23.52747372 54.05525494 -20.91445748 59.82918596 -15.5 63.75 C-11.08421595 65.13781785 -7.43005717 64.85384483 -3.125 63.25 C1.05583006 60.55568729 3.86392702 57.06656988 5.6875 52.4375 C6.91349645 46.15677138 6.90888139 40.00337207 6.9375 33.625 C6.958125 32.48740234 6.97875 31.34980469 7 30.17773438 C7.03795937 21.95478564 6.53285022 13.81857611 0.75 7.4375 C0.26660156 6.880625 -0.21679688 6.32375 -0.71484375 5.75 C-6.4051273 1.07534163 -14.25642801 2.93100105 -19.3125 7.4375 Z " fill="#10FF10" transform="translate(1345.3125,32.5625)"/>
<path d="M0 0 C5.78517769 3.32414444 8.82356121 8.62234319 11.06567383 14.796875 C12.32861599 20.16004046 12.16675374 25.68098591 12.13354492 31.16357422 C12.12504398 33.30143956 12.15384411 35.43661676 12.18554688 37.57421875 C12.24451479 48.82637694 10.36499467 57.53868701 2.3984375 65.875 C-1.84984629 69.75471123 -6.255801 69.87793971 -11.8125 69.75390625 C-16.80416831 69.12214823 -19.99949125 66.78802328 -23.5 63.1875 C-30.02068189 53.29405161 -30.53757526 44.97074374 -30.625 33.25 C-30.65400391 31.97318359 -30.68300781 30.69636719 -30.71289062 29.38085938 C-30.78209982 19.02609875 -29.16611611 10.54212247 -21.8671875 2.84375 C-15.69173721 -2.74208443 -7.50214906 -3.29016745 0 0 Z M-19.3125 7.4375 C-27.21527334 18.85498386 -26.99212451 34.26466736 -24.97998047 47.64941406 C-23.52747372 54.05525494 -20.91445748 59.82918596 -15.5 63.75 C-11.08421595 65.13781785 -7.43005717 64.85384483 -3.125 63.25 C1.05583006 60.55568729 3.86392702 57.06656988 5.6875 52.4375 C6.91349645 46.15677138 6.90888139 40.00337207 6.9375 33.625 C6.958125 32.48740234 6.97875 31.34980469 7 30.17773438 C7.03795937 21.95478564 6.53285022 13.81857611 0.75 7.4375 C0.26660156 6.880625 -0.21679688 6.32375 -0.71484375 5.75 C-6.4051273 1.07534163 -14.25642801 2.93100105 -19.3125 7.4375 Z " fill="#10FF10" transform="translate(1211.3125,32.5625)"/>
<path d="M0 0 C6.34058768 4.46723223 10.60136006 10.47768675 12.75 17.9375 C13.24549652 22.54782687 13.3268302 27.10965451 13.27148438 31.73901367 C13.25006852 33.86818772 13.27134481 35.99397627 13.296875 38.12304688 C13.32078557 49.27757203 11.41408226 58.09134576 3.53125 66.375 C-0.74770984 70.12847354 -5.61598231 70.33939312 -11.078125 70.18359375 C-15.7685399 69.65212587 -18.50047106 67.66874775 -21.8125 64.4375 C-28.41779757 55.68481754 -30.08910387 46.86555499 -29.95678711 36.0949707 C-29.93753948 34.00428799 -29.97708535 31.92026663 -30.02148438 29.83007812 C-30.08321824 19.94221197 -28.21850175 11.29306012 -21.31323242 3.84985352 C-15.17189747 -1.76221843 -7.85316545 -2.56738101 0 0 Z M-20.25 9.9375 C-24.19002201 17.69028865 -24.82217592 25.05822512 -24.625 33.625 C-24.62371094 34.70072266 -24.62242188 35.77644531 -24.62109375 36.88476562 C-24.51629777 46.39208995 -23.29758479 54.3122844 -17.25 61.9375 C-14.28424743 64.43497585 -12.67621835 64.89100345 -8.8125 65.3125 C-4.75241388 64.88512251 -2.60758871 64.27321389 0.75 61.9375 C7.45232508 53.5503363 8.11370952 45.15417766 8.125 34.75 C8.16173828 32.99719727 8.16173828 32.99719727 8.19921875 31.20898438 C8.22796095 22.6198578 7.35975721 13.42495875 1.25 6.8125 C-1.21700858 4.96224356 -2.24025652 4.19547801 -5.25 3.9375 C-6.508125 3.793125 -7.76625 3.64875 -9.0625 3.5 C-14.29568678 3.61694272 -17.07348484 5.95191246 -20.25 9.9375 Z " fill="#0FFF0F" transform="translate(1813.25,32.0625)"/>
<path d="M0 0 C6.34058768 4.46723223 10.60136006 10.47768675 12.75 17.9375 C13.24549652 22.54782687 13.3268302 27.10965451 13.27148438 31.73901367 C13.25006852 33.86818772 13.27134481 35.99397627 13.296875 38.12304688 C13.32078557 49.27757203 11.41408226 58.09134576 3.53125 66.375 C-0.74770984 70.12847354 -5.61598231 70.33939312 -11.078125 70.18359375 C-15.7685399 69.65212587 -18.50047106 67.66874775 -21.8125 64.4375 C-28.41779757 55.68481754 -30.08910387 46.86555499 -29.95678711 36.0949707 C-29.93753948 34.00428799 -29.97708535 31.92026663 -30.02148438 29.83007812 C-30.08321824 19.94221197 -28.21850175 11.29306012 -21.31323242 3.84985352 C-15.17189747 -1.76221843 -7.85316545 -2.56738101 0 0 Z M-20.25 9.9375 C-24.19002201 17.69028865 -24.82217592 25.05822512 -24.625 33.625 C-24.62371094 34.70072266 -24.62242188 35.77644531 -24.62109375 36.88476562 C-24.51629777 46.39208995 -23.29758479 54.3122844 -17.25 61.9375 C-14.28424743 64.43497585 -12.67621835 64.89100345 -8.8125 65.3125 C-4.75241388 64.88512251 -2.60758871 64.27321389 0.75 61.9375 C7.45232508 53.5503363 8.11370952 45.15417766 8.125 34.75 C8.16173828 32.99719727 8.16173828 32.99719727 8.19921875 31.20898438 C8.22796095 22.6198578 7.35975721 13.42495875 1.25 6.8125 C-1.21700858 4.96224356 -2.24025652 4.19547801 -5.25 3.9375 C-6.508125 3.793125 -7.76625 3.64875 -9.0625 3.5 C-14.29568678 3.61694272 -17.07348484 5.95191246 -20.25 9.9375 Z " fill="#0FFF0F" transform="translate(1612.25,32.0625)"/>
<path d="M0 0 C6.32088238 3.613757 9.74417912 10.50660818 12.14575195 17.15771484 C13.39112683 22.11405528 13.23314025 27.16859714 13.1875 32.25 C13.18065186 33.40669189 13.17380371 34.56338379 13.16674805 35.75512695 C12.97519005 45.9335287 11.92104639 56.00110745 5.21484375 64.1953125 C0.98669664 68.14158313 -3.50927875 69.78990414 -9.25 70.125 C-14.65938888 69.81849558 -18.50883579 68.58193262 -22.25 64.5625 C-31.1057123 49.87162843 -32.85725986 33.48603277 -29.125 16.625 C-27.06740188 10.09645269 -23.78162293 3.9135042 -18 0 C-12.27137761 -2.74417452 -5.78907944 -2.40196986 0 0 Z M-19.25 7.5625 C-24.58787198 15.98768171 -25.43025177 23.68138212 -25.4375 33.4375 C-25.44974609 34.29730469 -25.46199219 35.15710938 -25.47460938 36.04296875 C-25.49562204 45.27453156 -23.54723101 53.83444415 -18.25 61.5625 C-13.74915903 64.59191219 -9.66569897 65.15934413 -4.39453125 64.32421875 C-0.41201074 62.90966228 1.63772111 60.10786843 3.75 56.5625 C7.34306926 48.98182839 7.95621767 42.17952379 8 33.9375 C8.020625 32.99003906 8.04125 32.04257813 8.0625 31.06640625 C8.11575902 21.3333211 6.25212718 12.99350249 -0.25 5.5625 C-6.6601257 1.57782727 -13.91130679 2.57971967 -19.25 7.5625 Z " fill="#0FFF0F" transform="translate(943.25,32.4375)"/>
<path d="M0 0 C6.32088238 3.613757 9.74417912 10.50660818 12.14575195 17.15771484 C13.39112683 22.11405528 13.23314025 27.16859714 13.1875 32.25 C13.18065186 33.40669189 13.17380371 34.56338379 13.16674805 35.75512695 C12.97519005 45.9335287 11.92104639 56.00110745 5.21484375 64.1953125 C0.98669664 68.14158313 -3.50927875 69.78990414 -9.25 70.125 C-14.65938888 69.81849558 -18.50883579 68.58193262 -22.25 64.5625 C-31.1057123 49.87162843 -32.85725986 33.48603277 -29.125 16.625 C-27.06740188 10.09645269 -23.78162293 3.9135042 -18 0 C-12.27137761 -2.74417452 -5.78907944 -2.40196986 0 0 Z M-19.25 7.5625 C-24.58787198 15.98768171 -25.43025177 23.68138212 -25.4375 33.4375 C-25.44974609 34.29730469 -25.46199219 35.15710938 -25.47460938 36.04296875 C-25.49562204 45.27453156 -23.54723101 53.83444415 -18.25 61.5625 C-13.74915903 64.59191219 -9.66569897 65.15934413 -4.39453125 64.32421875 C-0.41201074 62.90966228 1.63772111 60.10786843 3.75 56.5625 C7.34306926 48.98182839 7.95621767 42.17952379 8 33.9375 C8.020625 32.99003906 8.04125 32.04257813 8.0625 31.06640625 C8.11575902 21.3333211 6.25212718 12.99350249 -0.25 5.5625 C-6.6601257 1.57782727 -13.91130679 2.57971967 -19.25 7.5625 Z " fill="#0FFF0F" transform="translate(742.25,32.4375)"/>
<path d="M0 0 C6.32088238 3.613757 9.74417912 10.50660818 12.14575195 17.15771484 C13.39112683 22.11405528 13.23314025 27.16859714 13.1875 32.25 C13.18065186 33.40669189 13.17380371 34.56338379 13.16674805 35.75512695 C12.97519005 45.9335287 11.92104639 56.00110745 5.21484375 64.1953125 C0.98669664 68.14158313 -3.50927875 69.78990414 -9.25 70.125 C-14.65938888 69.81849558 -18.50883579 68.58193262 -22.25 64.5625 C-31.1057123 49.87162843 -32.85725986 33.48603277 -29.125 16.625 C-27.06740188 10.09645269 -23.78162293 3.9135042 -18 0 C-12.27137761 -2.74417452 -5.78907944 -2.40196986 0 0 Z M-19.25 7.5625 C-24.58787198 15.98768171 -25.43025177 23.68138212 -25.4375 33.4375 C-25.44974609 34.29730469 -25.46199219 35.15710938 -25.47460938 36.04296875 C-25.49562204 45.27453156 -23.54723101 53.83444415 -18.25 61.5625 C-13.74915903 64.59191219 -9.66569897 65.15934413 -4.39453125 64.32421875 C-0.41201074 62.90966228 1.63772111 60.10786843 3.75 56.5625 C7.34306926 48.98182839 7.95621767 42.17952379 8 33.9375 C8.020625 32.99003906 8.04125 32.04257813 8.0625 31.06640625 C8.11575902 21.3333211 6.25212718 12.99350249 -0.25 5.5625 C-6.6601257 1.57782727 -13.91130679 2.57971967 -19.25 7.5625 Z " fill="#0FFF0F" transform="translate(541.25,32.4375)"/>
<path d="M0 0 C6.32088238 3.613757 9.74417912 10.50660818 12.14575195 17.15771484 C13.39112683 22.11405528 13.23314025 27.16859714 13.1875 32.25 C13.18065186 33.40669189 13.17380371 34.56338379 13.16674805 35.75512695 C12.97519005 45.9335287 11.92104639 56.00110745 5.21484375 64.1953125 C0.98669664 68.14158313 -3.50927875 69.78990414 -9.25 70.125 C-14.65938888 69.81849558 -18.50883579 68.58193262 -22.25 64.5625 C-31.1057123 49.87162843 -32.85725986 33.48603277 -29.125 16.625 C-27.06740188 10.09645269 -23.78162293 3.9135042 -18 0 C-12.27137761 -2.74417452 -5.78907944 -2.40196986 0 0 Z M-19.25 7.5625 C-24.58787198 15.98768171 -25.43025177 23.68138212 -25.4375 33.4375 C-25.44974609 34.29730469 -25.46199219 35.15710938 -25.47460938 36.04296875 C-25.49562204 45.27453156 -23.54723101 53.83444415 -18.25 61.5625 C-13.74915903 64.59191219 -9.66569897 65.15934413 -4.39453125 64.32421875 C-0.41201074 62.90966228 1.63772111 60.10786843 3.75 56.5625 C7.34306926 48.98182839 7.95621767 42.17952379 8 33.9375 C8.020625 32.99003906 8.04125 32.04257813 8.0625 31.06640625 C8.11575902 21.3333211 6.25212718 12.99350249 -0.25 5.5625 C-6.6601257 1.57782727 -13.91130679 2.57971967 -19.25 7.5625 Z " fill="#0FFF0F" transform="translate(474.25,32.4375)"/>
<path d="M0 0 C0.99 0 1.98 0 3 0 C3 90.75 3 181.5 3 275 C2.01 275 1.02 275 0 275 C0 184.25 0 93.5 0 0 Z " fill="#F0F0F0" transform="translate(1864,0)"/>
<path d="M0 0 C0 21.45 0 42.9 0 65 C5.94 65 11.88 65 18 65 C18.33 66.32 18.66 67.64 19 69 C18 70 18 70 14.12280273 70.11352539 C12.39305833 70.11336621 10.66330919 70.10766849 8.93359375 70.09765625 C8.02497086 70.0962413 7.11634796 70.09482635 6.18019104 70.09336853 C3.26592779 70.08775193 0.35174019 70.07519665 -2.5625 70.0625 C-4.53320202 70.05748714 -6.50390524 70.05292386 -8.47460938 70.04882812 C-13.31643559 70.03777711 -18.15820495 70.02050138 -23 70 C-23.5625 68.0625 -23.5625 68.0625 -24 66 C-23.505 65.505 -23.505 65.505 -23 65 C-17.06 65 -11.12 65 -5 65 C-5 45.53 -5 26.06 -5 6 C-9.62 7.65 -14.24 9.3 -19 11 C-20.65 10.67 -22.3 10.34 -24 10 C-24 9.01 -24 8.02 -24 7 C-20.56496228 5.82599412 -17.12659286 4.66206791 -13.6875 3.5 C-12.71103516 3.16613281 -11.73457031 2.83226562 -10.72851562 2.48828125 C-9.79072266 2.17246094 -8.85292969 1.85664062 -7.88671875 1.53125 C-6.59060669 1.09135742 -6.59060669 1.09135742 -5.26831055 0.64257812 C-3 0 -3 0 0 0 Z " fill="#09FF09" transform="translate(870,31)"/>
<path d="M0 0 C0 21.45 0 42.9 0 65 C5.94 65 11.88 65 18 65 C18.33 66.32 18.66 67.64 19 69 C18 70 18 70 14.12280273 70.11352539 C12.39305833 70.11336621 10.66330919 70.10766849 8.93359375 70.09765625 C8.02497086 70.0962413 7.11634796 70.09482635 6.18019104 70.09336853 C3.26592779 70.08775193 0.35174019 70.07519665 -2.5625 70.0625 C-4.53320202 70.05748714 -6.50390524 70.05292386 -8.47460938 70.04882812 C-13.31643559 70.03777711 -18.15820495 70.02050138 -23 70 C-23.5625 68.0625 -23.5625 68.0625 -24 66 C-23.505 65.505 -23.505 65.505 -23 65 C-17.06 65 -11.12 65 -5 65 C-5 45.53 -5 26.06 -5 6 C-9.62 7.65 -14.24 9.3 -19 11 C-20.65 10.67 -22.3 10.34 -24 10 C-24 9.01 -24 8.02 -24 7 C-20.56496228 5.82599412 -17.12659286 4.66206791 -13.6875 3.5 C-12.71103516 3.16613281 -11.73457031 2.83226562 -10.72851562 2.48828125 C-9.79072266 2.17246094 -8.85292969 1.85664062 -7.88671875 1.53125 C-6.59060669 1.09135742 -6.59060669 1.09135742 -5.26831055 0.64257812 C-3 0 -3 0 0 0 Z " fill="#09FF09" transform="translate(803,31)"/>
<path d="M0 0 C0 21.45 0 42.9 0 65 C5.94 65 11.88 65 18 65 C18.33 66.32 18.66 67.64 19 69 C18 70 18 70 14.12280273 70.11352539 C12.39305833 70.11336621 10.66330919 70.10766849 8.93359375 70.09765625 C8.02497086 70.0962413 7.11634796 70.09482635 6.18019104 70.09336853 C3.26592779 70.08775193 0.35174019 70.07519665 -2.5625 70.0625 C-4.53320202 70.05748714 -6.50390524 70.05292386 -8.47460938 70.04882812 C-13.31643559 70.03777711 -18.15820495 70.02050138 -23 70 C-23.5625 68.0625 -23.5625 68.0625 -24 66 C-23.505 65.505 -23.505 65.505 -23 65 C-17.06 65 -11.12 65 -5 65 C-5 45.53 -5 26.06 -5 6 C-9.62 7.65 -14.24 9.3 -19 11 C-20.65 10.67 -22.3 10.34 -24 10 C-24 9.01 -24 8.02 -24 7 C-20.56496228 5.82599412 -17.12659286 4.66206791 -13.6875 3.5 C-12.71103516 3.16613281 -11.73457031 2.83226562 -10.72851562 2.48828125 C-9.79072266 2.17246094 -8.85292969 1.85664062 -7.88671875 1.53125 C-6.59060669 1.09135742 -6.59060669 1.09135742 -5.26831055 0.64257812 C-3 0 -3 0 0 0 Z " fill="#09FF09" transform="translate(602,31)"/>
<path d="M0 0 C0 21.45 0 42.9 0 65 C5.94 65 11.88 65 18 65 C18.33 66.32 18.66 67.64 19 69 C18 70 18 70 14.12280273 70.11352539 C12.39305833 70.11336621 10.66330919 70.10766849 8.93359375 70.09765625 C8.02497086 70.0962413 7.11634796 70.09482635 6.18019104 70.09336853 C3.26592779 70.08775193 0.35174019 70.07519665 -2.5625 70.0625 C-4.53320202 70.05748714 -6.50390524 70.05292386 -8.47460938 70.04882812 C-13.31643559 70.03777711 -18.15820495 70.02050138 -23 70 C-23.5625 68.0625 -23.5625 68.0625 -24 66 C-23.505 65.505 -23.505 65.505 -23 65 C-17.06 65 -11.12 65 -5 65 C-5.495 36.29 -5.495 36.29 -6 7 C-12.435 8.98 -12.435 8.98 -19 11 C-20.65 10.67 -22.3 10.34 -24 10 C-23.03192539 7.50469038 -22.49143733 6.25672751 -20.07641602 4.99511719 C-19.30998779 4.76469727 -18.54355957 4.53427734 -17.75390625 4.296875 C-16.49803711 3.91015625 -16.49803711 3.91015625 -15.21679688 3.515625 C-13.90291992 3.13664062 -13.90291992 3.13664062 -12.5625 2.75 C-11.69044922 2.481875 -10.81839844 2.21375 -9.91992188 1.9375 C-3.48959662 0 -3.48959662 0 0 0 Z " fill="#0AFF0A" transform="translate(401,31)"/>
<path d="M0 0 C0 21.45 0 42.9 0 65 C5.94 65 11.88 65 18 65 C18.33 66.32 18.66 67.64 19 69 C18 70 18 70 14.12280273 70.11352539 C12.39305833 70.11336621 10.66330919 70.10766849 8.93359375 70.09765625 C8.02497086 70.0962413 7.11634796 70.09482635 6.18019104 70.09336853 C3.26592779 70.08775193 0.35174019 70.07519665 -2.5625 70.0625 C-4.53320202 70.05748714 -6.50390524 70.05292386 -8.47460938 70.04882812 C-13.31643559 70.03777711 -18.15820495 70.02050138 -23 70 C-23.5625 68.0625 -23.5625 68.0625 -24 66 C-23.505 65.505 -23.505 65.505 -23 65 C-17.06 65 -11.12 65 -5 65 C-5.495 36.29 -5.495 36.29 -6 7 C-12.435 8.98 -12.435 8.98 -19 11 C-20.65 10.67 -22.3 10.34 -24 10 C-23.03192539 7.50469038 -22.49143733 6.25672751 -20.07641602 4.99511719 C-19.30998779 4.76469727 -18.54355957 4.53427734 -17.75390625 4.296875 C-16.49803711 3.91015625 -16.49803711 3.91015625 -15.21679688 3.515625 C-13.90291992 3.13664062 -13.90291992 3.13664062 -12.5625 2.75 C-11.69044922 2.481875 -10.81839844 2.21375 -9.91992188 1.9375 C-3.48959662 0 -3.48959662 0 0 0 Z " fill="#0AFF0A" transform="translate(200,31)"/>
<path d="M0 0 C0 21.45 0 42.9 0 65 C5.61 65 11.22 65 17 65 C17.33 66.32 17.66 67.64 18 69 C17 70 17 70 13.21459961 70.11352539 C11.52717271 70.11336622 9.83974095 70.10766917 8.15234375 70.09765625 C6.82270348 70.09553383 6.82270348 70.09553383 5.46620178 70.09336853 C2.62326746 70.08775215 -0.21958931 70.07519691 -3.0625 70.0625 C-4.98502491 70.05748711 -6.90755104 70.05292384 -8.83007812 70.04882812 C-13.55341549 70.03777741 -18.27669458 70.02050183 -23 70 C-23.5625 68.0625 -23.5625 68.0625 -24 66 C-23.505 65.505 -23.505 65.505 -23 65 C-17.06 65 -11.12 65 -5 65 C-5 45.53 -5 26.06 -5 6 C-9.95 7.65 -14.9 9.3 -20 11 C-21.32 11 -22.64 11 -24 11 C-24 9.68 -24 8.36 -24 7 C-20.56496228 5.82599412 -17.12659286 4.66206791 -13.6875 3.5 C-12.71103516 3.16613281 -11.73457031 2.83226562 -10.72851562 2.48828125 C-9.79072266 2.17246094 -8.85292969 1.85664062 -7.88671875 1.53125 C-6.59060669 1.09135742 -6.59060669 1.09135742 -5.26831055 0.64257812 C-3 0 -3 0 0 0 Z " fill="#0CFF0C" transform="translate(1741,31)"/>
<path d="M0 0 C0 21.45 0 42.9 0 65 C5.61 65 11.22 65 17 65 C17.33 66.32 17.66 67.64 18 69 C17 70 17 70 13.21459961 70.11352539 C11.52717271 70.11336622 9.83974095 70.10766917 8.15234375 70.09765625 C6.82270348 70.09553383 6.82270348 70.09553383 5.46620178 70.09336853 C2.62326746 70.08775215 -0.21958931 70.07519691 -3.0625 70.0625 C-4.98502491 70.05748711 -6.90755104 70.05292384 -8.83007812 70.04882812 C-13.55341549 70.03777741 -18.27669458 70.02050183 -23 70 C-23.5625 68.0625 -23.5625 68.0625 -24 66 C-23.505 65.505 -23.505 65.505 -23 65 C-17.06 65 -11.12 65 -5 65 C-5 45.53 -5 26.06 -5 6 C-9.95 7.65 -14.9 9.3 -20 11 C-21.32 11 -22.64 11 -24 11 C-24 9.68 -24 8.36 -24 7 C-20.56496228 5.82599412 -17.12659286 4.66206791 -13.6875 3.5 C-12.71103516 3.16613281 -11.73457031 2.83226562 -10.72851562 2.48828125 C-9.79072266 2.17246094 -8.85292969 1.85664062 -7.88671875 1.53125 C-6.59060669 1.09135742 -6.59060669 1.09135742 -5.26831055 0.64257812 C-3 0 -3 0 0 0 Z " fill="#0CFF0C" transform="translate(1674,31)"/>
<path d="M0 0 C0 21.45 0 42.9 0 65 C5.94 65 11.88 65 18 65 C18 66.65 18 68.3 18 70 C4.47 70 -9.06 70 -23 70 C-23.33 68.68 -23.66 67.36 -24 66 C-23.505 65.505 -23.505 65.505 -23 65 C-17.06 65 -11.12 65 -5 65 C-5 45.53 -5 26.06 -5 6 C-9.95 7.65 -14.9 9.3 -20 11 C-21.32 10.67 -22.64 10.34 -24 10 C-24 9.01 -24 8.02 -24 7 C-20.56496228 5.82599412 -17.12659286 4.66206791 -13.6875 3.5 C-12.71103516 3.16613281 -11.73457031 2.83226562 -10.72851562 2.48828125 C-9.79072266 2.17246094 -8.85292969 1.85664062 -7.88671875 1.53125 C-6.59060669 1.09135742 -6.59060669 1.09135742 -5.26831055 0.64257812 C-3 0 -3 0 0 0 Z " fill="#09FF09" transform="translate(1406,31)"/>
<path d="M0 0 C0 21.45 0 42.9 0 65 C5.94 65 11.88 65 18 65 C18 66.65 18 68.3 18 70 C4.47 70 -9.06 70 -23 70 C-23.33 68.68 -23.66 67.36 -24 66 C-23.505 65.505 -23.505 65.505 -23 65 C-17.06 65 -11.12 65 -5 65 C-5 45.53 -5 26.06 -5 6 C-9.95 7.65 -14.9 9.3 -20 11 C-21.32 10.67 -22.64 10.34 -24 10 C-24 9.01 -24 8.02 -24 7 C-20.56496228 5.82599412 -17.12659286 4.66206791 -13.6875 3.5 C-12.71103516 3.16613281 -11.73457031 2.83226562 -10.72851562 2.48828125 C-9.79072266 2.17246094 -8.85292969 1.85664062 -7.88671875 1.53125 C-6.59060669 1.09135742 -6.59060669 1.09135742 -5.26831055 0.64257812 C-3 0 -3 0 0 0 Z " fill="#09FF09" transform="translate(1138,31)"/>
<path d="M0 0 C0 21.45 0 42.9 0 65 C5.94 65 11.88 65 18 65 C18 66.65 18 68.3 18 70 C4.47 70 -9.06 70 -23 70 C-23.33 68.68 -23.66 67.36 -24 66 C-23.505 65.505 -23.505 65.505 -23 65 C-17.06 65 -11.12 65 -5 65 C-5 45.53 -5 26.06 -5 6 C-9.95 7.65 -14.9 9.3 -20 11 C-21.32 10.67 -22.64 10.34 -24 10 C-24 9.01 -24 8.02 -24 7 C-20.56496228 5.82599412 -17.12659286 4.66206791 -13.6875 3.5 C-12.71103516 3.16613281 -11.73457031 2.83226562 -10.72851562 2.48828125 C-9.79072266 2.17246094 -8.85292969 1.85664062 -7.88671875 1.53125 C-6.59060669 1.09135742 -6.59060669 1.09135742 -5.26831055 0.64257812 C-3 0 -3 0 0 0 Z " fill="#09FF09" transform="translate(1071,31)"/>
<path d="M0 0 C0 21.45 0 42.9 0 65 C5.94 65 11.88 65 18 65 C18 66.65 18 68.3 18 70 C4.47 70 -9.06 70 -23 70 C-23.33 68.68 -23.66 67.36 -24 66 C-23.505 65.505 -23.505 65.505 -23 65 C-17.06 65 -11.12 65 -5 65 C-5 45.53 -5 26.06 -5 6 C-9.95 7.65 -14.9 9.3 -20 11 C-21.32 10.67 -22.64 10.34 -24 10 C-24 9.01 -24 8.02 -24 7 C-20.56496228 5.82599412 -17.12659286 4.66206791 -13.6875 3.5 C-12.71103516 3.16613281 -11.73457031 2.83226562 -10.72851562 2.48828125 C-9.79072266 2.17246094 -8.85292969 1.85664062 -7.88671875 1.53125 C-6.59060669 1.09135742 -6.59060669 1.09135742 -5.26831055 0.64257812 C-3 0 -3 0 0 0 Z " fill="#09FF09" transform="translate(1004,31)"/>
<path d="M0 0 C0.66 0.33 1.32 0.66 2 1 C-3.61 6.61 -9.22 12.22 -15 18 C-15 13.8010601 -12.79018973 11.87675886 -10 9 C-7.95850712 7.12635453 -5.88186619 5.30888831 -3.76953125 3.515625 C-1.91655093 1.96792368 -1.91655093 1.96792368 0 0 Z " fill="#D3FFF4" transform="translate(1222,157)"/>
<path d="M0 0 C0.66 0.33 1.32 0.66 2 1 C-1.63 4.63 -5.26 8.26 -9 12 C-9.66 11.67 -10.32 11.34 -11 11 C-7.6189962 6.86378916 -4.33409466 3.18683431 0 0 Z " fill="#34FF0C" transform="translate(1074,152)"/>
<path d="M0 0 C0.66 0.33 1.32 0.66 2 1 C-1.63 4.63 -5.26 8.26 -9 12 C-9.66 11.67 -10.32 11.34 -11 11 C-7.6189962 6.86378916 -4.33409466 3.18683431 0 0 Z " fill="#C0FFED" transform="translate(1080,158)"/>
</svg>
