<?xml version="1.0" encoding="UTF-8"?>
<svg version="1.1" xmlns="http://www.w3.org/2000/svg" width="415" height="86">
<path d="M0 0 C0.9590625 -0.00773437 1.918125 -0.01546875 2.90625 -0.0234375 C5.5 0.375 5.5 0.375 7.125 1.44140625 C9.17390054 4.32267264 10.56857405 7.47147968 12 10.6875 C12.59297429 11.99644544 13.18671561 13.30504369 13.78125 14.61328125 C14.06613281 15.24314941 14.35101563 15.87301758 14.64453125 16.52197266 C15.8675592 19.17116847 17.17749947 21.77435109 18.5 24.375 C18.95890625 23.30121094 19.4178125 22.22742188 19.890625 21.12109375 C20.51020142 19.68480296 21.13000526 18.24861026 21.75 16.8125 C22.05035156 16.10802734 22.35070312 15.40355469 22.66015625 14.67773438 C28.12477022 2.06261489 28.12477022 2.06261489 31.5 0.375 C33.14142541 0.22859499 34.7898141 0.15403411 36.4375 0.125 C37.75041016 0.08632813 37.75041016 0.08632813 39.08984375 0.046875 C41.5 0.375 41.5 0.375 43.24609375 1.375 C45.23265927 4.54360295 45.31368386 7.98085903 45.625 11.625 C45.74174072 12.8322876 45.74174072 12.8322876 45.86083984 14.06396484 C46.09006065 16.49985635 46.29807118 18.9367095 46.5 21.375 C46.6134375 22.68210937 46.726875 23.98921875 46.84375 25.3359375 C47.53635669 34.35906358 47.60693307 43.33321526 47.5 52.375 C45.18756208 52.40185412 42.8750373 52.42132841 40.5625 52.4375 C39.27472656 52.44910156 37.98695313 52.46070313 36.66015625 52.47265625 C33.5 52.375 33.5 52.375 32.5 51.375 C32.27376479 49.89062191 32.10587035 48.39722575 31.96484375 46.90234375 C31.83432617 45.55366211 31.83432617 45.55366211 31.70117188 44.17773438 C31.5706543 42.75944336 31.5706543 42.75944336 31.4375 41.3125 C31.34662109 40.36310547 31.25574219 39.41371094 31.16210938 38.43554688 C30.93743502 36.08237865 30.71691818 33.72889381 30.5 31.375 C29.86771484 32.98181641 29.86771484 32.98181641 29.22265625 34.62109375 C28.66940681 36.01828302 28.11601398 37.41541551 27.5625 38.8125 C27.28470703 39.51955078 27.00691406 40.22660156 26.72070312 40.95507812 C24.61328125 46.26171875 24.61328125 46.26171875 23.5 47.375 C21.3203125 47.578125 21.3203125 47.578125 18.625 47.625 C17.74070313 47.65078125 16.85640625 47.6765625 15.9453125 47.703125 C13.5 47.375 13.5 47.375 11.77734375 46.10546875 C10.40416747 44.24517183 9.67242627 42.6254805 8.9375 40.4375 C7.97601263 37.61822348 6.85128126 35.02946313 5.5 32.375 C5.44465088 32.94532959 5.38930176 33.51565918 5.33227539 34.10327148 C5.08026257 36.67348753 4.82147272 39.24297631 4.5625 41.8125 C4.47548828 42.71033203 4.38847656 43.60816406 4.29882812 44.53320312 C4.21181641 45.38720703 4.12480469 46.24121094 4.03515625 47.12109375 C3.956604 47.91185303 3.87805176 48.7026123 3.79711914 49.51733398 C3.5 51.375 3.5 51.375 2.5 52.375 C0.35605481 52.4741757 -1.79126732 52.5047015 -3.9375 52.5 C-5.11183594 52.50257812 -6.28617188 52.50515625 -7.49609375 52.5078125 C-10.5 52.375 -10.5 52.375 -12.5 51.375 C-12.35895309 48.45802989 -12.21235186 45.5415198 -12.0625 42.625 C-12.02318359 41.8 -11.98386719 40.975 -11.94335938 40.125 C-11.90146484 39.32578125 -11.85957031 38.5265625 -11.81640625 37.703125 C-11.77974854 36.9699707 -11.74309082 36.23681641 -11.70532227 35.48144531 C-11.5 33.375 -11.5 33.375 -11.00708008 31.4777832 C-10.35668495 28.78069451 -10.22726431 26.17196904 -10.0703125 23.40234375 C-9.99683594 22.25572266 -9.92335937 21.10910156 -9.84765625 19.92773438 C-9.69900778 17.51415264 -9.55840406 15.10006222 -9.42578125 12.68554688 C-9.34972656 11.54021484 -9.27367187 10.39488281 -9.1953125 9.21484375 C-9.1027417 7.64271118 -9.1027417 7.64271118 -9.00830078 6.03881836 C-7.97351426 0.61588094 -5.12709743 -0.04134756 0 0 Z " fill="#FDFCFA" transform="translate(231.5,16.625)"/>
<path d="M0 0 C0.97066406 -0.00515625 1.94132812 -0.0103125 2.94140625 -0.015625 C5.4375 0.25 5.4375 0.25 7.4375 2.25 C7.66455078 4.12939453 7.66455078 4.12939453 7.6328125 6.3828125 C7.62636719 7.18847656 7.61992188 7.99414062 7.61328125 8.82421875 C7.59652344 9.66597656 7.57976562 10.50773437 7.5625 11.375 C7.55347656 12.22449219 7.54445313 13.07398438 7.53515625 13.94921875 C7.51155647 16.04959884 7.47568483 18.14983444 7.4375 20.25 C12.0575 20.25 16.6775 20.25 21.4375 20.25 C21.4375 13.98 21.4375 7.71 21.4375 1.25 C24.01758592 -0.04004296 25.99491574 0.04589776 28.875 0 C30.32712891 -0.03867187 30.32712891 -0.03867187 31.80859375 -0.078125 C34.4375 0.25 34.4375 0.25 36.07952881 1.474823 C37.84187161 3.7786056 37.80641113 5.09828838 37.79394531 7.98095703 C37.79694641 8.93849884 37.79994751 9.89604065 37.80303955 10.88259888 C37.79069275 11.91391937 37.77834595 12.94523987 37.765625 14.0078125 C37.76375183 15.06660614 37.76187866 16.12539978 37.75994873 17.21627808 C37.75322522 19.4539505 37.73930485 21.69161111 37.71875 23.92919922 C37.687561 27.36827417 37.67777668 30.80689132 37.671875 34.24609375 C37.66270673 36.4166723 37.65233152 38.58724616 37.640625 40.7578125 C37.63425018 42.31086594 37.63425018 42.31086594 37.62774658 43.89529419 C37.61813904 44.84653168 37.60853149 45.79776917 37.59863281 46.77783203 C37.59180481 47.61927765 37.58497681 48.46072327 37.57794189 49.32766724 C37.4375 51.25 37.4375 51.25 36.4375 52.25 C33.9047235 52.32320163 31.40646082 52.34227569 28.875 52.3125 C26.420625 52.291875 23.96625 52.27125 21.4375 52.25 C21.4375 45.65 21.4375 39.05 21.4375 32.25 C16.8175 32.25 12.1975 32.25 7.4375 32.25 C7.44910156 33.60996094 7.46070312 34.96992187 7.47265625 36.37109375 C7.48203262 38.1432278 7.49113298 39.91536333 7.5 41.6875 C7.50837891 42.58533203 7.51675781 43.48316406 7.52539062 44.40820312 C7.53022461 45.68920898 7.53022461 45.68920898 7.53515625 46.99609375 C7.54039307 47.78685303 7.54562988 48.5776123 7.55102539 49.39233398 C7.4375 51.25 7.4375 51.25 6.4375 52.25 C3.90700598 52.32313567 1.40445163 52.34247527 -1.125 52.3125 C-2.19137695 52.30573242 -2.19137695 52.30573242 -3.27929688 52.29882812 C-5.04040013 52.28700864 -6.80146036 52.26907263 -8.5625 52.25 C-8.63837748 45.16592242 -8.69102671 38.08194906 -8.72729492 30.99755859 C-8.74240945 28.58606043 -8.76290153 26.17458986 -8.78881836 23.76318359 C-8.82508425 20.30299072 -8.84219956 16.84316029 -8.85546875 13.3828125 C-8.87095261 12.29944611 -8.88643646 11.21607971 -8.90238953 10.09988403 C-8.90261612 9.0989975 -8.90284271 8.09811096 -8.90307617 7.06689453 C-8.90973801 6.18309113 -8.91639984 5.29928772 -8.92326355 4.38870239 C-8.80421158 3.6829306 -8.68515961 2.97715881 -8.5625 2.25 C-5.19898987 0.00765991 -3.93939944 -0.02098215 0 0 Z " fill="#FDFDFB" transform="translate(114.5625,16.75)"/>
<path d="M0 0 C1.24910156 0.00193359 1.24910156 0.00193359 2.5234375 0.00390625 C12.14174828 0.14174828 12.14174828 0.14174828 15.375 3.375 C15.32421875 5.3359375 15.32421875 5.3359375 15.0625 7.75 C14.98386719 8.54148437 14.90523438 9.33296875 14.82421875 10.1484375 C14.375 12.375 14.375 12.375 12.375 15.375 C11.818125 15.230625 11.26125 15.08625 10.6875 14.9375 C5.43363683 13.65953328 0.77791471 13.17853037 -4.625 13.375 C-3.95631686 16.48832248 -3.95631686 16.48832248 -1.5625 17.5625 C-0.923125 17.830625 -0.28375 18.09875 0.375 18.375 C0.375 19.035 0.375 19.695 0.375 20.375 C1.426875 20.478125 2.47875 20.58125 3.5625 20.6875 C7.3299495 21.36687614 9.28867045 22.20622788 12.375 24.375 C13.06980469 24.69984375 13.76460938 25.0246875 14.48046875 25.359375 C17.66742933 28.75003821 17.03180377 32.77839002 17 37.25 C17.03222656 38.14847656 17.06445312 39.04695313 17.09765625 39.97265625 C17.10423751 44.42817261 16.80419301 46.75574693 14.22265625 50.48046875 C9.04445926 53.96230684 2.13807708 52.96631623 -3.8125 52.8125 C-5.09576172 52.80669922 -6.37902344 52.80089844 -7.70117188 52.79492188 C-17.18194268 52.67037155 -17.18194268 52.67037155 -20.625 50.375 C-21.01759107 46.13501646 -20.94990278 43.00766059 -18.625 39.375 C-12.11045861 39.24972036 -12.11045861 39.24972036 -9.6875 39.875 C-5.83940103 40.80787248 -1.19517257 41.16008628 2.375 39.375 C2.045 38.385 1.715 37.395 1.375 36.375 C-1.97776551 34.77473208 -5.34880419 33.40673947 -8.81054688 32.06835938 C-14.32013903 29.82556075 -14.32013903 29.82556075 -16.12890625 27.15234375 C-16.29261719 26.56582031 -16.45632813 25.97929688 -16.625 25.375 C-17.285 25.375 -17.945 25.375 -18.625 25.375 C-21.26471105 20.78190277 -21.25551517 16.55480184 -20.625 11.375 C-19.08241047 6.48859365 -16.1834507 3.62485894 -11.70043945 1.18212891 C-7.86851332 -0.30808963 -4.05770876 -0.12046323 0 0 Z " fill="#FDFCFA" transform="translate(325.625,16.625)"/>
<path d="M0 0 C0.88107422 -0.01611328 1.76214844 -0.03222656 2.66992188 -0.04882812 C7.91269956 -0.0527553 11.48911559 0.45696015 16.0625 3.3125 C16.56673019 8.60691695 15.25173033 11.12663519 12.0625 15.3125 C11.44503906 15.15652344 10.82757813 15.00054687 10.19140625 14.83984375 C4.37330081 13.50265361 -1.10149121 12.59747839 -6.9375 14.3125 C-10.1193337 17.19603679 -10.75020714 20.4794863 -11.17578125 24.64453125 C-11.3594989 30.78456841 -10.63496913 34.34732717 -6.9375 39.3125 C-0.27829175 41.53223608 7.20548542 40.09937053 14.0625 39.3125 C17.63392857 46.59821429 17.63392857 46.59821429 16.0625 51.3125 C10.7084514 53.09718287 5.04182568 52.75267208 -0.5625 52.875 C-1.80902344 52.93751953 -3.05554688 53.00003906 -4.33984375 53.06445312 C-10.87757927 53.17836298 -15.1058219 52.93466947 -20.17578125 48.5625 C-26.48746911 42.17030783 -28.144093 35.6478913 -28.5 26.8125 C-28.2498908 18.80900547 -26.46552444 13.12504254 -21 7.21875 C-14.29994658 1.02627639 -8.92515513 -0.03250239 0 0 Z " fill="#FCFBF8" transform="translate(183.9375,16.6875)"/>
<path d="M0 0 C0.9796875 -0.00257812 1.959375 -0.00515625 2.96875 -0.0078125 C5.5 0.125 5.5 0.125 7.5 1.125 C7.57444911 6.69341139 7.62874318 12.26152964 7.66479492 17.83032227 C7.67983246 19.72262625 7.70026785 21.61489566 7.72631836 23.50708008 C7.76292399 26.23527586 7.7797769 28.96300871 7.79296875 31.69140625 C7.80845261 32.53022842 7.82393646 33.3690506 7.83988953 34.23329163 C7.84171772 40.69025524 6.68187015 45.34480257 2.60546875 50.5390625 C-2.46041618 53.12616851 -7.59295879 52.62004097 -13.1875 52.5 C-14.34056641 52.49871094 -15.49363281 52.49742188 -16.68164062 52.49609375 C-25.21903712 52.40596288 -25.21903712 52.40596288 -27.5 50.125 C-27.04385965 42.94078947 -27.04385965 42.94078947 -24.5 39.125 C-21.69564589 39.06867576 -19.14853322 39.16685298 -16.375 39.4375 C-15.62089844 39.49873047 -14.86679688 39.55996094 -14.08984375 39.62304688 C-12.22536562 39.7764533 -10.36247502 39.94893459 -8.5 40.125 C-8.50785522 38.93910278 -8.50785522 38.93910278 -8.51586914 37.72924805 C-8.53686642 34.09034036 -8.54973177 30.4514455 -8.5625 26.8125 C-8.57087891 25.56919922 -8.57925781 24.32589844 -8.58789062 23.04492188 C-8.63109682 6.58336347 -8.63109682 6.58336347 -7.5 1.125 C-4.89080172 -0.17959914 -2.91057385 -0.0076594 0 0 Z " fill="#FCFDFB" transform="translate(92.5,16.875)"/>
<path d="M0 0 C0.9796875 0.01417969 1.959375 0.02835938 2.96875 0.04296875 C3.9484375 0.04941406 4.928125 0.05585938 5.9375 0.0625 C8.46875 0.23046875 8.46875 0.23046875 10.46875 1.23046875 C10.46875 18.06046875 10.46875 34.89046875 10.46875 52.23046875 C5.84875 52.23046875 1.22875 52.23046875 -3.53125 52.23046875 C-5.14224645 50.6194723 -4.66666431 48.87855611 -4.67651367 46.65063477 C-4.68289352 45.67614883 -4.68927338 44.7016629 -4.69584656 43.69764709 C-4.69695938 42.6372673 -4.6980722 41.57688751 -4.69921875 40.484375 C-4.70254715 39.40292709 -4.70587555 38.32147919 -4.70930481 37.20726013 C-4.71437877 34.91478909 -4.71671299 32.62231063 -4.71655273 30.32983398 C-4.71873845 26.81156308 -4.73688728 23.29360594 -4.75585938 19.77539062 C-4.75879328 17.5533865 -4.76077809 15.33138087 -4.76171875 13.109375 C-4.76890427 12.05101944 -4.77608978 10.99266388 -4.78349304 9.90223694 C-4.78041641 8.92459885 -4.77733978 7.94696075 -4.77416992 6.93969727 C-4.77559494 6.07667496 -4.77701996 5.21365265 -4.77848816 4.32447815 C-4.38935931 1.02871071 -3.21993606 0.29317319 0 0 Z " fill="#FDFDFC" transform="translate(289.53125,16.76953125)"/>
<path d="M0 0 C0.66 0.33 1.32 0.66 2 1 C2 16.84 2 32.68 2 49 C1.67 49 1.34 49 1 49 C0.67 40.75 0.34 32.5 0 24 C-0.66 24 -1.32 24 -2 24 C-2 16.41 -2 8.82 -2 1 C-1.34 0.67 -0.68 0.34 0 0 Z " fill="#FDB976" transform="translate(150,19)"/>
<path d="M0 0 C0.66 0 1.32 0 2 0 C2 2.64 2 5.28 2 8 C2.66 8.33 3.32 8.66 4 9 C4.625 11.0625 4.625 11.0625 5 13 C4.34 13 3.68 13 3 13 C2.67 14.98 2.34 16.96 2 19 C1.01 19 0.02 19 -1 19 C-1.33 19.66 -1.66 20.32 -2 21 C-2.0543965 18.62468606 -2.09385864 16.25064117 -2.125 13.875 C-2.14175781 13.20984375 -2.15851563 12.5446875 -2.17578125 11.859375 C-2.21847278 7.50483944 -1.59996217 4.04399886 0 0 Z " fill="#F9F4EC" transform="translate(234,36)"/>
<path d="M0 0 C0.33 0 0.66 0 1 0 C1.75206793 7.4859685 2.36310062 14.5649057 1 22 C0.34 22.33 -0.32 22.66 -1 23 C-1.96308613 18.93962888 -2.16520857 15.10599699 -2.1875 10.9375 C-2.20167969 9.72964844 -2.21585937 8.52179687 -2.23046875 7.27734375 C-2.01494866 4.21257502 -1.61519102 2.56004585 0 0 Z " fill="#F5F7F7" transform="translate(86,29)"/>
<path d="M0 0 C0.33 0 0.66 0 1 0 C1 8.58 1 17.16 1 26 C0.01 26 -0.98 26 -2 26 C-2 20.72 -2 15.44 -2 10 C-1.34 10 -0.68 10 0 10 C0 6.7 0 3.4 0 0 Z " fill="#F6F3EF" transform="translate(150,33)"/>
<path d="M0 0 C2 2 2 2 2.1953125 5.9140625 C2.18200376 7.48449351 2.15813602 9.05486221 2.125 10.625 C2.11597656 11.42679688 2.10695313 12.22859375 2.09765625 13.0546875 C2.07406223 15.03658523 2.03819065 17.01832981 2 19 C-0.13586678 15.79619983 -0.23132175 14.98060033 -0.125 11.3125 C-0.10695313 10.50425781 -0.08890625 9.69601563 -0.0703125 8.86328125 C-0.04710937 8.24839844 -0.02390625 7.63351563 0 7 C-0.33 7 -0.66 7 -1 7 C-1.04254356 5.00045254 -1.04080783 2.99958364 -1 1 C-0.67 0.67 -0.34 0.34 0 0 Z " fill="#F8F6F0" transform="translate(264,36)"/>
<path d="M0 0 C0.66 0.33 1.32 0.66 2 1 C2 3.97 2 6.94 2 10 C0.68 9.34 -0.64 8.68 -2 8 C-2 5.69 -2 3.38 -2 1 C-1.34 0.67 -0.68 0.34 0 0 Z " fill="#FED0A8" transform="translate(150,19)"/>
<path d="M0 0 C2.69082872 0.17635452 5.32851446 0.61835921 8 1 C8 1.66 8 2.32 8 3 C3.545 3.495 3.545 3.495 -1 4 C-1 1 -1 1 0 0 Z " fill="#EAEFE7" transform="translate(322,26)"/>
<path d="M0 0 C0.33 0 0.66 0 1 0 C1 1.65 1 3.3 1 5 C0.67 5 0.34 5 0 5 C0 3.35 0 1.7 0 0 Z " fill="#FFFFFF" transform="translate(281,32)"/>
</svg>
