<?xml version="1.0" encoding="UTF-8"?>
<svg version="1.1" xmlns="http://www.w3.org/2000/svg" width="1867" height="275">
<path d="M0 0 C11.55 0 23.1 0 35 0 C35 0.33 35 0.66 35 1 C38.63 1.33 42.26 1.66 46 2 C46 2.33 46 2.66 46 3 C43.36 3 40.72 3 38 3 C38 3.66 38 4.32 38 5 C39.69769531 5.07347656 39.69769531 5.07347656 41.4296875 5.1484375 C42.91148339 5.22346514 44.393253 5.29901297 45.875 5.375 C46.62136719 5.4059375 47.36773438 5.436875 48.13671875 5.46875 C53.7734375 5.7734375 53.7734375 5.7734375 56 8 C58.88057595 8.51112081 61.65461151 8.86352335 64.5625 9.125 C65.49344482 9.21064209 66.42438965 9.29628418 67.38354492 9.38452148 C79.57824433 10.33602933 91.81717694 10.13298782 104.03930664 10.01416016 C105.74104125 9.99949832 107.44278313 9.98565598 109.14453125 9.97265625 C109.98166153 9.96625122 110.81879181 9.95984619 111.68128967 9.95324707 C116.2620095 9.9396079 120.7959636 10.06561716 125.36457729 10.39810658 C131.95497759 10.87677008 138.27045897 10.97412977 144.85668945 10.53588867 C154.48476396 9.96644559 164.07626859 9.85357862 173.71875 9.8671875 C175.47188327 9.86650915 177.22501645 9.8655348 178.97814941 9.86428833 C182.63876244 9.86282688 186.29935082 9.86490896 189.95996094 9.86962891 C194.50534881 9.87522249 199.05067622 9.87210436 203.59606171 9.86605644 C207.22298581 9.86231882 210.84989726 9.86364877 214.4768219 9.86618423 C216.14384469 9.86682333 217.81086888 9.86613991 219.47789001 9.86370468 C228.93271619 9.85294909 238.37993535 9.97021941 247.83108521 10.23054504 C277.19577841 11.03123285 306.53840086 11.10595066 335.91287609 11.04001454 C342.95274957 11.02465549 349.992626 11.01732348 357.03251232 11.0107208 C369.60403643 10.99891034 382.17555418 10.98401338 394.74707031 10.96557617 C395.49181445 10.96448605 396.2365586 10.96339593 397.00387074 10.96227277 C405.33654731 10.94996566 413.66922071 10.93639258 422.00189209 10.92095947 C423.13150352 10.9188678 423.13150352 10.9188678 424.28393538 10.91673386 C425.80398378 10.9139148 427.32403218 10.91109514 428.84408058 10.9082749 C429.59549493 10.90688158 430.34690927 10.90548827 431.12109375 10.90405273 C431.87155503 10.9026592 432.62201631 10.90126567 433.39521883 10.89982992 C445.96128497 10.87670284 458.52734649 10.86145258 471.09343064 10.85249335 C478.78820902 10.84669634 486.48292125 10.83448823 494.17767353 10.81352056 C500.06957539 10.79804367 505.96145723 10.79320315 511.8533802 10.79207802 C514.24731197 10.7899515 516.64124384 10.78443363 519.03515816 10.7750473 C530.23485104 10.73286781 541.36714641 10.83902864 552.52981567 11.82569885 C553.35834608 11.89497084 554.18687649 11.96424282 555.04051387 12.03561395 C560.67136619 12.60600428 565.70773425 14.01043169 571 16 C571.061875 17.0209375 571.061875 17.0209375 571.125 18.0625 C572.19681502 21.66073613 573.97601602 23.37563102 576.625 25.9609375 C580.78665812 32.13248732 579.18395846 42.47108032 579.1875 49.625 C579.19974609 50.9346875 579.21199219 52.244375 579.22460938 53.59375 C579.22750977 55.48480469 579.22750977 55.48480469 579.23046875 57.4140625 C579.23457764 58.5582666 579.23868652 59.7024707 579.24291992 60.88134766 C578.99872794 64.016331 578.33323774 66.17392252 577 69 C576.5359375 69.99 576.5359375 69.99 576.0625 71 C575 73 575 73 573.375 75.4375 C571.84960217 78.28028687 571.88389336 79.83873271 572 83 C555.71499581 87.4337597 539.24810754 87.15239685 522.49609375 87.1328125 C520.46795636 87.13383379 518.43981912 87.13517644 516.41168213 87.1368103 C510.90643133 87.13952117 505.40120865 87.13500536 499.89596176 87.12857056 C496.41579861 87.1249776 492.93563964 87.12337433 489.45547485 87.12231445 C443.89543742 87.10521864 398.33885556 86.77217166 352.78100586 86.35595703 C348.94271555 86.32128389 345.10442386 86.28677355 341.26613045 86.25244522 C338.77848128 86.23011898 336.29083448 86.20752659 333.80319023 86.18465805 C321.02818889 86.06852282 308.25459012 85.98205715 295.47900391 86.00390625 C293.87767152 86.00637234 293.87767152 86.00637234 292.24398899 86.00888824 C287.28592624 86.01811884 282.32803302 86.03441205 277.37004089 86.06237793 C269.36390999 86.09590512 261.45686035 86.06814481 253.48271179 85.2298584 C247.74098242 84.69826842 242.04311403 84.72930608 236.3293457 85.48632812 C232.2133245 86.00952493 228.11059324 86.23418177 223.96484375 86.3515625 C222.80653046 86.38697144 222.80653046 86.38697144 221.62481689 86.4230957 C219.06250999 86.49719138 216.50011297 86.56241436 213.9375 86.625 C213.05003082 86.64745789 212.16256165 86.66991577 211.24819946 86.6930542 C194.22192891 87.10148443 177.21425488 86.93722741 160.1875 86.625 C158.35685501 86.59300507 158.35685501 86.59300507 156.48922729 86.56036377 C153.00697659 86.49713605 149.52499151 86.42621868 146.04296875 86.3515625 C144.47690887 86.32171265 144.47690887 86.32171265 142.87921143 86.29125977 C141.91255554 86.26813721 140.94589966 86.24501465 139.94995117 86.22119141 C139.11066574 86.20263092 138.27138031 86.18407043 137.40666199 86.16494751 C135 86 135 86 132.55567932 85.49029541 C129.69207418 84.94092584 127.07442506 84.90155087 124.15917969 84.93408203 C123.0073822 84.94384064 121.85558472 84.95359924 120.66888428 84.96365356 C119.43237122 84.97822601 118.19585815 84.99279846 116.921875 85.0078125 C114.96398276 85.02084829 113.00609021 85.03386557 111.04819107 85.04582024 C106.23593977 85.07623785 101.4238482 85.11619863 96.61181641 85.17138672 C93.90894764 85.20191304 91.20624204 85.22422347 88.50323486 85.23776245 C85.96436287 85.25083547 83.42551586 85.27575799 80.88690186 85.3142395 C70.68990322 85.34448955 63.10121491 82.90761225 54.1875 78.1875 C53.54619141 77.86974609 52.90488281 77.55199219 52.24414062 77.22460938 C47.70748185 74.83664731 45.8484163 72.3275128 43 68 C37.69979428 64.17569772 31.92236757 64.45306624 25.625 64.3125 C24.62210938 64.27833984 23.61921875 64.24417969 22.5859375 64.20898438 C18.21333078 64.06876335 13.84743464 63.98665413 9.47265625 64.01171875 C6 64 6 64 2.8125 63.5 C-4.02791691 62.60289614 -12.35900075 61.78633358 -19 64 C-20.16833412 65.82021198 -20.16833412 65.82021198 -21 68 C-22.10521759 69.38751413 -23.25378367 70.74131983 -24.4375 72.0625 C-25.03433594 72.73410156 -25.63117188 73.40570313 -26.24609375 74.09765625 C-28 76 -28 76 -29.66015625 77.55859375 C-31.25510965 79.07486927 -31.25510965 79.07486927 -32 82 C-33.485 82.495 -33.485 82.495 -35 83 C-39.2420558 87.37462005 -42 92.86175277 -42 99 C-41.71125 99.54527344 -41.4225 100.09054688 -41.125 100.65234375 C-39.13236419 104.81058722 -38.46499471 109.39918479 -37.5 113.88867188 C-36.71114656 117.42310508 -36.02972731 119.95540903 -34 123 C-29.95718915 123.9768592 -25.89066582 124.1969633 -21.74609375 124.4296875 C-20.56080078 124.50316406 -19.37550781 124.57664062 -18.15429688 124.65234375 C-15.70413688 124.7991216 -13.25360831 124.93988821 -10.80273438 125.07421875 C12.26577036 126.54323308 12.26577036 126.54323308 19.6953125 133.61328125 C24.43338576 139.24459782 27.07889667 144.84729436 29.25390625 151.8515625 C29.9376198 154.00648743 29.9376198 154.00648743 31.02734375 155.8984375 C33.69023486 161.65199338 33.07346229 168.10375061 32.95703125 174.2890625 C32.93465757 176.30207365 32.9132006 178.31509515 32.89257812 180.328125 C32.85539139 183.48628809 32.81214664 186.64392149 32.75317383 189.80175781 C32.69878104 192.86010514 32.66962585 195.9178532 32.64453125 198.9765625 C32.62074905 199.9214151 32.59696686 200.8662677 32.57246399 201.8397522 C32.48290174 207.04693323 32.48290174 207.04693323 34.8581543 211.53271484 C37.04000738 213.07009658 37.04000738 213.07009658 39.625 214.5 C42.19144725 216.12091405 42.94089963 217.2078263 44 220 C37.97715304 226.43821572 30.32213671 225.68291537 22 226 C14.91137119 226.16765778 7.82060596 226.14120032 0.73046875 226.1328125 C-1.3189851 226.13348904 -3.36843887 226.13446196 -5.41789246 226.13571167 C-9.70511645 226.13717849 -13.99231948 226.13507119 -18.27954102 226.13037109 C-23.6656245 226.12474227 -29.05165774 226.12799253 -34.43773937 226.1338377 C-55.46466545 226.15287951 -76.47444058 226.13737169 -97.48664856 225.26699829 C-104.61246738 224.99470924 -111.48116914 225.08666451 -118.5625 225.9375 C-128.38020584 227.04647599 -138.14514627 227.29339068 -148.01779175 227.35549927 C-149.80523288 227.36825686 -151.59264112 227.38805367 -153.37991333 227.41574097 C-171.21003714 227.67247922 -186.61574838 224.48617948 -203.09179688 217.6484375 C-211.65312257 214.29698403 -219.67964518 213.7512503 -228.5 216.6875 C-229.593125 217.05101562 -230.68625 217.41453125 -231.8125 217.7890625 C-234.79019319 218.92029398 -237.62928926 220.18556026 -240.5 221.5625 C-264.13130523 232.75808921 -300.28094417 231.85536358 -324.78398132 224.49804688 C-335.92949116 221.25579366 -344.30771135 221.01936645 -355.703125 223.2890625 C-372.0120285 226.2352576 -387.94575446 226.79021171 -404.4828186 226.80728912 C-408.41769682 226.81633302 -412.35236107 226.85254231 -416.28710938 226.88427734 C-423.72489477 226.93954063 -431.16251255 226.96792627 -438.60047913 226.98311996 C-444.22393965 226.99466518 -449.84729409 227.01499508 -455.47070312 227.04150391 C-491.54290212 227.20642602 -527.61273668 227.03034297 -563.68319702 226.6521225 C-566.34761998 226.62527588 -569.01205389 226.6015475 -571.67651367 226.57867432 C-575.86516505 226.542087 -580.05360309 226.4957443 -584.24206924 226.44206238 C-585.77186855 226.42378738 -587.30170735 226.40850344 -588.83156967 226.3966217 C-612.89470041 226.20177957 -612.89470041 226.20177957 -623.1875 221.25 C-629.55744176 218.40028921 -633.4309205 219.28740623 -640 221 C-642.76323634 221.52454895 -645.53806378 221.97643129 -648.3125 222.4375 C-653.68264567 223.36322327 -658.99648061 224.41948675 -664.3125 225.625 C-689.85909892 231.13844677 -717.76040522 229.36873829 -741.18457031 217.43115234 C-750.03420037 212.92134687 -756.86740498 210.20139573 -767 212 C-768.67409 212.64780004 -770.3421961 213.31158991 -772 214 C-772.99 214 -773.98 214 -775 214 C-775 214.66 -775 215.32 -775 216 C-776.71576103 216.97562882 -778.43216321 217.95015346 -780.15234375 218.91796875 C-782.10986325 220.02482044 -782.10986325 220.02482044 -784.25 221.625 C-797.53056332 228.26528166 -816.53530849 226.29170652 -831.0625 226.5625 C-832.15810242 226.58334656 -833.25370483 226.60419312 -834.38250732 226.62567139 C-895.43190121 227.73406681 -956.52813818 227.18779721 -1017.5778017 226.39012051 C-1036.50211257 226.14393027 -1055.42153849 225.95901988 -1074.34765625 226.00390625 C-1075.19965858 226.00565731 -1076.05166092 226.00740837 -1076.92948151 226.00921249 C-1084.97373873 226.02623469 -1093.01776926 226.05218369 -1101.06184387 226.10991096 C-1138.44892507 226.36516079 -1138.44892507 226.36516079 -1146 222 C-1145.8125 219.625 -1145.8125 219.625 -1145 217 C-1141.19411723 215.00969977 -1137.54942107 214.59234459 -1133.30859375 214.21875 C-1132.03435547 214.09886719 -1130.76011719 213.97898438 -1129.44726562 213.85546875 C-1127.43742655 213.67590902 -1125.4273588 213.49911027 -1123.41723633 213.32275391 C-1121.46376284 213.14878347 -1119.5111587 212.96513713 -1117.55859375 212.78125 C-1116.39642334 212.67876953 -1115.23425293 212.57628906 -1114.03686523 212.47070312 C-1109.11712867 211.70816176 -1106.11732681 209.92867997 -1103 206 C-1102.43610896 203.2212316 -1102.43610896 203.2212316 -1102.57421875 200.17578125 C-1102.58259766 199.06525391 -1102.59097656 197.95472656 -1102.59960938 196.81054688 C-1102.62861328 195.65619141 -1102.65761719 194.50183594 -1102.6875 193.3125 C-1102.69716797 192.14654297 -1102.70683594 190.98058594 -1102.71679688 189.77929688 C-1102.29363543 184.52665345 -1102.29363543 184.52665345 -1104 180 C-1103.99576869 178.02397627 -1103.98463611 176.04768404 -1103.93554688 174.07226562 C-1103.66529693 165.16259941 -1103.66529693 165.16259941 -1105.5 156.5 C-1107.82252422 149.48901566 -1107.13792979 142.27202932 -1107.01855469 134.98046875 C-1106.95280037 127.96206023 -1107.93377429 121.84360111 -1112 116 C-1113.89282808 114.09230678 -1115.82926106 112.61650772 -1118 111 C-1119 110 -1120 109 -1121 108 C-1123.20923787 106.89538106 -1124.72472949 106.7492139 -1127.17578125 106.53515625 C-1128.00400391 106.45716797 -1128.83222656 106.37917969 -1129.68554688 106.29882812 C-1131.424878 106.14235298 -1133.16446253 105.98866753 -1134.90429688 105.83789062 C-1139.26573567 105.42235463 -1143.01061933 104.96590099 -1147 103 C-1146.9071875 102.34515625 -1146.814375 101.6903125 -1146.71875 101.015625 C-1146.00950594 92.04875373 -1149.51587614 86.86066098 -1155 80 C-1155.66 79.34 -1156.32 78.68 -1157 78 C-1156.703125 75.6875 -1156.703125 75.6875 -1156 73 C-1154.04832679 66.65131046 -1154.04832679 66.65131046 -1155.1875 60.4375 C-1156.0846875 59.2309375 -1156.0846875 59.2309375 -1157 58 C-1159.74929234 51.88773399 -1161.06847921 45.67799507 -1160 39 C-1159.0625 37.09375 -1159.0625 37.09375 -1157.9375 35.375 C-1155.91793238 31.85704351 -1155.79299932 31.44245181 -1156.4375 27.75 C-1156.623125 26.5125 -1156.80875 25.275 -1157 24 C-1155.75 22.3125 -1155.75 22.3125 -1154 21 C-1153.5875 20.175 -1153.175 19.35 -1152.75 18.5 C-1149.89584924 14.42264177 -1145.91467588 13.38311861 -1141.16497803 12.432724 C-1137.96422196 11.99510833 -1134.90234959 11.85483972 -1131.67285156 11.82641602 C-1130.4358551 11.81292618 -1129.19885864 11.79943634 -1127.92437744 11.78553772 C-1127.26867012 11.78047777 -1126.6129628 11.77541782 -1125.93738556 11.77020454 C-1123.84617534 11.7535523 -1121.75512785 11.7302921 -1119.66400146 11.70530701 C-1113.71944642 11.63531483 -1107.7748131 11.57562654 -1101.83007812 11.52319336 C-1085.13800971 11.37213293 -1068.58936946 10.90156342 -1051.94555664 9.49145508 C-1029.09327117 7.55889813 -1006.16404567 7.83998297 -983.24998093 7.87142944 C-980.28816379 7.87502958 -977.32635153 7.87662446 -974.36453247 7.87768555 C-948.5666901 7.88918604 -922.79274143 8.07761517 -897.00474548 8.83740234 C-883.85294713 9.21778753 -870.75681627 9.36348174 -857.64052254 8.23871022 C-853.68255742 7.97918519 -849.74349958 7.9046813 -845.77898312 7.90719891 C-844.99722314 7.90765189 -844.21546316 7.90810487 -843.41001349 7.90857158 C-835.38657821 7.94922349 -827.39631923 8.38002761 -819.38803064 8.84116717 C-798.9408801 9.99789762 -778.55178284 10.28679398 -758.076805 10.24679029 C-753.43405944 10.24002767 -748.79132195 10.24520063 -744.14857483 10.24867249 C-735.12031036 10.25363951 -726.09208337 10.24816995 -717.06382357 10.23882218 C-706.49877576 10.22828787 -695.93373542 10.22851227 -685.36868335 10.22899476 C-666.49504871 10.22949214 -647.6214312 10.22042085 -628.74780273 10.20581055 C-610.52481779 10.19171168 -592.30184789 10.18464085 -574.07885742 10.18530273 C-572.95474169 10.18534269 -571.83062597 10.18538265 -570.67244612 10.18542381 C-569.5500735 10.18546417 -568.42770087 10.18550452 -567.27131695 10.1855461 C-546.380532 10.18623943 -525.4897533 10.18032844 -504.59897039 10.17139288 C-497.27125082 10.16840339 -489.94353242 10.16731658 -482.6158123 10.16686058 C-473.66735771 10.16617182 -464.7189137 10.16161626 -455.77046358 10.15252777 C-451.22353739 10.14797564 -446.67662451 10.14483927 -442.12969589 10.14612198 C-423.98892772 10.15018593 -405.87642374 10.04393801 -387.74827284 9.31022185 C-376.61287755 8.88328539 -365.55802966 9.28050467 -354.42977905 9.73779297 C-343.19042684 10.1751336 -331.94973711 10.11144452 -320.70376015 10.07516479 C-316.60053016 10.06206006 -312.49733452 10.05565707 -308.39408875 10.05102539 C-299.70021042 10.04012338 -291.00636006 10.02054325 -282.3125 10 C-272.8762666 9.97777371 -263.44004416 9.95728627 -254.0037896 9.94658184 C-250.60150712 9.94247862 -247.1992576 9.93630303 -243.79699135 9.92483521 C-218.07371985 9.84247229 -218.07371985 9.84247229 -206.08958149 10.6749115 C-195.39457738 11.39868774 -184.78035639 10.41312179 -174.1875 8.9375 C-166.58615153 7.90518463 -159.0982805 7.96025401 -151.4375 8.0625 C-140.73918673 8.20252111 -130.36413249 7.59315615 -119.75 6.4375 C-108.21450777 5.19808277 -97.10117998 4.97600995 -85.51953125 5.66796875 C-78.44812987 6.07872339 -71.38344714 6.12664202 -64.30273438 6.12533569 C-62.91812988 6.12511595 -61.53352272 6.12716361 -60.14892578 6.13174438 C-53.69163115 6.15185902 -47.29572023 6.08893565 -40.86328125 5.4921875 C-29.9874869 4.49833976 -19.92306217 5.11351602 -9.1875 7 C3.6137842 9.09565425 16.05679833 9.46295673 29 9 C29 7.68 29 6.36 29 5 C28.030625 5.020625 27.06125 5.04125 26.0625 5.0625 C23 5 23 5 22 4 C20.36933234 3.77285996 18.73023997 3.60544914 17.08984375 3.46484375 C16.10048828 3.37783203 15.11113281 3.29082031 14.09179688 3.20117188 C13.05087891 3.11416016 12.00996094 3.02714844 10.9375 2.9375 C9.89271484 2.84662109 8.84792969 2.75574219 7.77148438 2.66210938 C5.1813085 2.43739092 2.59084233 2.2168769 0 2 C0 1.34 0 0.68 0 0 Z " fill="#FCFEFC" transform="translate(1256,17)"/>
<path d="M0 0 C7.49487997 2.64525175 11.90121642 7.2298502 15.875 14 C17.25308872 17.28116361 18.38653393 20.57951603 19.44140625 23.9765625 C20.1251198 26.13148743 20.1251198 26.13148743 21.21484375 28.0234375 C23.87773486 33.77699338 23.26096229 40.22875061 23.14453125 46.4140625 C23.12215757 48.42707365 23.1007006 50.44009515 23.08007812 52.453125 C23.04289139 55.61128809 22.99964664 58.76892149 22.94067383 61.92675781 C22.88628104 64.98510514 22.85712585 68.0428532 22.83203125 71.1015625 C22.80824905 72.0464151 22.78446686 72.9912677 22.75996399 73.9647522 C22.67040174 79.17193323 22.67040174 79.17193323 25.0456543 83.65771484 C27.22750738 85.19509658 27.22750738 85.19509658 29.8125 86.625 C32.37894725 88.24591405 33.12839963 89.3328263 34.1875 92.125 C28.16389607 98.56402489 20.51090299 97.811749 12.1875 98.125 C4.85524322 98.29721697 -2.47874884 98.26830338 -9.8125 98.25 C-10.83577393 98.24911377 -11.85904785 98.24822754 -12.91333008 98.24731445 C-36.21987362 98.22389803 -59.51466145 97.72697824 -82.8125 97.125 C-82.8125 96.795 -82.8125 96.465 -82.8125 96.125 C-70.9325 95.795 -59.0525 95.465 -46.8125 95.125 C-46.1525 93.145 -45.4925 91.165 -44.8125 89.125 C-46.75340826 87.18409174 -50.28543902 87.72580565 -52.875 87.5625 C-54.81052734 87.43681641 -54.81052734 87.43681641 -56.78515625 87.30859375 C-57.78417969 87.24800781 -58.78320312 87.18742187 -59.8125 87.125 C-59.86347556 79.90253739 -59.89834878 72.6801217 -59.92236328 65.45751953 C-59.9323814 63.00372585 -59.94599966 60.54994399 -59.96337891 58.09619141 C-59.98781188 54.55628531 -59.99902534 51.01653794 -60.0078125 47.4765625 C-60.01813507 46.39073883 -60.02845764 45.30491516 -60.03909302 44.18618774 C-60.04146524 27.84929085 -60.04146524 27.84929085 -55.5625 22.375 C-54.655 21.6325 -53.7475 20.89 -52.8125 20.125 C-51.74219486 19.02839744 -50.67979367 17.92403074 -49.625 16.8125 C-46.8125 14.125 -46.8125 14.125 -44.8125 14.125 C-44.8125 13.465 -44.8125 12.805 -44.8125 12.125 C-38.48385484 9.62879584 -32.97356995 8.65149253 -26.1875 8.75 C-25.38054687 8.73839844 -24.57359375 8.72679687 -23.7421875 8.71484375 C-16.81435424 8.7485832 -11.38531851 10.31085036 -6.0625 15 C-5.51078125 15.47179687 -4.9590625 15.94359375 -4.390625 16.4296875 C-0.54512876 20.56074039 0.56182197 23.86277906 0.52807617 29.47583008 C0.52784958 30.7367598 0.52762299 31.99768951 0.52738953 33.29682922 C0.51207202 34.66273356 0.49642407 36.02863422 0.48046875 37.39453125 C0.47486912 38.79985602 0.47060075 40.20518667 0.46760559 41.61051941 C0.45618555 45.29808905 0.42674342 48.98530069 0.39349365 52.67272949 C0.36273111 56.43997353 0.34908709 60.20727577 0.33398438 63.97460938 C0.30187048 71.35823561 0.25070917 78.74156752 0.1875 86.125 C-0.81152344 86.25777344 -1.81054688 86.39054687 -2.83984375 86.52734375 C-4.77537109 86.79224609 -4.77537109 86.79224609 -6.75 87.0625 C-8.68166016 87.32353516 -8.68166016 87.32353516 -10.65234375 87.58984375 C-13.66716313 87.78662423 -13.66716313 87.78662423 -14.8125 89.125 C-14.97916667 91.625 -14.97916667 91.625 -14.8125 94.125 C-13.60178204 95.56424868 -13.60178204 95.56424868 -10.02709961 95.23852539 C-8.33967271 95.23836622 -6.65224095 95.23266917 -4.96484375 95.22265625 C-4.0784169 95.2212413 -3.19199005 95.21982635 -2.27870178 95.21836853 C0.56423254 95.21275215 3.40708931 95.20019691 6.25 95.1875 C8.17252491 95.18248711 10.09505104 95.17792384 12.01757812 95.17382812 C16.74091549 95.16277741 21.46419458 95.14550183 26.1875 95.125 C25.6925 91.66 25.6925 91.66 25.1875 88.125 C20.2375 87.795 15.2875 87.465 10.1875 87.125 C9.8575 65.345 9.5275 43.565 9.1875 21.125 C8.5275 20.795 7.8675 20.465 7.1875 20.125 C6.37109375 18.3828125 6.37109375 18.3828125 5.625 16.25 C5.37621094 15.55132812 5.12742187 14.85265625 4.87109375 14.1328125 C4.30349908 12.46570587 3.74440288 10.79570865 3.1875 9.125 C1.38817421 8.05783296 1.38817421 8.05783296 -0.8125 7.125 C-1.575625 6.650625 -2.33875 6.17625 -3.125 5.6875 C-6.24893081 3.87126116 -9.49041936 2.53996027 -12.8125 1.125 C-13.8025 0.465 -14.7925 -0.195 -15.8125 -0.875 C-11.28602161 -3.1382392 -4.72812947 -1.08514447 0 0 Z " fill="#FBFEFB" transform="translate(1265.8125,144.875)"/>
<path d="M0 0 C12.69130735 7.50779374 21.37059923 18.03630518 25.25 32.3125 C25.25 36.9325 25.25 41.5525 25.25 46.3125 C-20.29 46.8075 -20.29 46.8075 -66.75 47.3125 C-62.44013995 61.67870016 -56.677387 72.4064328 -43.7421875 80.26953125 C-36.90473053 83.84914108 -30.85181192 83.64483771 -23.25 83.625 C-21.44402344 83.64916992 -21.44402344 83.64916992 -19.6015625 83.67382812 C-9.18770257 83.67942697 1.30141494 82.65425001 10.4375 77.25 C11.31792969 76.74339844 12.19835937 76.23679687 13.10546875 75.71484375 C15.34256403 74.35647939 15.34256403 74.35647939 17.25 72.3125 C20.8125 72.125 20.8125 72.125 24.25 72.3125 C25.25 73.3125 25.25 73.3125 25.8125 76 C25.19787438 79.61946198 24.94898952 80.04335363 22.25 82.25 C5.4843486 93.52601333 -14.31952459 97.53784656 -34.2109375 94.84375 C-49.50740757 91.4712999 -61.76359678 82.96023054 -70.25 69.8125 C-75.45146324 61.26094179 -77.3053136 52.78960813 -77.1875 42.875 C-77.17775146 41.95267578 -77.16800293 41.03035156 -77.15795898 40.08007812 C-76.97737661 33.15061217 -76.20301003 27.42818534 -72.75 21.3125 C-71.87021484 19.71535156 -71.87021484 19.71535156 -70.97265625 18.0859375 C-63.92672678 6.67074451 -53.79114911 -0.30371699 -40.75 -3.6875 C-39.83347656 -4.03296875 -38.91695312 -4.3784375 -37.97265625 -4.734375 C-25.87979382 -8.31093068 -11.00944378 -5.60397485 0 0 Z " fill="#0DFE0D" transform="translate(991.75,148.6875)"/>
<path d="M0 0 C0.83120361 -0.00644531 1.66240723 -0.01289063 2.51879883 -0.01953125 C14.00457386 0.21740629 24.36464412 4.9638376 32.625 12.9375 C41.83498587 22.79913581 43.72708646 31.6868749 43.37890625 45.00390625 C42.67025667 55.22160305 37.76563519 64.18721526 30.375 71.1875 C18.11293221 80.74811396 6.01495356 82.77214398 -9.1875 81.5 C-20.02560999 79.49247201 -28.05172073 72.6269551 -34.625 64.0625 C-41.82438281 53.41613997 -42.47573082 42.88899759 -40.75390625 30.33984375 C-38.15045319 18.84260693 -29.38426275 10.06164039 -19.6484375 3.890625 C-13.17682148 0.64570204 -7.11913649 0.05247682 0 0 Z " fill="#FAFEFA" transform="translate(565.1875,152.5)"/>
<path d="M0 0 C12.52540713 0.00330923 25.05081162 0.00054293 37.57621863 -0.00220345 C60.69260461 -0.0070952 83.80898788 -0.00738051 106.92537407 -0.00462674 C129.79941181 -0.00190344 152.67344846 -0.0008854 175.54748635 -0.00214718 C177.00082695 -0.00222467 178.45416755 -0.00230182 179.90750815 -0.00237865 C185.75205642 -0.00268929 191.59660469 -0.00300797 197.44115296 -0.00333842 C213.76662916 -0.00425419 230.09210537 -0.0048257 246.4175816 -0.00512455 C247.16022824 -0.0051382 247.90287489 -0.00515185 248.66802597 -0.00516591 C272.23508088 -0.00557352 295.80213545 -0.004457 319.36919026 -0.00227498 C320.1304604 -0.00220473 320.89173054 -0.00213448 321.67606947 -0.0020621 C334.0283126 -0.00091799 346.38055573 0.00030186 358.73279885 0.00152807 C407.66523632 0.00638036 456.59767104 0.0061584 505.53010849 0.00129749 C517.86870642 0.00007567 530.20730436 -0.00113565 542.54590229 -0.00227498 C543.68648214 -0.00238065 543.68648214 -0.00238065 544.850104 -0.00248846 C568.39259068 -0.0046544 591.93507713 -0.00555708 615.4775639 -0.00512455 C616.21971778 -0.00511097 616.96187166 -0.00509739 617.72651505 -0.00508339 C634.03999829 -0.0047705 650.3534815 -0.00413605 666.66696472 -0.00321405 C672.5076161 -0.00288511 678.34826749 -0.00257199 684.18891888 -0.00226334 C685.64109714 -0.00218595 687.0932754 -0.00210722 688.54545367 -0.00202714 C711.38855379 -0.00077085 734.2316527 -0.0021538 757.07475267 -0.00487729 C780.80182993 -0.00767523 804.52890407 -0.00654054 828.25598102 -0.00134599 C840.65849028 0.00128178 853.06099469 0.00250216 865.46350388 -0.00099515 C932.12314823 -0.0186726 998.7707625 0.39140996 1065.42634873 1.13166858 C1061.81014005 3.08599127 1059.29744456 3.38777744 1055.15704636 3.40341236 C1053.86851761 3.41313068 1052.57998886 3.422849 1051.25241379 3.43286182 C1049.82658685 3.43363201 1048.4007598 3.43422102 1046.97493271 3.4346471 C1045.47183562 3.44230923 1043.96874281 3.45085578 1042.46565537 3.46022083 C1039.23048149 3.4784936 1035.99536535 3.49053585 1032.76014809 3.49775936 C1027.64678828 3.5092427 1022.53355637 3.53469709 1017.42026047 3.56207324 C1009.33498152 3.60371986 1001.24969644 3.63613681 993.1643611 3.6645474 C978.67885107 3.71552954 964.19339437 3.77763718 949.70797501 3.8498878 C944.62250485 3.8748283 939.53705158 3.89425161 934.45154278 3.90926994 C931.29165271 3.91946163 928.13178895 3.93360755 924.9719191 3.94874622 C923.50414242 3.95491053 922.03635743 3.9593649 920.56857018 3.9620042 C918.56858899 3.9658065 916.56862347 3.97617764 914.56866745 3.98690845 C913.44835349 3.99076336 912.32803954 3.99461828 911.17377667 3.99859001 C908.33483544 4.01219556 908.33483544 4.01219556 905.42634873 5.13166858 C903.08939931 5.22864503 900.7496835 5.26242988 898.41072373 5.26448108 C897.68621018 5.26543781 896.96169663 5.26639453 896.21522812 5.26738025 C894.65490418 5.26806328 893.09457743 5.26620052 891.53425888 5.26203968 C889.30940702 5.25697168 887.08478533 5.26182437 884.85994248 5.26838733 C876.75312442 5.27088154 868.65341858 5.1540256 860.55031113 4.9046178 C834.2207792 4.10307039 807.90872447 3.98249647 781.56836418 3.99734308 C775.47720208 3.99994039 769.38604119 3.99750832 763.294879 3.99595691 C753.0449169 3.9941517 742.79496206 3.99649307 732.54500107 4.00129749 C722.18985302 4.00609704 711.8347194 4.00614848 701.47957138 4.00129749 C626.83224464 3.96303249 626.83224464 3.96303249 552.1907988 4.78007556 C535.96190572 5.05114271 519.73967468 5.21845501 503.50837998 5.19416858 C502.54785092 5.19273979 501.58732186 5.19131099 500.59768586 5.1898389 C494.14470923 5.17815253 487.69178828 5.15594977 481.23884873 5.13166858 C474.57778275 5.10747809 467.91673922 5.08753365 461.25563912 5.07572986 C458.70140402 5.06948757 456.1472588 5.05705917 453.593051 5.0440221 C443.65991434 5.01276444 433.79023479 5.35974918 423.8725615 5.9023595 C418.80023298 6.17552988 413.74011498 6.27690767 408.66072373 6.26448108 C407.70943085 6.26575504 406.75813797 6.26702899 405.77801804 6.26834156 C402.57743199 6.27016303 399.3769269 6.26366409 396.17634873 6.25666858 C395.01640396 6.25611469 393.8564592 6.25556079 392.6613646 6.25499011 C374.61155505 6.24530458 356.56467717 6.08007252 338.51619248 5.86994983 C329.7154251 5.76845828 320.91464887 5.66778112 312.11384873 5.56916858 C311.00315018 5.55671604 309.89245163 5.54426349 308.74809555 5.5314336 C276.05127265 5.16901762 243.37289713 5.09473946 210.67634873 5.50666858 C208.87966709 5.52831242 207.08298537 5.54994947 205.28630356 5.57157947 C201.07340218 5.62347031 196.8606294 5.68147456 192.64788918 5.74510433 C191.12747489 5.76793534 189.60704453 5.78972695 188.08659844 5.81033184 C181.6506947 5.90036673 175.24472224 6.00394857 168.83552842 6.64534046 C159.25272083 7.52408734 149.60258547 7.27496444 139.98884873 7.26448108 C137.78295669 7.26515704 135.57706473 7.26612949 133.37117295 7.26738025 C128.74486366 7.26885087 124.11857372 7.26672808 119.4922667 7.26203968 C113.67690739 7.25642223 107.86159463 7.25967159 102.04623703 7.26547672 C80.87741915 7.28344801 59.71356555 7.26468661 38.55134873 6.68635608 C37.80959397 6.66694084 37.06783921 6.64752559 36.30360703 6.62752201 C34.24275218 6.57164252 32.18222724 6.50928209 30.12166123 6.4436803 C28.98744736 6.40781818 27.85323349 6.37195606 26.68464951 6.3350072 C23.42634873 6.13166858 23.42634873 6.13166858 20.10974411 5.62500049 C15.65010161 5.02770269 11.29069052 4.95580411 6.79671006 4.92634632 C5.8501621 4.91644672 4.90361414 4.90654712 3.92838291 4.89634754 C0.78840706 4.86474491 -2.35158241 4.83990441 -5.49162002 4.81526233 C-7.71799236 4.79460462 -9.94436157 4.77360651 -12.17072769 4.75228931 C-18.13302537 4.69661869 -24.0953599 4.647286 -30.05772491 4.59944202 C-33.76254208 4.56915721 -37.4673369 4.53690665 -41.1721315 4.50398303 C-71.9284386 4.23122666 -102.68122621 4.06559407 -133.43861099 4.14164783 C-157.82838798 4.19870804 -182.19404678 3.82339295 -206.57365127 3.13166858 C-206.57365127 2.80166858 -206.57365127 2.47166858 -206.57365127 2.13166858 C-196.52183752 0.92503705 -186.47300674 0.91084993 -176.3653545 0.81981136 C-174.43431217 0.79940895 -172.50327283 0.7787218 -170.57223634 0.75777358 C-165.32911278 0.70249434 -160.08594817 0.65375633 -154.84274241 0.60699204 C-151.50639775 0.57698337 -148.17006959 0.54550746 -144.83374157 0.51370564 C-96.55591961 0.05762228 -48.27962972 -0.0135742 0 0 Z " fill="#FFFFFF" transform="translate(393.5736512723379,-0.13166858162730932)"/>
<path d="M0 0 C5.54233877 4.33131593 8.72183262 8.52520401 9.984375 15.55078125 C10.2559028 20.08210951 10.21703062 24.60259853 10.1796875 29.140625 C10.1768576 30.44028702 10.17402771 31.73994904 10.17111206 33.07899475 C10.16352155 36.5132738 10.14391323 39.94738032 10.1217041 43.3815918 C10.10114621 46.89434476 10.0920892 50.40712594 10.08203125 53.91992188 C10.06066234 60.79695248 10.02551828 67.67384079 9.984375 74.55078125 C4.044375 75.04578125 4.044375 75.04578125 -2.015625 75.55078125 C-2.65976075 81.30335932 -2.65976075 81.30335932 -0.015625 83.92578125 C0.644375 84.46203125 1.304375 84.99828125 1.984375 85.55078125 C-12.81709767 86.59078435 -27.21050167 86.52274714 -42.015625 85.55078125 C-42.345625 84.89078125 -42.675625 84.23078125 -43.015625 83.55078125 C-39.550625 82.56078125 -39.550625 82.56078125 -36.015625 81.55078125 C-35.63343733 79.89463468 -35.30167398 78.22621101 -35.015625 76.55078125 C-36.95653326 74.60987299 -40.48856402 75.1515869 -43.078125 74.98828125 C-44.36847656 74.90449219 -45.65882813 74.82070312 -46.98828125 74.734375 C-47.98730469 74.67378906 -48.98632812 74.61320312 -50.015625 74.55078125 C-50.13192025 67.2572498 -50.22054153 59.96392106 -50.27468586 52.66964722 C-50.30068432 49.28187101 -50.33589878 45.89473313 -50.39282227 42.50732422 C-50.45368461 38.60497383 -50.48188548 34.70352078 -50.50390625 30.80078125 C-50.54261589 28.99250854 -50.54261589 28.99250854 -50.58210754 27.14770508 C-50.58501926 18.35387147 -48.7369924 13.51161056 -42.76953125 7.16015625 C-30.82275718 -2.97650054 -14.84559754 -9.08652953 0 0 Z " fill="#FCFEFC" transform="translate(319.015625,157.44921875)"/>
<path d="M0 0 C1.11826172 0.00966797 2.23652344 0.01933594 3.38867188 0.02929688 C5.13954102 0.06700195 5.13954102 0.06700195 6.92578125 0.10546875 C8.10462891 0.11900391 9.28347656 0.13253906 10.49804688 0.14648438 C13.41191536 0.18187549 16.3248707 0.23125066 19.23828125 0.29296875 C20.22248408 18.63945186 20.35652352 36.92721569 20.23828125 55.29296875 C20.76357422 54.8333374 21.28886719 54.37370605 21.83007812 53.90014648 C23.27955743 52.63185209 24.73080376 51.36557498 26.18359375 50.10107422 C27.67520246 48.78847273 29.13792066 47.44280951 30.58203125 46.078125 C39.14647391 39.23588005 50.09553561 40.28123765 60.51782227 40.93823242 C68.38814706 41.96448944 76.49390403 45.85092718 82.23828125 51.29296875 C84.86856096 54.95993851 86.23828125 57.65956867 86.23828125 62.29296875 C87.72328125 62.78796875 87.72328125 62.78796875 89.23828125 63.29296875 C89.23828125 85.07296875 89.23828125 106.85296875 89.23828125 129.29296875 C94.18828125 129.29296875 99.13828125 129.29296875 104.23828125 129.29296875 C105.23828125 130.29296875 105.23828125 130.29296875 105.30078125 133.85546875 C105.28015625 134.98984375 105.25953125 136.12421875 105.23828125 137.29296875 C101.24864714 138.60560682 97.19356861 138.45486431 93.04296875 138.4609375 C92.25431427 138.4642659 91.46565979 138.4675943 90.65310669 138.47102356 C88.99058616 138.47607534 87.32805554 138.47843243 85.66552734 138.47827148 C83.11539238 138.48046693 80.56568399 138.49866515 78.015625 138.51757812 C76.39974106 138.52051056 74.78385507 138.52249636 73.16796875 138.5234375 C72.40338348 138.53062302 71.63879822 138.53780853 70.8510437 138.54521179 C65.46711792 138.52180542 65.46711792 138.52180542 63.23828125 136.29296875 C62.98828125 133.79296875 62.98828125 133.79296875 63.23828125 131.29296875 C66.06808809 128.46316191 68.54705371 128.32042671 72.49389648 128.25634766 C73.69574585 128.26287354 73.69574585 128.26287354 74.921875 128.26953125 C75.73068115 128.27291504 76.5394873 128.27629883 77.37280273 128.27978516 C77.98841064 128.28413574 78.60401855 128.28848633 79.23828125 128.29296875 C79.24660987 120.2165254 79.22255876 112.14108402 79.15800285 104.06492615 C79.12902071 100.31411263 79.11088707 96.56392061 79.11816406 92.81298828 C79.12478728 89.18798379 79.10210639 85.56420415 79.05972672 81.93945312 C79.04864802 80.5617306 79.04784798 79.18388305 79.05785751 77.80615234 C79.10587956 70.21933384 78.98433352 64.62341454 73.82766724 58.76904297 C67.08371662 52.50588743 61.52800715 52.1120853 52.80078125 52.10546875 C51.95451172 52.09322266 51.10824219 52.08097656 50.23632812 52.06835938 C45.70123253 52.05770527 42.41631573 52.3745609 38.23828125 54.29296875 C36.91828125 54.29296875 35.59828125 54.29296875 34.23828125 54.29296875 C34.23828125 54.95296875 34.23828125 55.61296875 34.23828125 56.29296875 C31.81315846 58.35409562 29.26938101 60.22214829 26.71875 62.125 C21.65030515 66.55490062 20.76917124 70.79933782 20.23828125 77.29296875 C20.05473468 81.34418311 19.98369534 85.3945199 19.921875 89.44921875 C19.9010939 90.59209351 19.88031281 91.73496826 19.85890198 92.91247559 C19.79386784 96.53924942 19.73473726 100.16609153 19.67578125 103.79296875 C19.6325521 106.26172562 19.58893645 108.73047576 19.54492188 111.19921875 C19.43823413 117.23039798 19.33638469 123.26164411 19.23828125 129.29296875 C20.22570313 129.25816406 21.213125 129.22335938 22.23046875 129.1875 C23.51179688 129.16042969 24.793125 129.13335937 26.11328125 129.10546875 C27.38945313 129.07066406 28.665625 129.03585938 29.98046875 129 C31.05554687 129.09667969 32.130625 129.19335938 33.23828125 129.29296875 C33.89828125 130.28296875 34.55828125 131.27296875 35.23828125 132.29296875 C33.89345366 136.63779634 33.89345366 136.63779634 32.23828125 138.29296875 C29.52275848 138.41876681 26.83403698 138.48162281 24.1171875 138.49609375 C23.30209213 138.50179382 22.48699677 138.5074939 21.64720154 138.5133667 C19.91968083 138.52283002 18.19214196 138.52935595 16.46459961 138.53320312 C13.81527399 138.54291562 11.16672167 138.57392839 8.51757812 138.60546875 C6.84245254 138.61199778 5.16732139 138.61724864 3.4921875 138.62109375 C2.69631729 138.63344055 1.90044708 138.64578735 1.08045959 138.6585083 C-1.15405273 138.64941406 -1.15405273 138.64941406 -4.76171875 138.29296875 C-6.90981046 135.07083118 -7.05558028 134.01521474 -6.76171875 130.29296875 C-6.43171875 129.96296875 -6.10171875 129.63296875 -5.76171875 129.29296875 C-0.81171875 129.29296875 4.13828125 129.29296875 9.23828125 129.29296875 C9.23828125 90.02296875 9.23828125 50.75296875 9.23828125 10.29296875 C4.28828125 10.29296875 -0.66171875 10.29296875 -5.76171875 10.29296875 C-6.75171875 9.63296875 -7.74171875 8.97296875 -8.76171875 8.29296875 C-9.1900362 5.50890533 -9.2495898 3.98151709 -7.59838867 1.65112305 C-5.01381641 -0.26007933 -3.18966431 -0.04857357 0 0 Z " fill="#0FFE12" transform="translate(1186.76171875,102.70703125)"/>
<path d="M0 0 C1.14763227 0.00276538 1.14763227 0.00276538 2.31844902 0.00558662 C3.63518105 0.00146263 3.63518105 0.00146263 4.97851372 -0.00274467 C5.94379997 0.00444588 6.90908623 0.01163643 7.90362358 0.01904488 C9.42561867 0.0186068 9.42561867 0.0186068 10.97836113 0.01815987 C14.34399679 0.01955713 17.70941314 0.03513706 21.0750103 0.05078316 C23.40385632 0.05451187 25.7327039 0.05735951 28.06155205 0.0593586 C34.20023723 0.06700617 40.33882823 0.08666432 46.47747612 0.10876656 C52.73783913 0.1292008 58.99821732 0.13835512 65.25860405 0.14843941 C77.54901008 0.16990914 89.83934612 0.20405862 102.1296978 0.24609566 C102.1790629 5.19399743 102.21540049 10.14175649 102.23956108 15.08984566 C102.24963097 16.77379032 102.26328768 18.45771745 102.28057671 20.14160347 C102.30478205 22.55929066 102.31617076 24.97674709 102.3250103 27.39453316 C102.33533287 28.14979286 102.34565544 28.90505257 102.35629082 29.68319893 C102.35669098 31.53903546 102.25192496 33.39428846 102.1296978 35.24609566 C100.1296978 37.24609566 100.1296978 37.24609566 97.6296978 37.49609566 C95.1296978 37.24609566 95.1296978 37.24609566 93.1296978 35.24609566 C93.1296978 26.66609566 93.1296978 18.08609566 93.1296978 9.24609566 C70.0296978 9.24609566 46.9296978 9.24609566 23.1296978 9.24609566 C23.1296978 25.08609566 23.1296978 40.92609566 23.1296978 57.24609566 C33.6896978 56.91609566 44.2496978 56.58609566 55.1296978 56.24609566 C55.1296978 53.27609566 55.1296978 50.30609566 55.1296978 47.24609566 C56.1296978 43.18359566 56.1296978 43.18359566 57.1296978 40.24609566 C64.0046978 41.12109566 64.0046978 41.12109566 65.1296978 42.24609566 C65.21831772 45.05772945 65.24492135 47.84467821 65.22735405 50.65625191 C65.2259391 51.49828667 65.22452415 52.34032143 65.22306633 53.20787239 C65.21745043 55.90814901 65.20489528 58.60834393 65.1921978 61.30859566 C65.18718485 63.13476634 65.18262158 64.96093831 65.17852592 66.78711128 C65.16747584 71.27347108 65.15020059 75.7597695 65.1296978 80.24609566 C61.41702693 82.58370324 60.93524032 82.20720416 56.1296978 81.24609566 C56.1296978 76.29609566 56.1296978 71.34609566 56.1296978 66.24609566 C45.2396978 66.24609566 34.3496978 66.24609566 23.1296978 66.24609566 C23.1296978 83.73609566 23.1296978 101.22609566 23.1296978 119.24609566 C34.93233283 119.20649349 34.93233283 119.20649349 46.73492241 119.15600777 C48.20896139 119.15308857 49.68300117 119.15054002 51.15704155 119.14843941 C51.92923027 119.14332344 52.70141899 119.13820747 53.49700737 119.13293648 C55.37494967 119.13262592 57.25279033 119.18375997 59.1296978 119.24609566 C60.1296978 120.24609566 60.1296978 120.24609566 60.3796978 123.18359566 C60.2971978 124.19422066 60.2146978 125.20484566 60.1296978 126.24609566 C56.69808316 128.53383875 55.44124454 128.49868185 51.40484428 128.50488472 C50.2303019 128.51118904 49.05575951 128.51749336 47.84562492 128.52398872 C45.9424324 128.51791603 45.9424324 128.51791603 44.00079155 128.51172066 C42.70021309 128.51363411 41.39963463 128.51554756 40.0596447 128.517519 C37.30828917 128.52046642 34.5570636 128.5161843 31.80572319 128.50683784 C28.27586328 128.49543215 24.74630713 128.50201201 21.21645832 128.51398277 C17.8528782 128.52293764 14.48938031 128.51667292 11.12579155 128.51172066 C9.21956268 128.51779335 9.21956268 128.51779335 7.27482414 128.52398872 C5.5177388 128.51453224 5.5177388 128.51453224 3.72515678 128.50488472 C2.69051796 128.50329353 1.65587914 128.50170235 0.58988762 128.50006294 C-1.8703022 128.24609566 -1.8703022 128.24609566 -3.8703022 126.24609566 C-4.1203022 123.24609566 -4.1203022 123.24609566 -3.8703022 120.24609566 C-1.8703022 118.24609566 -1.8703022 118.24609566 1.6062603 118.05078316 C2.98920748 118.06408073 4.37208434 118.08793334 5.7546978 118.12109566 C6.81430717 118.13463081 6.81430717 118.13463081 7.8953228 118.14843941 C9.64025878 118.17201962 11.38502075 118.20789105 13.1296978 118.24609566 C13.12707939 117.35847542 13.12446098 116.47085518 13.12176323 115.55633736 C13.06320994 92.344406 13.24311275 69.14330464 13.59325981 45.93414497 C13.6555158 41.76862512 13.71471205 37.60306164 13.77422905 33.43750191 C13.88986367 25.37365636 14.00865471 17.30986183 14.1296978 9.24609566 C12.91411186 9.25769722 11.69852592 9.26929878 10.44610405 9.28125191 C8.86147016 9.29062844 7.27683462 9.29972878 5.6921978 9.30859566 C4.88975639 9.31697456 4.08731499 9.32535347 3.26055717 9.33398628 C1.21674559 9.34260996 -0.82714122 9.29837716 -2.8703022 9.24609566 C-3.8703022 8.24609566 -3.8703022 8.24609566 -4.0578022 5.30859566 C-3.85433825 1.98535109 -3.52211622 0.46344249 0 0 Z " fill="#07FE08" transform="translate(386.8703022003174,112.75390434265137)"/>
<path d="M0 0 C33.99 0 67.98 0 103 0 C103 41 103 41 101 46 C98.69 45.67 96.38 45.34 94 45 C93.505 27.675 93.505 27.675 93 10 C81.12 10 69.24 10 57 10 C57 45.64 57 81.28 57 118 C70.86 118.495 70.86 118.495 85 119 C86 120 86 120 86.25 122.9375 C86.1675 123.948125 86.085 124.95875 86 126 C82.48838502 128.34107666 81.06203396 128.25281532 76.90795898 128.25878906 C75.65333359 128.26509338 74.39870819 128.27139771 73.10606384 128.27789307 C71.73607238 128.27431366 70.36608221 128.27021179 68.99609375 128.265625 C67.59269646 128.26697215 66.18929962 128.26891309 64.78590393 128.27142334 C61.84623771 128.27437132 58.9066931 128.27008689 55.96704102 128.26074219 C52.1950512 128.24933722 48.42334566 128.25591561 44.65136623 128.26788712 C41.75435738 128.27510563 38.85741621 128.27281804 35.96040535 128.26763153 C34.56930572 128.26629555 33.17819997 128.26794097 31.78710747 128.27259064 C29.84562163 128.27765658 27.9041143 128.26856925 25.96264648 128.25878906 C24.85694809 128.25719788 23.75124969 128.25560669 22.61204529 128.25396729 C20 128 20 128 18 126 C17.8125 122.9375 17.8125 122.9375 18 120 C18.33 119.67 18.66 119.34 19 119 C28.24 119 37.48 119 47 119 C47 82.7 47 46.4 47 9 C34.79 9.33 22.58 9.66 10 10 C10 15.61 10 21.22 10 27 C9.88960129 30.34484588 9.7650004 33.66327707 9.5625 37 C9.50352539 38.16015625 9.50352539 38.16015625 9.44335938 39.34375 C9.12698413 44.87301587 9.12698413 44.87301587 8 46 C5.625 46.375 5.625 46.375 3 46 C-4.90569415 32.82384308 0 15.36590743 0 0 Z " fill="#0BFF06" transform="translate(782,113)"/>
<path d="M0 0 C1.24330078 -0.01160156 1.24330078 -0.01160156 2.51171875 -0.0234375 C11.38748669 0.00478434 18.44839424 2.84682156 25.5 8.25 C31.32789913 15.03329242 33.76843904 21.66816391 34.12109375 30.55078125 C34.15883408 31.37411453 34.1965744 32.19744781 34.23545837 33.04573059 C34.67809611 43.83863569 34.60756536 54.63796937 34.5625 65.4375 C34.55746789 67.56705622 34.55290805 69.69661362 34.54882812 71.82617188 C34.53797432 76.96747763 34.5208071 82.10872529 34.5 87.25 C35.1199585 87.23622314 35.73991699 87.22244629 36.37866211 87.20825195 C37.19085205 87.19753662 38.00304199 87.18682129 38.83984375 87.17578125 C39.64542725 87.16200439 40.45101074 87.14822754 41.28100586 87.1340332 C43.5 87.25 43.5 87.25 46.0625 88.4375 C47.5 90.25 47.5 90.25 47.875 92.8125 C47.5 95.25 47.5 95.25 45.5 97.25 C42.3671875 97.50878906 42.3671875 97.50878906 38.375 97.515625 C37.6722998 97.51753845 36.96959961 97.5194519 36.24560547 97.52142334 C34.75943646 97.52278475 33.27325555 97.51909132 31.78710938 97.51074219 C29.50884354 97.50004154 27.23136623 97.51063839 24.953125 97.5234375 C23.51041492 97.5221159 22.06770534 97.51955349 20.625 97.515625 C19.30757813 97.51336914 17.99015625 97.51111328 16.6328125 97.50878906 C13.5 97.25 13.5 97.25 11.5 95.25 C11.3125 92.1875 11.3125 92.1875 11.5 89.25 C12.5 88.25 12.5 88.25 15.22265625 88.15234375 C16.87587891 88.16974609 16.87587891 88.16974609 18.5625 88.1875 C19.66722656 88.19652344 20.77195312 88.20554687 21.91015625 88.21484375 C22.76480469 88.22644531 23.61945313 88.23804688 24.5 88.25 C24.43851754 80.7125672 24.36121903 73.17543307 24.26428509 65.63837528 C24.21974892 62.1377656 24.18045731 58.63726781 24.15356445 55.13647461 C24.12233683 51.10241123 24.06755599 47.06895464 24.01171875 43.03515625 C24.00532883 41.79105484 23.9989389 40.54695343 23.99235535 39.26515198 C23.89317354 28.07290656 23.89317354 28.07290656 18.87309265 18.40541077 C12.5172533 12.41250274 5.9845824 10.74687711 -2.5 10.875 C-3.26828125 10.86339844 -4.0365625 10.85179687 -4.828125 10.83984375 C-14.21211317 10.88772124 -20.64615242 15.20626949 -27.5 21.25 C-32.24995765 26.10346763 -34.72799429 30.09223674 -34.81884766 36.93652344 C-34.83871735 38.07740417 -34.85858704 39.21828491 -34.87905884 40.39373779 C-34.89061005 41.61989807 -34.90216125 42.84605835 -34.9140625 44.109375 C-34.93342865 45.36888977 -34.9527948 46.62840454 -34.9727478 47.92608643 C-35.02238414 51.2666095 -35.06366277 54.60702325 -35.10089111 57.94769287 C-35.14097339 61.35976048 -35.19204639 64.77166176 -35.2421875 68.18359375 C-35.33825037 74.87228881 -35.42329675 81.56105644 -35.5 88.25 C-34.01886719 88.21519531 -34.01886719 88.21519531 -32.5078125 88.1796875 C-30.58582031 88.15261719 -30.58582031 88.15261719 -28.625 88.125 C-27.34882813 88.10179687 -26.07265625 88.07859375 -24.7578125 88.0546875 C-21.5 88.25 -21.5 88.25 -19.5 90.25 C-19.82971479 93.54714793 -20.1226839 94.8726839 -22.5 97.25 C-25.27335427 97.44982025 -27.94469643 97.529792 -30.71875 97.515625 C-31.53243042 97.51753845 -32.34611084 97.5194519 -33.18444824 97.52142334 C-34.906009 97.52278527 -36.62758003 97.51908828 -38.34912109 97.51074219 C-40.9894917 97.50004258 -43.62918189 97.510637 -46.26953125 97.5234375 C-47.94010567 97.52211591 -49.61067967 97.51955352 -51.28125 97.515625 C-52.47034973 97.52169769 -52.47034973 97.52169769 -53.68347168 97.52789307 C-59.27007973 97.47992027 -59.27007973 97.47992027 -61.5 95.25 C-61.75 92.75 -61.75 92.75 -61.5 90.25 C-60.51 89.26 -60.51 89.26 -59.5 88.25 C-54.88 88.25 -50.26 88.25 -45.5 88.25 C-45.5 62.84 -45.5 37.43 -45.5 11.25 C-49.46 11.25 -53.42 11.25 -57.5 11.25 C-58.5 10.25 -58.5 10.25 -58.6875 7.3125 C-58.5 4.25 -58.5 4.25 -56.5 2.25 C-54.34521484 2.02294922 -54.34521484 2.02294922 -51.7109375 2.0546875 C-50.76992187 2.06113281 -49.82890625 2.06757813 -48.859375 2.07421875 C-47.87453125 2.09097656 -46.8896875 2.10773438 -45.875 2.125 C-44.88242187 2.13402344 -43.88984375 2.14304688 -42.8671875 2.15234375 C-40.41135612 2.17595751 -37.95564826 2.2118293 -35.5 2.25 C-35.17 6.21 -34.84 10.17 -34.5 14.25 C-33.79875 13.71890625 -33.0975 13.1878125 -32.375 12.640625 C-26.98672817 8.62870521 -21.75409932 4.78171956 -15.5 2.25 C-14.62988281 1.89164063 -13.75976562 1.53328125 -12.86328125 1.1640625 C-8.50857897 -0.01944544 -4.48987713 -0.04189621 0 0 Z " fill="#11FE0F" transform="translate(304.5,143.75)"/>
<path d="M0 0 C9.63933083 7.92419472 17.72437841 18.61528553 19.28588867 31.32739258 C19.40021302 33.68505326 19.41676716 36.01503478 19.375 38.375 C19.36557373 39.20572021 19.35614746 40.03644043 19.34643555 40.89233398 C19.18981781 47.28745422 18.39547488 53.02586023 16 59 C15.67128906 59.8353125 15.34257813 60.670625 15.00390625 61.53125 C9.97739105 72.80177544 1.58870332 80.05837651 -9 86 C-10.010625 86.598125 -11.02125 87.19625 -12.0625 87.8125 C-23.7930511 92.55463768 -38.33980765 92.89518658 -50.12890625 88.3203125 C-62.5319651 82.61659292 -73.70399324 75.06478139 -79 62 C-84.6008914 46.24749295 -85.13017015 31.35041644 -78 16 C-75.94280182 12.68692685 -73.66828958 9.83622389 -71 7 C-70.236875 6.13375 -69.47375 5.2675 -68.6875 4.375 C-61.46084818 -2.01134347 -54.25940362 -6.2488034 -45 -9 C-44.38898437 -9.19335938 -43.77796875 -9.38671875 -43.1484375 -9.5859375 C-27.91137649 -12.52253471 -12.72545702 -8.49428248 0 0 Z M-67.10546875 16.48828125 C-74.59874231 26.42266248 -74.95086219 36.93136451 -74 49 C-71.52242504 60.50974696 -63.29838153 69.64605178 -54.00390625 76.34375 C-47.06440794 80.16994933 -40.50451153 81.54066873 -32.625 81.4375 C-31.79355469 81.42847656 -30.96210937 81.41945313 -30.10546875 81.41015625 C-17.69469532 81.06164779 -7.81630086 76.0468734 0.84765625 67.08984375 C2.417516 65.13454529 3.71608741 63.15290221 5 61 C5.4846875 60.27039063 5.969375 59.54078125 6.46875 58.7890625 C10.08535154 52.41982534 10.4615973 46.41705929 10.5 39.25 C10.50628418 38.35063721 10.51256836 37.45127441 10.51904297 36.5246582 C10.31319997 25.74388074 5.48012594 18.68477795 -1.8828125 11.046875 C-12.67690008 0.99570033 -23.78507174 -0.58758048 -37.96484375 -0.33203125 C-50.58353426 0.23760312 -59.18917361 7.13265972 -67.10546875 16.48828125 Z " fill="#12FE12" transform="translate(598,153)"/>
<path d="M0 0 C0.72680466 0.00404846 1.45360931 0.00809692 2.20243835 0.01226807 C3.35144623 0.00701111 3.35144623 0.00701111 4.52366638 0.00164795 C7.06324753 -0.00717561 9.60255149 -0.00131752 12.14213562 0.00543213 C13.90329034 0.00408552 15.6644447 0.00214502 17.42559814 -0.00036621 C21.12029045 -0.00331843 24.81488617 0.00098278 28.50956726 0.01031494 C33.24889294 0.0217012 37.9879919 0.0151559 42.72730923 0.00317001 C46.36552644 -0.00405308 50.00368982 -0.00175844 53.64190865 0.0034256 C55.38944081 0.00476128 57.13697783 0.00311721 58.88450432 -0.00153351 C61.32655171 -0.0066052 63.76823092 0.0011208 66.21025085 0.01226807 C66.93503128 0.0082196 67.65981171 0.00417114 68.40655518 0 C72.08629909 0.03116211 73.62224766 0.17186099 76.77104187 2.27105713 C77.27104187 4.64605713 77.27104187 4.64605713 76.77104187 7.27105713 C72.91286749 11.12923151 69.97802841 12.1773773 64.64213562 12.40386963 C63.50904968 12.4012915 62.37596375 12.39871338 61.20854187 12.39605713 C60.07287781 12.39863525 58.93721375 12.40121338 57.76713562 12.40386963 C54.77104187 12.27105713 54.77104187 12.27105713 51.77104187 11.27105713 C47.81104187 10.94105713 43.85104187 10.61105713 39.77104187 10.27105713 C39.77104187 45.91105713 39.77104187 81.55105713 39.77104187 118.27105713 C51.65104187 118.60105713 63.53104187 118.93105713 75.77104187 119.27105713 C76.77104187 120.27105713 76.77104187 120.27105713 76.95854187 123.20855713 C76.77104187 126.27105713 76.77104187 126.27105713 74.77104187 128.27105713 C72.2224654 128.47460251 69.78208165 128.55427903 67.23197937 128.54571533 C66.0659317 128.55338173 66.0659317 128.55338173 64.87632751 128.561203 C62.29948794 128.57513547 59.72291469 128.57413969 57.14604187 128.57183838 C55.3600708 128.57572298 53.57410065 128.58005716 51.78813171 128.58482361 C48.04217028 128.59229345 44.29630307 128.5919888 40.55033875 128.58673096 C35.74134128 128.58093184 30.93272839 128.5978742 26.12379456 128.62107563 C22.43499991 128.63578025 18.74629862 128.63668922 15.05747986 128.6335659 C13.28399391 128.63408065 11.51050294 128.63934704 9.73704529 128.64937782 C7.26114113 128.66166346 4.78599565 128.65499887 2.31010437 128.64337158 C1.57237793 128.65101532 0.83465149 128.65865906 0.0745697 128.66653442 C-1.96479797 128.64527893 -1.96479797 128.64527893 -5.22895813 128.27105713 C-7.22895813 125.27105713 -7.22895813 125.27105713 -6.91645813 122.64605713 C-6.22895813 120.27105713 -6.22895813 120.27105713 -5.22895813 119.27105713 C6.32104187 119.27105713 17.87104187 119.27105713 29.77104187 119.27105713 C29.77104187 82.97105713 29.77104187 46.67105713 29.77104187 9.27105713 C17.89104187 9.27105713 6.01104187 9.27105713 -6.22895813 9.27105713 C-6.55895813 6.96105713 -6.88895813 4.65105713 -7.22895813 2.27105713 C-4.7621486 -0.19575241 -3.36685242 0.02863361 0 0 Z " fill="#0DFE06" transform="translate(129.2289581298828,112.72894287109375)"/>
<path d="M0 0 C0.66 -2.31 1.32 -4.62 2 -7 C4.875 -7.625 4.875 -7.625 8 -8 C11.36551496 -4.63448504 10.29719582 -0.18510281 10.32226562 4.38671875 C10.32009033 5.06138184 10.31791504 5.73604492 10.31567383 6.43115234 C10.31251166 8.49239856 10.33597703 10.5522124 10.36132812 12.61328125 C10.36197266 13.90621094 10.36261719 15.19914062 10.36328125 16.53125 C10.36626221 17.72298828 10.36924316 18.91472656 10.37231445 20.14257812 C10.24945068 21.08552734 10.12658691 22.02847656 10 23 C7 25 7 25 4.43359375 24.9140625 C2 24 2 24 0.84765625 21.9609375 C0.58855469 21.10757813 0.32945313 20.25421875 0.0625 19.375 C-2.76343609 11.51396349 -7.06195967 6.7801194 -14.53515625 3 C-28.44124864 -2.64177441 -44.59342969 -0.92700767 -58.3125 4.25 C-64.62490457 8.36040298 -68.44759686 12.85327121 -71 20 C-71.51175781 20.98226562 -72.02351563 21.96453125 -72.55078125 22.9765625 C-74.75451298 28.09918904 -74.47472555 33.38592315 -74.4375 38.875 C-74.45748047 39.91269531 -74.47746094 40.95039063 -74.49804688 42.01953125 C-74.49199319 51.62067596 -71.61374946 58.28109449 -66 66 C-65.4225 66.8146875 -64.845 67.629375 -64.25 68.46875 C-61.70238552 71.33481629 -59.45017274 72.61116795 -56 74.25 C-54.453125 75.00023437 -54.453125 75.00023437 -52.875 75.765625 C-46.99725747 78.28922098 -41.63549272 78.18332089 -35.3125 78.1875 C-34.35666016 78.19974609 -33.40082031 78.21199219 -32.41601562 78.22460938 C-17.88115727 78.25433301 -4.2336785 73.29803321 6.75 63.5625 C9 62 9 62 12.3125 62.25 C13.6428125 62.62125 13.6428125 62.62125 15 63 C15.18133506 66.98937132 15.23236928 69.64828409 13 73 C10.95779218 74.60688742 9.00121975 76.00079837 6.8125 77.375 C6.19826172 77.76494141 5.58402344 78.15488281 4.95117188 78.55664062 C-6.86572903 85.80927849 -18.46938427 89.18378181 -32.3125 89.125 C-33.21162109 89.12886719 -34.11074219 89.13273437 -35.03710938 89.13671875 C-49.97885306 89.11511102 -61.67744719 85.91492869 -72.5625 75.25 C-83.69945158 63.75437333 -85.46966299 49.99617912 -85.42944336 34.60424805 C-85.2703098 26.80919983 -84.24183336 20.67989646 -80 14 C-79.34515625 12.96617187 -78.6903125 11.93234375 -78.015625 10.8671875 C-59.3953643 -16.00673486 -26.03265947 -16.3460885 0 0 Z " fill="#0EFE0F" transform="translate(1139,154)"/>
<path d="M0 0 C4.19655628 2.869903 8.01651782 6.01442152 10.625 10.4375 C11.0625 13.3125 11.0625 13.3125 10.625 15.4375 C9.625 16.4375 9.625 16.4375 6.8515625 16.71875 C3.02371474 16.38508773 1.86238689 15.41626803 -1 12.9375 C-5.83734522 9.38190643 -9.32036668 8.42969111 -15.296875 8.828125 C-25.70074987 10.88777535 -32.96574386 17.26524027 -40.375 24.4375 C-41.82451538 25.73905447 -43.28222028 27.03157784 -44.75 28.3125 C-45.65878906 29.11300781 -45.65878906 29.11300781 -46.5859375 29.9296875 C-51.93458549 34.4375 -51.93458549 34.4375 -54.375 34.4375 C-54.375 51.5975 -54.375 68.7575 -54.375 86.4375 C-39.61045549 86.39789293 -39.61045549 86.39789293 -24.84594727 86.34741211 C-23.00276751 86.34449306 -21.15958712 86.34194448 -19.31640625 86.33984375 C-17.86663391 86.3321698 -17.86663391 86.3321698 -16.38757324 86.32434082 C-15.47407104 86.32421997 -14.56056885 86.32409912 -13.61938477 86.32397461 C-12.82218521 86.321754 -12.02498566 86.31953339 -11.20362854 86.31724548 C-9.375 86.4375 -9.375 86.4375 -8.375 87.4375 C-8.1875 90.375 -8.1875 90.375 -8.375 93.4375 C-10.84568685 95.90818685 -12.24352589 95.6761692 -15.61506653 95.69744873 C-16.70763008 95.68901947 -16.70763008 95.68901947 -17.82226562 95.68041992 C-18.58987717 95.68231827 -19.35748871 95.68421661 -20.14836121 95.68617249 C-22.69276045 95.68988557 -25.236876 95.67916853 -27.78125 95.66796875 C-29.54479946 95.66677712 -31.30834957 95.66632375 -33.07189941 95.6665802 C-36.77079228 95.66501441 -40.46958848 95.65671753 -44.16845703 95.64331055 C-48.91679743 95.62632058 -53.66503151 95.62249616 -58.41339874 95.62325573 C-62.05585755 95.62298418 -65.69829298 95.61750531 -69.34074402 95.61025429 C-71.09189171 95.60706549 -72.84304206 95.60509972 -74.5941925 95.60436058 C-77.03875264 95.60219925 -79.48319865 95.59345951 -81.92773438 95.58276367 C-82.65611008 95.58321686 -83.38448578 95.58367004 -84.13493347 95.58413696 C-89.14604459 95.5519777 -89.14604459 95.5519777 -91.375 94.4375 C-91.375 92.1275 -91.375 89.8175 -91.375 87.4375 C-86.375 85.4375 -86.375 85.4375 -64.375 85.4375 C-64.375 60.6875 -64.375 35.9375 -64.375 10.4375 C-70.975 10.1075 -77.575 9.7775 -84.375 9.4375 C-86.375 7.4375 -86.375 7.4375 -86.625 4.9375 C-86.375 2.4375 -86.375 2.4375 -84.375 0.4375 C-81.39404297 0.21044922 -81.39404297 0.21044922 -77.6171875 0.2421875 C-76.62261032 0.24643234 -76.62261032 0.24643234 -75.60794067 0.25076294 C-73.48844417 0.26196565 -71.36936896 0.28706949 -69.25 0.3125 C-67.81380818 0.32252972 -66.37760975 0.33165559 -64.94140625 0.33984375 C-61.41897762 0.36020461 -57.89746083 0.3993506 -54.375 0.4375 C-53.88 10.8325 -53.88 10.8325 -53.375 21.4375 C-51.333125 19.519375 -51.333125 19.519375 -49.25 17.5625 C-36.60876512 6.19616239 -17.68132715 -10.0729985 0 0 Z " fill="#09FE0A" transform="translate(743.375,145.5625)"/>
<path d="M0 0 C1.09731445 0.0299707 2.19462891 0.05994141 3.32519531 0.09082031 C6.98801982 0.19654522 10.65023609 0.31391104 14.3125 0.4375 C16.07630005 0.49611206 16.07630005 0.49611206 17.87573242 0.5559082 C19.54019409 0.61911255 19.54019409 0.61911255 21.23828125 0.68359375 C22.22868408 0.72025146 23.21908691 0.75690918 24.23950195 0.79467773 C26.90092538 0.99263096 29.3985562 1.41619624 32 2 C32 2.33 32 2.66 32 3 C31.3709375 3.06316406 30.741875 3.12632813 30.09375 3.19140625 C23.03306655 4.20159439 18.54782592 6.43337705 14 12 C7.10477078 23.87178596 6.73895937 40.91354545 9.75390625 54.0703125 C10.66194181 56.85495489 11.67525982 59.39135068 13 62 C13.33515625 62.71027344 13.6703125 63.42054687 14.015625 64.15234375 C15.83056025 67.67418239 17.62876719 69.95891347 21 72 C24.26269913 72.78939158 24.26269913 72.78939158 27.75 73.1875 C29.50570313 73.42533203 29.50570313 73.42533203 31.296875 73.66796875 C32.18890625 73.77753906 33.0809375 73.88710937 34 74 C34 74.33 34 74.66 34 75 C8.59 75 -16.82 75 -43 75 C-43.33 74.34 -43.66 73.68 -44 73 C-43.14277344 73.04640625 -42.28554687 73.0928125 -41.40234375 73.140625 C-33.04009284 73.61330237 -33.04009284 73.61330237 -25.49609375 70.6015625 C-16.83332317 61.32810052 -16.74224425 50.46549078 -16.64990234 38.59082031 C-16.63337534 37.03728216 -16.60612775 35.48381903 -16.56787109 33.93066406 C-16.30004339 22.97068845 -17.14520644 15.56525116 -24.5625 7.0625 C-28.90723088 3.73803574 -34.7282413 3.57153371 -40 3 C-40 2.67 -40 2.34 -40 2 C-26.61876145 0.58311864 -13.45373797 -0.37904787 0 0 Z " fill="#FAFEFA" transform="translate(1574,28)"/>
<path d="M0 0 C1.44838257 -0.02211548 1.44838257 -0.02211548 2.92602539 -0.04467773 C15.45328964 0.13371854 26.01072553 5.81826473 34.6875 14.6875 C39.02783835 19.77288645 42.375 26.73971513 42.375 33.5625 C14.655 33.5625 -13.065 33.5625 -41.625 33.5625 C-37.94317032 20.06245783 -32.96594789 11.63565754 -21.2578125 4.0234375 C-14.35169428 0.44026312 -7.63173471 0.07730959 0 0 Z " fill="#FAFFFA" transform="translate(965.625,152.4375)"/>
<path d="M0 0 C3.10013734 1.66488857 4.04222564 2.32596672 6 5 C6.72703125 5.9590625 6.72703125 5.9590625 7.46875 6.9375 C13.9452137 17.87552759 12.54920072 35.14821269 9.53735352 47.14160156 C8.06579119 52.23089389 6.19178896 55.91655549 2.25 59.5 C-2.6458425 61.75961962 -6.46925918 61.63268521 -11.75 60.3125 C-16.91642556 57.29875176 -18.99509884 52.44187457 -21 47 C-22.32364019 41.14473055 -22.25746032 35.2236396 -22.3125 29.25 C-22.34150391 28.21617188 -22.37050781 27.18234375 -22.40039062 26.1171875 C-22.48200026 16.14825651 -20.01768606 8.20236201 -13 1 C-9.01668302 -0.99165849 -4.33173015 -0.50925439 0 0 Z " fill="#F7FFF7" transform="translate(940,36)"/>
<path d="M0 0 C3.10013734 1.66488857 4.04222564 2.32596672 6 5 C6.72703125 5.9590625 6.72703125 5.9590625 7.46875 6.9375 C13.9452137 17.87552759 12.54920072 35.14821269 9.53735352 47.14160156 C8.06579119 52.23089389 6.19178896 55.91655549 2.25 59.5 C-2.6458425 61.75961962 -6.46925918 61.63268521 -11.75 60.3125 C-16.91642556 57.29875176 -18.99509884 52.44187457 -21 47 C-22.32364019 41.14473055 -22.25746032 35.2236396 -22.3125 29.25 C-22.34150391 28.21617188 -22.37050781 27.18234375 -22.40039062 26.1171875 C-22.48200026 16.14825651 -20.01768606 8.20236201 -13 1 C-9.01668302 -0.99165849 -4.33173015 -0.50925439 0 0 Z " fill="#F7FFF7" transform="translate(739,36)"/>
<path d="M0 0 C3.10013734 1.66488857 4.04222564 2.32596672 6 5 C6.72703125 5.9590625 6.72703125 5.9590625 7.46875 6.9375 C13.9452137 17.87552759 12.54920072 35.14821269 9.53735352 47.14160156 C8.06579119 52.23089389 6.19178896 55.91655549 2.25 59.5 C-2.6458425 61.75961962 -6.46925918 61.63268521 -11.75 60.3125 C-16.91642556 57.29875176 -18.99509884 52.44187457 -21 47 C-22.32364019 41.14473055 -22.25746032 35.2236396 -22.3125 29.25 C-22.34150391 28.21617188 -22.37050781 27.18234375 -22.40039062 26.1171875 C-22.48200026 16.14825651 -20.01768606 8.20236201 -13 1 C-9.01668302 -0.99165849 -4.33173015 -0.50925439 0 0 Z " fill="#F7FFF7" transform="translate(538,36)"/>
<path d="M0 0 C3.10013734 1.66488857 4.04222564 2.32596672 6 5 C6.72703125 5.9590625 6.72703125 5.9590625 7.46875 6.9375 C13.9452137 17.87552759 12.54920072 35.14821269 9.53735352 47.14160156 C8.06579119 52.23089389 6.19178896 55.91655549 2.25 59.5 C-2.6458425 61.75961962 -6.46925918 61.63268521 -11.75 60.3125 C-16.91642556 57.29875176 -18.99509884 52.44187457 -21 47 C-22.32364019 41.14473055 -22.25746032 35.2236396 -22.3125 29.25 C-22.34150391 28.21617188 -22.37050781 27.18234375 -22.40039062 26.1171875 C-22.48200026 16.14825651 -20.01768606 8.20236201 -13 1 C-9.01668302 -0.99165849 -4.33173015 -0.50925439 0 0 Z " fill="#F7FFF7" transform="translate(471,36)"/>
<path d="M0 0 C5.523038 3.25717626 8.49452788 7.5647071 10.3125 13.6875 C12.90322829 25.94719639 13.57485953 41.71694012 7.04296875 52.8046875 C4.55074956 56.35057911 2.54598245 58.82540974 -1.5625 60.4375 C-7.11660237 60.88541148 -10.87817827 60.76857323 -15.5625 57.4375 C-22.5133649 49.09646212 -21.74417168 39.85692895 -21.75 29.5 C-21.76836914 27.78780273 -21.76836914 27.78780273 -21.78710938 26.04101562 C-21.81476915 10.08132316 -21.81476915 10.08132316 -16.125 4 C-15.52816406 3.34128906 -14.93132812 2.68257812 -14.31640625 2.00390625 C-10.29519244 -1.58742279 -4.99752866 -1.09701849 0 0 Z " fill="#FBFEFB" transform="translate(337.5625,36.5625)"/>
<path d="M0 0 C5.523038 3.25717626 8.49452788 7.5647071 10.3125 13.6875 C12.90322829 25.94719639 13.57485953 41.71694012 7.04296875 52.8046875 C4.55074956 56.35057911 2.54598245 58.82540974 -1.5625 60.4375 C-7.11660237 60.88541148 -10.87817827 60.76857323 -15.5625 57.4375 C-22.5133649 49.09646212 -21.74417168 39.85692895 -21.75 29.5 C-21.76836914 27.78780273 -21.76836914 27.78780273 -21.78710938 26.04101562 C-21.81476915 10.08132316 -21.81476915 10.08132316 -16.125 4 C-15.52816406 3.34128906 -14.93132812 2.68257812 -14.31640625 2.00390625 C-10.29519244 -1.58742279 -4.99752866 -1.09701849 0 0 Z " fill="#FBFEFB" transform="translate(270.5625,36.5625)"/>
<path d="M0 0 C5.523038 3.25717626 8.49452788 7.5647071 10.3125 13.6875 C12.90322829 25.94719639 13.57485953 41.71694012 7.04296875 52.8046875 C4.55074956 56.35057911 2.54598245 58.82540974 -1.5625 60.4375 C-7.11660237 60.88541148 -10.87817827 60.76857323 -15.5625 57.4375 C-22.5133649 49.09646212 -21.74417168 39.85692895 -21.75 29.5 C-21.76836914 27.78780273 -21.76836914 27.78780273 -21.78710938 26.04101562 C-21.81476915 10.08132316 -21.81476915 10.08132316 -16.125 4 C-15.52816406 3.34128906 -14.93132812 2.68257812 -14.31640625 2.00390625 C-10.29519244 -1.58742279 -4.99752866 -1.09701849 0 0 Z " fill="#FBFEFB" transform="translate(136.5625,36.5625)"/>
<path d="M0 0 C5.28231212 4.5276961 7.88934334 10.30109549 8.4621582 17.16723633 C8.51204512 23.92714713 8.51204512 23.92714713 8.50317383 26.65063477 C8.50002424 28.67194107 8.52347484 30.6917658 8.54882812 32.71289062 C8.55318456 41.48239655 8.49099673 49.67478967 2.25 56.375 C-1.98826273 59.83480631 -6.08010423 60.47261412 -11.49609375 60.41015625 C-16.09471069 59.34774391 -18.40161118 55.70097574 -20.8125 51.875 C-23.46073804 46.81219198 -24.51192281 41.55944505 -24.8125 35.875 C-24.87695312 34.68519531 -24.94140625 33.49539062 -25.0078125 32.26953125 C-25.37489455 22.15629772 -24.79356741 11.51456803 -18.3125 3.1875 C-12.95373405 -1.7693585 -6.8153025 -2.726121 0 0 Z " fill="#FAFDFA" transform="translate(1544.8125,37.125)"/>
<path d="M0 0 C5.28231212 4.5276961 7.88934334 10.30109549 8.4621582 17.16723633 C8.51204512 23.92714713 8.51204512 23.92714713 8.50317383 26.65063477 C8.50002424 28.67194107 8.52347484 30.6917658 8.54882812 32.71289062 C8.55318456 41.48239655 8.49099673 49.67478967 2.25 56.375 C-1.98826273 59.83480631 -6.08010423 60.47261412 -11.49609375 60.41015625 C-16.09471069 59.34774391 -18.40161118 55.70097574 -20.8125 51.875 C-23.46073804 46.81219198 -24.51192281 41.55944505 -24.8125 35.875 C-24.87695312 34.68519531 -24.94140625 33.49539062 -25.0078125 32.26953125 C-25.37489455 22.15629772 -24.79356741 11.51456803 -18.3125 3.1875 C-12.95373405 -1.7693585 -6.8153025 -2.726121 0 0 Z " fill="#FAFDFA" transform="translate(1477.8125,37.125)"/>
<path d="M0 0 C5.28231212 4.5276961 7.88934334 10.30109549 8.4621582 17.16723633 C8.51204512 23.92714713 8.51204512 23.92714713 8.50317383 26.65063477 C8.50002424 28.67194107 8.52347484 30.6917658 8.54882812 32.71289062 C8.55318456 41.48239655 8.49099673 49.67478967 2.25 56.375 C-1.98826273 59.83480631 -6.08010423 60.47261412 -11.49609375 60.41015625 C-16.09471069 59.34774391 -18.40161118 55.70097574 -20.8125 51.875 C-23.46073804 46.81219198 -24.51192281 41.55944505 -24.8125 35.875 C-24.87695312 34.68519531 -24.94140625 33.49539062 -25.0078125 32.26953125 C-25.37489455 22.15629772 -24.79356741 11.51456803 -18.3125 3.1875 C-12.95373405 -1.7693585 -6.8153025 -2.726121 0 0 Z " fill="#FAFDFA" transform="translate(1343.8125,37.125)"/>
<path d="M0 0 C5.28231212 4.5276961 7.88934334 10.30109549 8.4621582 17.16723633 C8.51204512 23.92714713 8.51204512 23.92714713 8.50317383 26.65063477 C8.50002424 28.67194107 8.52347484 30.6917658 8.54882812 32.71289062 C8.55318456 41.48239655 8.49099673 49.67478967 2.25 56.375 C-1.98826273 59.83480631 -6.08010423 60.47261412 -11.49609375 60.41015625 C-16.09471069 59.34774391 -18.40161118 55.70097574 -20.8125 51.875 C-23.46073804 46.81219198 -24.51192281 41.55944505 -24.8125 35.875 C-24.87695312 34.68519531 -24.94140625 33.49539062 -25.0078125 32.26953125 C-25.37489455 22.15629772 -24.79356741 11.51456803 -18.3125 3.1875 C-12.95373405 -1.7693585 -6.8153025 -2.726121 0 0 Z " fill="#FAFDFA" transform="translate(1209.8125,37.125)"/>
<path d="M0 0 C5.46564535 2.48438425 7.51365931 5.75105855 10 11 C11.46371799 16.82412666 11.22331045 22.7190483 11.25 28.6875 C11.270625 29.82123047 11.29125 30.95496094 11.3125 32.12304688 C11.3568458 41.74054148 10.19315793 50.30547045 4 58 C0.21731349 61.37768796 -2.59316931 61.58389083 -7.53125 61.40234375 C-11.39111474 60.77328352 -13.74487295 59.06810389 -16 56 C-20.89935797 47.14649782 -21.23570152 39.35880272 -21.3125 29.375 C-21.34150391 28.14136719 -21.37050781 26.90773438 -21.40039062 25.63671875 C-21.45995017 17.01432948 -20.72926013 8.39227125 -14.4375 1.875 C-9.56487221 -0.78279698 -5.43306284 -0.85827818 0 0 Z " fill="#FCFDFC" transform="translate(1810,36)"/>
<path d="M0 0 C5.46564535 2.48438425 7.51365931 5.75105855 10 11 C11.46371799 16.82412666 11.22331045 22.7190483 11.25 28.6875 C11.270625 29.82123047 11.29125 30.95496094 11.3125 32.12304688 C11.3568458 41.74054148 10.19315793 50.30547045 4 58 C0.21731349 61.37768796 -2.59316931 61.58389083 -7.53125 61.40234375 C-11.39111474 60.77328352 -13.74487295 59.06810389 -16 56 C-20.89935797 47.14649782 -21.23570152 39.35880272 -21.3125 29.375 C-21.34150391 28.14136719 -21.37050781 26.90773438 -21.40039062 25.63671875 C-21.45995017 17.01432948 -20.72926013 8.39227125 -14.4375 1.875 C-9.56487221 -0.78279698 -5.43306284 -0.85827818 0 0 Z " fill="#FCFDFC" transform="translate(1609,36)"/>
<path d="M0 0 C11.55 0 23.1 0 35 0 C35 36.3 35 72.6 35 110 C23.12 110 11.24 110 -1 110 C-1 109.67 -1 109.34 -1 109 C-0.35450195 108.9498877 0.29099609 108.89977539 0.95605469 108.84814453 C3.88812245 108.61566667 6.8189927 108.37047186 9.75 108.125 C10.76578125 108.04636719 11.7815625 107.96773438 12.828125 107.88671875 C13.8078125 107.80292969 14.7875 107.71914062 15.796875 107.6328125 C17.14797363 107.52283936 17.14797363 107.52283936 18.52636719 107.41064453 C23.12775372 106.6467744 26.09821731 104.65703574 29 101 C29.56389104 98.2212316 29.56389104 98.2212316 29.42578125 95.17578125 C29.41740234 94.06525391 29.40902344 92.95472656 29.40039062 91.81054688 C29.37138672 90.65619141 29.34238281 89.50183594 29.3125 88.3125 C29.30283203 87.14654297 29.29316406 85.98058594 29.28320312 84.77929688 C29.70636457 79.52665345 29.70636457 79.52665345 28 75 C28.00423131 73.02397627 28.01536389 71.04768404 28.06445312 69.07226562 C28.33470307 60.16259941 28.33470307 60.16259941 26.5 51.5 C24.17747578 44.48901566 24.86207021 37.27202932 24.98144531 29.98046875 C25.04719963 22.96206023 24.06622571 16.84360111 20 11 C18.10717192 9.09230678 16.17073894 7.61650772 14 6 C13 5 12 4 11 3 C8.70370006 1.85185003 6.92301914 1.69230191 4.375 1.4375 C3.55773437 1.35371094 2.74046875 1.26992187 1.8984375 1.18359375 C1.27195312 1.12300781 0.64546875 1.06242187 0 1 C0 0.67 0 0.34 0 0 Z " fill="#FEFEFE" transform="translate(124,122)"/>
<path d="M0 0 C6.76802916 3.56212061 10.67464192 10.34928384 14 17 C14.28522295 21.66971347 14.31401859 26.34046485 14.35009766 31.01806641 C14.36651168 32.57160576 14.39360477 34.1250743 14.43212891 35.67822266 C14.73823395 48.10076406 13.51305996 58.21259242 5 68 C-0.22034347 71.69243807 -5.82373724 71.69224488 -12 71 C-18.43820301 68.85393233 -21.61564067 65.05251741 -24.6875 59.125 C-28.7421309 50.91008006 -29.3642242 43.81244773 -29.375 34.75 C-29.39949219 33.68136719 -29.42398437 32.61273438 -29.44921875 31.51171875 C-29.48769925 20.95523556 -27.06409304 12.52494643 -19.87890625 4.65625 C-13.79416869 -0.70742718 -7.88725911 -1.31613272 0 0 Z M-17.80029297 8.28466797 C-23.34361972 16.21047459 -23.59267822 24.62923775 -23.4375 34 C-23.44458984 35.2065625 -23.45167969 36.413125 -23.45898438 37.65625 C-23.38793776 47.71207871 -22.40773448 56.14685203 -15.40234375 63.72265625 C-12.16260819 66.67361316 -8.73036489 66.398464 -4.5390625 66.33203125 C-1.4782562 65.93177196 0.5516577 64.88117747 2.75390625 62.69140625 C9.11874852 54.05198084 9.20410022 44.5545001 9.25 34.25 C9.270625 33.10789062 9.29125 31.96578125 9.3125 30.7890625 C9.34986361 22.66247685 8.59675327 15.93701302 4.0625 9.0625 C0.543755 5.543755 -2.43553862 4.68010622 -7.375 4.5625 C-11.64395635 4.67050289 -14.67077195 5.04750308 -17.80029297 8.28466797 Z " fill="#1CFE1C" transform="translate(1611,31)"/>
<path d="M0 0 C6.76802916 3.56212061 10.67464192 10.34928384 14 17 C14.28522295 21.66971347 14.31401859 26.34046485 14.35009766 31.01806641 C14.36651168 32.57160576 14.39360477 34.1250743 14.43212891 35.67822266 C14.73823395 48.10076406 13.51305996 58.21259242 5 68 C-0.22034347 71.69243807 -5.82373724 71.69224488 -12 71 C-19.42887654 68.52370782 -22.51727993 63.52087102 -25.88671875 56.79296875 C-28.90627429 49.21759257 -29.36486779 42.26793635 -29.375 34.1875 C-29.39949219 33.17107422 -29.42398437 32.15464844 -29.44921875 31.10742188 C-29.48888906 20.73363681 -26.92677562 12.37456634 -19.87890625 4.65625 C-13.79416869 -0.70742718 -7.88725911 -1.31613272 0 0 Z M-17.80029297 8.28466797 C-23.34361972 16.21047459 -23.59267822 24.62923775 -23.4375 34 C-23.44458984 35.2065625 -23.45167969 36.413125 -23.45898438 37.65625 C-23.38793776 47.71207871 -22.40773448 56.14685203 -15.40234375 63.72265625 C-12.16260819 66.67361316 -8.73036489 66.398464 -4.5390625 66.33203125 C-1.4782562 65.93177196 0.5516577 64.88117747 2.75390625 62.69140625 C9.11874852 54.05198084 9.20410022 44.5545001 9.25 34.25 C9.270625 33.10789062 9.29125 31.96578125 9.3125 30.7890625 C9.34986361 22.66247685 8.59675327 15.93701302 4.0625 9.0625 C0.543755 5.543755 -2.43553862 4.68010622 -7.375 4.5625 C-11.64395635 4.67050289 -14.67077195 5.04750308 -17.80029297 8.28466797 Z " fill="#1CFE1C" transform="translate(1812,31)"/>
<path d="M0 0 C5.74911566 4.34689233 10.33226048 10.00711983 12.5625 16.9375 C13.14133557 21.8428549 13.12097918 26.6908194 13.0625 31.625 C13.07796875 32.91083984 13.0934375 34.19667969 13.109375 35.52148438 C13.06779986 45.80613585 11.86524338 58.02619467 4.5625 65.9375 C-0.89065594 70.22695517 -6.68055544 70.57792676 -13.44921875 70.296875 C-17.69183595 69.78665176 -19.49152491 69.09903425 -22.4375 65.9375 C-31.30960829 52.38777027 -33.02593047 35.94394174 -30.75 20.1875 C-29.06363247 12.18597682 -25.25265446 5.41080146 -18.8828125 0.19140625 C-13.00350707 -2.82338136 -6.11853139 -1.89118243 0 0 Z M-20.4375 8.9375 C-25.27751186 16.82203544 -25.61954304 23.58529344 -25.625 32.6875 C-25.63724609 33.74710938 -25.64949219 34.80671875 -25.66210938 35.8984375 C-25.67636359 43.557702 -25.07091543 50.32328452 -21.5 57.25 C-21.18160156 57.88550781 -20.86320313 58.52101562 -20.53515625 59.17578125 C-19.00527131 61.63121935 -17.45929322 63.52121387 -14.75 64.625 C-9.66779531 65.31178442 -5.95945599 65.59403003 -1.25 63.5625 C6.11728444 56.68636786 7.4107217 48.09685349 7.87109375 38.42578125 C8.60563541 22.14775175 8.60563541 22.14775175 1.5625 7.9375 C-1.88865775 4.64010671 -4.08396126 3.3682042 -8.875 3.375 C-14.2435448 3.59868937 -16.86002971 4.7492421 -20.4375 8.9375 Z " fill="#1AFE1A" transform="translate(943.4375,32.0625)"/>
<path d="M0 0 C5.74911566 4.34689233 10.33226048 10.00711983 12.5625 16.9375 C13.14133557 21.8428549 13.12097918 26.6908194 13.0625 31.625 C13.07796875 32.91083984 13.0934375 34.19667969 13.109375 35.52148438 C13.06779986 45.80613585 11.86524338 58.02619467 4.5625 65.9375 C-0.89065594 70.22695517 -6.68055544 70.57792676 -13.44921875 70.296875 C-17.69183595 69.78665176 -19.49152491 69.09903425 -22.4375 65.9375 C-31.30960829 52.38777027 -33.02593047 35.94394174 -30.75 20.1875 C-29.06363247 12.18597682 -25.25265446 5.41080146 -18.8828125 0.19140625 C-13.00350707 -2.82338136 -6.11853139 -1.89118243 0 0 Z M-20.4375 8.9375 C-25.27751186 16.82203544 -25.61954304 23.58529344 -25.625 32.6875 C-25.63724609 33.74710938 -25.64949219 34.80671875 -25.66210938 35.8984375 C-25.67636359 43.557702 -25.07091543 50.32328452 -21.5 57.25 C-21.18160156 57.88550781 -20.86320313 58.52101562 -20.53515625 59.17578125 C-19.00527131 61.63121935 -17.45929322 63.52121387 -14.75 64.625 C-9.66779531 65.31178442 -5.95945599 65.59403003 -1.25 63.5625 C6.11728444 56.68636786 7.4107217 48.09685349 7.87109375 38.42578125 C8.60563541 22.14775175 8.60563541 22.14775175 1.5625 7.9375 C-1.88865775 4.64010671 -4.08396126 3.3682042 -8.875 3.375 C-14.2435448 3.59868937 -16.86002971 4.7492421 -20.4375 8.9375 Z " fill="#1AFE1A" transform="translate(742.4375,32.0625)"/>
<path d="M0 0 C5.74911566 4.34689233 10.33226048 10.00711983 12.5625 16.9375 C13.14133557 21.8428549 13.12097918 26.6908194 13.0625 31.625 C13.07796875 32.91083984 13.0934375 34.19667969 13.109375 35.52148438 C13.06779986 45.80613585 11.86524338 58.02619467 4.5625 65.9375 C-0.89065594 70.22695517 -6.68055544 70.57792676 -13.44921875 70.296875 C-17.69183595 69.78665176 -19.49152491 69.09903425 -22.4375 65.9375 C-31.30960829 52.38777027 -33.02593047 35.94394174 -30.75 20.1875 C-29.06363247 12.18597682 -25.25265446 5.41080146 -18.8828125 0.19140625 C-13.00350707 -2.82338136 -6.11853139 -1.89118243 0 0 Z M-20.4375 8.9375 C-25.27751186 16.82203544 -25.61954304 23.58529344 -25.625 32.6875 C-25.63724609 33.74710938 -25.64949219 34.80671875 -25.66210938 35.8984375 C-25.67636359 43.557702 -25.07091543 50.32328452 -21.5 57.25 C-21.18160156 57.88550781 -20.86320313 58.52101562 -20.53515625 59.17578125 C-19.00527131 61.63121935 -17.45929322 63.52121387 -14.75 64.625 C-9.66779531 65.31178442 -5.95945599 65.59403003 -1.25 63.5625 C6.11728444 56.68636786 7.4107217 48.09685349 7.87109375 38.42578125 C8.60563541 22.14775175 8.60563541 22.14775175 1.5625 7.9375 C-1.88865775 4.64010671 -4.08396126 3.3682042 -8.875 3.375 C-14.2435448 3.59868937 -16.86002971 4.7492421 -20.4375 8.9375 Z " fill="#1AFE1A" transform="translate(541.4375,32.0625)"/>
<path d="M0 0 C5.74911566 4.34689233 10.33226048 10.00711983 12.5625 16.9375 C13.14133557 21.8428549 13.12097918 26.6908194 13.0625 31.625 C13.07796875 32.91083984 13.0934375 34.19667969 13.109375 35.52148438 C13.06779986 45.80613585 11.86524338 58.02619467 4.5625 65.9375 C-0.89065594 70.22695517 -6.68055544 70.57792676 -13.44921875 70.296875 C-17.69183595 69.78665176 -19.49152491 69.09903425 -22.4375 65.9375 C-31.30960829 52.38777027 -33.02593047 35.94394174 -30.75 20.1875 C-29.06363247 12.18597682 -25.25265446 5.41080146 -18.8828125 0.19140625 C-13.00350707 -2.82338136 -6.11853139 -1.89118243 0 0 Z M-20.4375 8.9375 C-25.27751186 16.82203544 -25.61954304 23.58529344 -25.625 32.6875 C-25.63724609 33.74710938 -25.64949219 34.80671875 -25.66210938 35.8984375 C-25.67636359 43.557702 -25.07091543 50.32328452 -21.5 57.25 C-21.18160156 57.88550781 -20.86320312 58.52101562 -20.53515625 59.17578125 C-19.00527131 61.63121935 -17.45929322 63.52121387 -14.75 64.625 C-9.66779531 65.31178442 -5.95945599 65.59403003 -1.25 63.5625 C6.11728444 56.68636786 7.4107217 48.09685349 7.87109375 38.42578125 C8.60563541 22.14775175 8.60563541 22.14775175 1.5625 7.9375 C-1.88865775 4.64010671 -4.08396126 3.3682042 -8.875 3.375 C-14.2435448 3.59868937 -16.86002971 4.7492421 -20.4375 8.9375 Z " fill="#1AFE1A" transform="translate(474.4375,32.0625)"/>
<path d="M0 0 C5.82603658 3.54131635 9.6777639 8.59711407 12.1875 14.9375 C14.9723691 30.37031624 14.93428764 49.00919364 6.7734375 62.68359375 C4.08543978 66.50372845 1.58174345 68.47275218 -2.8125 69.9375 C-15.51943512 71.51840977 -15.51943512 71.51840977 -20.21484375 68.28125 C-28.93848504 57.43873741 -30.0165366 45.06465294 -30.125 31.6875 C-30.16850586 29.92212891 -30.16850586 29.92212891 -30.21289062 28.12109375 C-30.28138005 18.64848009 -28.95610311 10.99509058 -22.3125 3.9375 C-15.7822737 -2.23653214 -8.44467305 -2.35343347 0 0 Z M-21 10.5 C-27.51562193 22.85721401 -27.64797728 38.632511 -23.8125 51.9375 C-21.87726745 57.1278472 -19.39600602 61.67811794 -14.8125 64.9375 C-10.0186332 65.76703979 -4.99277946 65.5360521 -0.8125 62.9375 C4.62061304 57.91187044 6.83941667 53.01797265 7.47802734 45.53173828 C7.5185995 42.38325175 7.55886992 39.23521369 7.55810547 36.08642578 C7.56247572 34.07368076 7.59886105 32.06313935 7.63671875 30.05078125 C7.664491 20.76559277 6.76899108 14.03063266 0.5625 6.9375 C-3.1982584 3.77054556 -5.7019446 3.59089888 -10.49609375 3.66015625 C-15.31014206 4.23654315 -17.96838845 6.94868361 -21 10.5 Z " fill="#1DFE1D" transform="translate(1344.8125,32.0625)"/>
<path d="M0 0 C6.0266417 4.25745711 10.25634393 9.92714493 12.625 16.89453125 C12.86791992 20.01318359 12.86791992 20.01318359 12.85546875 23.48046875 C12.85353516 24.74117187 12.85160156 26.001875 12.84960938 27.30078125 C12.83124023 29.2653125 12.83124023 29.2653125 12.8125 31.26953125 C12.81185547 32.57148437 12.81121094 33.8734375 12.81054688 35.21484375 C12.75757681 46.75054787 12.1524695 56.73942045 4 65.67578125 C-1.31266029 70.2446691 -6.38823575 70.3715917 -13.140625 70.2890625 C-17.20859303 69.79284901 -19.16312925 68.80056584 -21.94921875 65.85546875 C-29.37820683 55.63806596 -30.72859077 44.73819708 -30.6875 32.39453125 C-30.70361328 31.42644531 -30.71972656 30.45835938 -30.73632812 29.4609375 C-30.743187 19.24121215 -28.65358624 10.3800915 -21.375 2.89453125 C-15.68754664 -2.26792641 -6.93693815 -3.22887088 0 0 Z M-20.0625 9.58203125 C-25.44255379 16.49909359 -24.68177276 25.51955278 -24.625 33.83203125 C-24.63273437 34.96060547 -24.64046875 36.08917969 -24.6484375 37.25195312 C-24.62632623 46.75426955 -24.34674624 55.76065138 -17.375 62.89453125 C-13.40795954 65.36052937 -8.94246284 65.5958346 -4.375 64.89453125 C1.049141 62.34199431 4.27563873 58.31678896 6.625 52.89453125 C10.18112566 40.80188578 10.771604 24.55536829 5.625 12.89453125 C3.25665593 9.27908812 0.829567 5.65369148 -3.3828125 4.203125 C-10.92301648 3.03513262 -14.72785535 4.2473866 -20.0625 9.58203125 Z " fill="#1FFE1F" transform="translate(340.375,32.10546875)"/>
<path d="M0 0 C6.0266417 4.25745711 10.25634393 9.92714493 12.625 16.89453125 C12.86791992 20.01318359 12.86791992 20.01318359 12.85546875 23.48046875 C12.85353516 24.74117187 12.85160156 26.001875 12.84960938 27.30078125 C12.83124023 29.2653125 12.83124023 29.2653125 12.8125 31.26953125 C12.81185547 32.57148437 12.81121094 33.8734375 12.81054688 35.21484375 C12.75757681 46.75054787 12.1524695 56.73942045 4 65.67578125 C-1.31266029 70.2446691 -6.38823575 70.3715917 -13.140625 70.2890625 C-17.20859303 69.79284901 -19.16312925 68.80056584 -21.94921875 65.85546875 C-29.37820683 55.63806596 -30.72859077 44.73819708 -30.6875 32.39453125 C-30.70361328 31.42644531 -30.71972656 30.45835938 -30.73632812 29.4609375 C-30.743187 19.24121215 -28.65358624 10.3800915 -21.375 2.89453125 C-15.68754664 -2.26792641 -6.93693815 -3.22887088 0 0 Z M-20.0625 9.58203125 C-25.44255379 16.49909359 -24.68177276 25.51955278 -24.625 33.83203125 C-24.63273438 34.96060547 -24.64046875 36.08917969 -24.6484375 37.25195312 C-24.62632623 46.75426955 -24.34674624 55.76065138 -17.375 62.89453125 C-13.40795954 65.36052937 -8.94246284 65.5958346 -4.375 64.89453125 C1.049141 62.34199431 4.27563873 58.31678896 6.625 52.89453125 C10.18112566 40.80188578 10.771604 24.55536829 5.625 12.89453125 C3.25665593 9.27908812 0.829567 5.65369148 -3.3828125 4.203125 C-10.92301648 3.03513262 -14.72785535 4.2473866 -20.0625 9.58203125 Z " fill="#1FFE1F" transform="translate(273.375,32.10546875)"/>
<path d="M0 0 C6.0266417 4.25745711 10.25634393 9.92714493 12.625 16.89453125 C12.86791992 20.01318359 12.86791992 20.01318359 12.85546875 23.48046875 C12.85353516 24.74117187 12.85160156 26.001875 12.84960938 27.30078125 C12.83124023 29.2653125 12.83124023 29.2653125 12.8125 31.26953125 C12.81185547 32.57148437 12.81121094 33.8734375 12.81054688 35.21484375 C12.75757681 46.75054787 12.1524695 56.73942045 4 65.67578125 C-1.31266029 70.2446691 -6.38823575 70.3715917 -13.140625 70.2890625 C-17.20859303 69.79284901 -19.16312925 68.80056584 -21.94921875 65.85546875 C-29.37820683 55.63806596 -30.72859077 44.73819708 -30.6875 32.39453125 C-30.70361328 31.42644531 -30.71972656 30.45835938 -30.73632812 29.4609375 C-30.743187 19.24121215 -28.65358624 10.3800915 -21.375 2.89453125 C-15.68754664 -2.26792641 -6.93693815 -3.22887088 0 0 Z M-20.0625 9.58203125 C-25.44255379 16.49909359 -24.68177276 25.51955278 -24.625 33.83203125 C-24.63273437 34.96060547 -24.64046875 36.08917969 -24.6484375 37.25195312 C-24.62632623 46.75426955 -24.34674624 55.76065138 -17.375 62.89453125 C-13.40795954 65.36052937 -8.94246284 65.5958346 -4.375 64.89453125 C1.049141 62.34199431 4.27563873 58.31678896 6.625 52.89453125 C10.18112566 40.80188578 10.771604 24.55536829 5.625 12.89453125 C3.25665593 9.27908812 0.829567 5.65369148 -3.3828125 4.203125 C-10.92301648 3.03513262 -14.72785535 4.2473866 -20.0625 9.58203125 Z " fill="#1FFE1F" transform="translate(139.375,32.10546875)"/>
<path d="M0 0 C5.95816599 3.62163031 9.45450245 8.56791975 12.1875 14.9375 C12.46895614 17.59079946 12.60941172 19.99854268 12.5859375 22.64453125 C12.58880768 23.36936203 12.59167786 24.09419281 12.59463501 24.84098816 C12.59666712 26.36803981 12.59119713 27.89511799 12.57861328 29.42211914 C12.56261634 31.7331922 12.57845316 34.04249801 12.59765625 36.35351562 C12.61572727 48.24279948 11.03855122 57.59745631 3.1875 66.9375 C-1.81956456 70.78013094 -7.72994722 70.61924172 -13.8125 69.9375 C-19.12561412 68.26833583 -21.77068107 65.49187175 -24.8125 60.9375 C-29.59668368 51.35399281 -30.03942285 42.24201475 -30.125 31.6875 C-30.16850586 29.92212891 -30.16850586 29.92212891 -30.21289062 28.12109375 C-30.27699832 19.25450701 -28.73666192 12.57582581 -24 5.0625 C-16.81137508 -1.92073564 -9.49127403 -2.64510916 0 0 Z M-21 10.5 C-27.51562193 22.85721401 -27.64797728 38.632511 -23.8125 51.9375 C-21.87726745 57.1278472 -19.39600602 61.67811794 -14.8125 64.9375 C-10.0186332 65.76703979 -4.99277946 65.5360521 -0.8125 62.9375 C4.62061304 57.91187044 6.83941667 53.01797265 7.47802734 45.53173828 C7.5185995 42.38325175 7.55886992 39.23521369 7.55810547 36.08642578 C7.56247572 34.07368076 7.59886105 32.06313935 7.63671875 30.05078125 C7.664491 20.76559277 6.76899108 14.03063266 0.5625 6.9375 C-3.1982584 3.77054556 -5.7019446 3.59089888 -10.49609375 3.66015625 C-15.31014206 4.23654315 -17.96838845 6.94868361 -21 10.5 Z " fill="#1AFE1A" transform="translate(1545.8125,32.0625)"/>
<path d="M0 0 C5.95816599 3.62163031 9.45450245 8.56791975 12.1875 14.9375 C12.46895614 17.59079946 12.60941172 19.99854268 12.5859375 22.64453125 C12.58880768 23.36936203 12.59167786 24.09419281 12.59463501 24.84098816 C12.59666712 26.36803981 12.59119713 27.89511799 12.57861328 29.42211914 C12.56261634 31.7331922 12.57845316 34.04249801 12.59765625 36.35351562 C12.61572727 48.24279948 11.03855122 57.59745631 3.1875 66.9375 C-1.81956456 70.78013094 -7.72994722 70.61924172 -13.8125 69.9375 C-19.12561412 68.26833583 -21.77068107 65.49187175 -24.8125 60.9375 C-29.60663054 51.33406763 -30.03956942 42.20130559 -30.125 31.625 C-30.15400391 30.43970703 -30.18300781 29.25441406 -30.21289062 28.03320312 C-30.28606919 17.88389911 -27.79895796 9.51986173 -20.8125 1.9375 C-14.68262025 -2.58693506 -7.03841993 -1.96152686 0 0 Z M-21 10.5 C-27.51562193 22.85721401 -27.64797728 38.632511 -23.8125 51.9375 C-21.87726745 57.1278472 -19.39600602 61.67811794 -14.8125 64.9375 C-10.0186332 65.76703979 -4.99277946 65.5360521 -0.8125 62.9375 C4.62061304 57.91187044 6.83941667 53.01797265 7.47802734 45.53173828 C7.5185995 42.38325175 7.55886992 39.23521369 7.55810547 36.08642578 C7.56247572 34.07368076 7.59886105 32.06313935 7.63671875 30.05078125 C7.664491 20.76559277 6.76899108 14.03063266 0.5625 6.9375 C-3.1982584 3.77054556 -5.7019446 3.59089888 -10.49609375 3.66015625 C-15.31014206 4.23654315 -17.96838845 6.94868361 -21 10.5 Z " fill="#1AFE1A" transform="translate(1210.8125,32.0625)"/>
<path d="M0 0 C5.95816599 3.62163031 9.45450245 8.56791975 12.1875 14.9375 C12.46895614 17.59079946 12.60941172 19.99854268 12.5859375 22.64453125 C12.58880768 23.36936203 12.59167786 24.09419281 12.59463501 24.84098816 C12.59666712 26.36803981 12.59119713 27.89511799 12.57861328 29.42211914 C12.56261634 31.7331922 12.57845316 34.04249801 12.59765625 36.35351562 C12.61572727 48.24279948 11.03855122 57.59745631 3.1875 66.9375 C-1.81956456 70.78013094 -7.72994722 70.61924172 -13.8125 69.9375 C-19.12561412 68.26833583 -21.77068107 65.49187175 -24.8125 60.9375 C-29.59668368 51.35399281 -30.03942285 42.24201475 -30.125 31.6875 C-30.16850586 29.92212891 -30.16850586 29.92212891 -30.21289062 28.12109375 C-30.28138005 18.64848009 -28.95610311 10.99509058 -22.3125 3.9375 C-15.7822737 -2.23653214 -8.44467305 -2.35343347 0 0 Z M-21 10.5 C-27.51562193 22.85721401 -27.64797728 38.632511 -23.8125 51.9375 C-21.87726745 57.1278472 -19.39600602 61.67811794 -14.8125 64.9375 C-10.0186332 65.76703979 -4.99277946 65.5360521 -0.8125 62.9375 C4.62061304 57.91187044 6.83941667 53.01797265 7.47802734 45.53173828 C7.5185995 42.38325175 7.55886992 39.23521369 7.55810547 36.08642578 C7.56247572 34.07368076 7.59886105 32.06313935 7.63671875 30.05078125 C7.664491 20.76559277 6.76899108 14.03063266 0.5625 6.9375 C-3.1982584 3.77054556 -5.7019446 3.59089888 -10.49609375 3.66015625 C-15.31014206 4.23654315 -17.96838845 6.94868361 -21 10.5 Z " fill="#1AFE1A" transform="translate(1478.8125,32.0625)"/>
<path d="M0 0 C0 21.45 0 42.9 0 65 C5.94 65 11.88 65 18 65 C18.33 66.32 18.66 67.64 19 69 C18 70 18 70 14.12280273 70.11352539 C12.39305833 70.11336621 10.66330919 70.10766849 8.93359375 70.09765625 C8.02497086 70.0962413 7.11634796 70.09482635 6.18019104 70.09336853 C3.26592779 70.08775193 0.35174019 70.07519665 -2.5625 70.0625 C-4.53320202 70.05748714 -6.50390524 70.05292386 -8.47460938 70.04882812 C-13.31643559 70.03777711 -18.15820495 70.02050138 -23 70 C-23.495 67.525 -23.495 67.525 -24 65 C-17.73 65 -11.46 65 -5 65 C-5.24556641 61.45958984 -5.24556641 61.45958984 -5.49609375 57.84765625 C-6.15173138 47.3782047 -6.11160563 36.92294236 -6.0625 26.4375 C-6.05746781 24.53971474 -6.05290798 22.64192817 -6.04882812 20.74414062 C-6.03797514 16.16272706 -6.02080844 11.58137871 -6 7 C-6.79664063 7.30035156 -7.59328125 7.60070313 -8.4140625 7.91015625 C-9.47367187 8.29042969 -10.53328125 8.67070313 -11.625 9.0625 C-12.66914063 9.44535156 -13.71328125 9.82820313 -14.7890625 10.22265625 C-18.27170764 11.06577837 -20.54452348 10.82495611 -24 10 C-23.02760584 7.18005693 -22.1413205 6.09297401 -19.625 4.4375 C-13.32459738 1.93906448 -6.80214343 0 0 0 Z " fill="#10FE10" transform="translate(401,31)"/>
<path d="M0 0 C0 21.45 0 42.9 0 65 C5.94 65 11.88 65 18 65 C18.33 66.32 18.66 67.64 19 69 C18 70 18 70 14.12280273 70.11352539 C12.39305833 70.11336621 10.66330919 70.10766849 8.93359375 70.09765625 C8.02497086 70.0962413 7.11634796 70.09482635 6.18019104 70.09336853 C3.26592779 70.08775193 0.35174019 70.07519665 -2.5625 70.0625 C-4.53320202 70.05748714 -6.50390524 70.05292386 -8.47460938 70.04882812 C-13.31643559 70.03777711 -18.15820495 70.02050138 -23 70 C-23.495 67.525 -23.495 67.525 -24 65 C-17.73 65 -11.46 65 -5 65 C-5.24556641 61.45958984 -5.24556641 61.45958984 -5.49609375 57.84765625 C-6.15173138 47.3782047 -6.11160563 36.92294236 -6.0625 26.4375 C-6.05746781 24.53971474 -6.05290798 22.64192817 -6.04882812 20.74414062 C-6.03797514 16.16272706 -6.02080844 11.58137871 -6 7 C-6.79664063 7.30035156 -7.59328125 7.60070313 -8.4140625 7.91015625 C-9.47367188 8.29042969 -10.53328125 8.67070313 -11.625 9.0625 C-12.66914063 9.44535156 -13.71328125 9.82820313 -14.7890625 10.22265625 C-18.27170764 11.06577837 -20.54452348 10.82495611 -24 10 C-23.02760584 7.18005693 -22.1413205 6.09297401 -19.625 4.4375 C-13.32459738 1.93906448 -6.80214343 0 0 0 Z " fill="#10FE10" transform="translate(200,31)"/>
<path d="M0 0 C8.80143837 -0.28391737 16.70973202 0.94569075 25 4 C25.04125 4.680625 25.0825 5.36125 25.125 6.0625 C26.19681502 9.66073613 27.97601602 11.37563102 30.625 13.9609375 C34.78665812 20.13248732 33.18395846 30.47108032 33.1875 37.625 C33.19974609 38.9346875 33.21199219 40.244375 33.22460938 41.59375 C33.22654297 42.85445312 33.22847656 44.11515625 33.23046875 45.4140625 C33.23457764 46.5582666 33.23868652 47.7024707 33.24291992 48.88134766 C32.99872794 52.016331 32.33323774 54.17392252 31 57 C30.690625 57.66 30.38125 58.32 30.0625 59 C29 61 29 61 27.375 63.4375 C25.84960217 66.28028687 25.88389336 67.83873271 26 71 C16.10630347 73.84613188 7.21260287 74.35396698 -3 74 C-3.33 73.34 -3.66 72.68 -4 72 C-3.13117188 72.03480469 -2.26234375 72.06960937 -1.3671875 72.10546875 C7.39872141 72.61718471 7.39872141 72.61718471 15 69 C20.41719909 61.56282837 23.29863122 54.54224996 23.37109375 45.29296875 C23.38012222 44.56813797 23.3891507 43.84330719 23.39845276 43.09651184 C23.41289262 41.56950977 23.42182633 40.0424467 23.42553711 38.51538086 C23.43741608 36.20383111 23.48664041 33.89497066 23.53710938 31.58398438 C23.62784595 23.37800618 23.34105289 16.66082696 18 10 C17.37738281 9.21625 16.75476562 8.4325 16.11328125 7.625 C11.00705546 3.01721274 6.84606701 1.90179822 0 2 C0 1.34 0 0.68 0 0 Z " fill="#F6FEF6" transform="translate(1802,29)"/>
<path d="M0 0 C0 21.45 0 42.9 0 65 C5.94 65 11.88 65 18 65 C18.33 66.32 18.66 67.64 19 69 C18 70 18 70 14.12280273 70.11352539 C12.39305833 70.11336621 10.66330919 70.10766849 8.93359375 70.09765625 C8.02497086 70.0962413 7.11634796 70.09482635 6.18019104 70.09336853 C3.26592779 70.08775193 0.35174019 70.07519665 -2.5625 70.0625 C-4.53320202 70.05748714 -6.50390524 70.05292386 -8.47460938 70.04882812 C-13.31643559 70.03777711 -18.15820495 70.02050138 -23 70 C-23.495 67.525 -23.495 67.525 -24 65 C-17.73 65 -11.46 65 -5 65 C-5 45.53 -5 26.06 -5 6 C-8.96 7.65 -12.92 9.3 -17 11 C-18.98 11 -20.96 11 -23 11 C-23.33 9.68 -23.66 8.36 -24 7 C-19.0995457 4.98457307 -14.18664204 3.00895738 -9.1875 1.25 C-8.50042969 1.00765625 -7.81335938 0.7653125 -7.10546875 0.515625 C-5 0 -5 0 0 0 Z " fill="#0BFE0B" transform="translate(870,31)"/>
<path d="M0 0 C0 21.45 0 42.9 0 65 C5.94 65 11.88 65 18 65 C18.33 66.32 18.66 67.64 19 69 C18 70 18 70 14.12280273 70.11352539 C12.39305833 70.11336621 10.66330919 70.10766849 8.93359375 70.09765625 C8.02497086 70.0962413 7.11634796 70.09482635 6.18019104 70.09336853 C3.26592779 70.08775193 0.35174019 70.07519665 -2.5625 70.0625 C-4.53320202 70.05748714 -6.50390524 70.05292386 -8.47460938 70.04882812 C-13.31643559 70.03777711 -18.15820495 70.02050138 -23 70 C-23.495 67.525 -23.495 67.525 -24 65 C-17.73 65 -11.46 65 -5 65 C-5 45.53 -5 26.06 -5 6 C-8.96 7.65 -12.92 9.3 -17 11 C-18.98 11 -20.96 11 -23 11 C-23.33 9.68 -23.66 8.36 -24 7 C-19.0995457 4.98457307 -14.18664204 3.00895738 -9.1875 1.25 C-8.50042969 1.00765625 -7.81335938 0.7653125 -7.10546875 0.515625 C-5 0 -5 0 0 0 Z " fill="#0BFE0B" transform="translate(803,31)"/>
<path d="M0 0 C0 21.45 0 42.9 0 65 C5.94 65 11.88 65 18 65 C18.33 66.32 18.66 67.64 19 69 C18 70 18 70 14.12280273 70.11352539 C12.39305833 70.11336621 10.66330919 70.10766849 8.93359375 70.09765625 C8.02497086 70.0962413 7.11634796 70.09482635 6.18019104 70.09336853 C3.26592779 70.08775193 0.35174019 70.07519665 -2.5625 70.0625 C-4.53320202 70.05748714 -6.50390524 70.05292386 -8.47460938 70.04882812 C-13.31643559 70.03777711 -18.15820495 70.02050138 -23 70 C-23.495 67.525 -23.495 67.525 -24 65 C-17.73 65 -11.46 65 -5 65 C-5 45.53 -5 26.06 -5 6 C-8.96 7.65 -12.92 9.3 -17 11 C-18.98 11 -20.96 11 -23 11 C-23.33 9.68 -23.66 8.36 -24 7 C-19.0995457 4.98457307 -14.18664204 3.00895738 -9.1875 1.25 C-8.50042969 1.00765625 -7.81335938 0.7653125 -7.10546875 0.515625 C-5 0 -5 0 0 0 Z " fill="#0CFE0C" transform="translate(602,31)"/>
<path d="M0 0 C0 21.45 0 42.9 0 65 C5.94 65 11.88 65 18 65 C18 66.65 18 68.3 18 70 C4.47 70 -9.06 70 -23 70 C-23.495 67.525 -23.495 67.525 -24 65 C-17.73 65 -11.46 65 -5 65 C-5 45.53 -5 26.06 -5 6 C-9.62 7.65 -14.24 9.3 -19 11 C-20.65 10.67 -22.3 10.34 -24 10 C-23.74121094 8.10644531 -23.74121094 8.10644531 -23 6 C-21.31347656 4.99511719 -21.31347656 4.99511719 -19.140625 4.296875 C-18.35429688 4.0390625 -17.56796875 3.78125 -16.7578125 3.515625 C-15.93023438 3.26296875 -15.10265625 3.0103125 -14.25 2.75 C-13.43789062 2.481875 -12.62578125 2.21375 -11.7890625 1.9375 C-7.50454783 0.56980476 -4.62826279 0 0 0 Z " fill="#0BFE0B" transform="translate(1406,31)"/>
<path d="M0 0 C0 21.45 0 42.9 0 65 C5.94 65 11.88 65 18 65 C18 66.65 18 68.3 18 70 C4.47 70 -9.06 70 -23 70 C-23.495 67.525 -23.495 67.525 -24 65 C-17.73 65 -11.46 65 -5 65 C-5 45.53 -5 26.06 -5 6 C-9.62 7.65 -14.24 9.3 -19 11 C-20.65 10.67 -22.3 10.34 -24 10 C-23.74121094 8.10644531 -23.74121094 8.10644531 -23 6 C-21.31347656 4.99511719 -21.31347656 4.99511719 -19.140625 4.296875 C-18.35429688 4.0390625 -17.56796875 3.78125 -16.7578125 3.515625 C-15.93023438 3.26296875 -15.10265625 3.0103125 -14.25 2.75 C-13.43789062 2.481875 -12.62578125 2.21375 -11.7890625 1.9375 C-7.50454783 0.56980476 -4.62826279 0 0 0 Z " fill="#0BFE0B" transform="translate(1138,31)"/>
<path d="M0 0 C0 21.45 0 42.9 0 65 C5.94 65 11.88 65 18 65 C18 66.65 18 68.3 18 70 C4.47 70 -9.06 70 -23 70 C-23.495 67.525 -23.495 67.525 -24 65 C-17.73 65 -11.46 65 -5 65 C-5 45.53 -5 26.06 -5 6 C-9.62 7.65 -14.24 9.3 -19 11 C-20.65 10.67 -22.3 10.34 -24 10 C-23.74121094 8.10644531 -23.74121094 8.10644531 -23 6 C-21.31347656 4.99511719 -21.31347656 4.99511719 -19.140625 4.296875 C-18.35429688 4.0390625 -17.56796875 3.78125 -16.7578125 3.515625 C-15.93023438 3.26296875 -15.10265625 3.0103125 -14.25 2.75 C-13.43789062 2.481875 -12.62578125 2.21375 -11.7890625 1.9375 C-7.50454783 0.56980476 -4.62826279 0 0 0 Z " fill="#0BFE0B" transform="translate(1071,31)"/>
<path d="M0 0 C0 21.45 0 42.9 0 65 C5.94 65 11.88 65 18 65 C18 66.65 18 68.3 18 70 C4.47 70 -9.06 70 -23 70 C-23.495 67.525 -23.495 67.525 -24 65 C-17.73 65 -11.46 65 -5 65 C-5 45.53 -5 26.06 -5 6 C-9.62 7.65 -14.24 9.3 -19 11 C-20.65 10.67 -22.3 10.34 -24 10 C-23.74121094 8.10644531 -23.74121094 8.10644531 -23 6 C-21.31347656 4.99511719 -21.31347656 4.99511719 -19.140625 4.296875 C-18.35429688 4.0390625 -17.56796875 3.78125 -16.7578125 3.515625 C-15.93023438 3.26296875 -15.10265625 3.0103125 -14.25 2.75 C-13.43789063 2.481875 -12.62578125 2.21375 -11.7890625 1.9375 C-7.50454783 0.56980476 -4.62826279 0 0 0 Z " fill="#0BFE0B" transform="translate(1004,31)"/>
<path d="M0 0 C0 21.45 0 42.9 0 65 C5.61 65 11.22 65 17 65 C17.33 66.32 17.66 67.64 18 69 C17 70 17 70 13.21459961 70.11352539 C11.52717271 70.11336622 9.83974095 70.10766917 8.15234375 70.09765625 C6.82270348 70.09553383 6.82270348 70.09553383 5.46620178 70.09336853 C2.62326746 70.08775215 -0.21958931 70.07519691 -3.0625 70.0625 C-4.98502491 70.05748711 -6.90755104 70.05292384 -8.83007812 70.04882812 C-13.55341549 70.03777741 -18.27669458 70.02050183 -23 70 C-23.495 67.525 -23.495 67.525 -24 65 C-17.73 65 -11.46 65 -5 65 C-5 45.53 -5 26.06 -5 6 C-9.62 7.65 -14.24 9.3 -19 11 C-20.65 11 -22.3 11 -24 11 C-23.67 9.35 -23.34 7.7 -23 6 C-20.1071271 4.99064871 -17.21121485 3.99231256 -14.3125 3 C-13.08756836 2.57074219 -13.08756836 2.57074219 -11.83789062 2.1328125 C-11.04189453 1.86210938 -10.24589844 1.59140625 -9.42578125 1.3125 C-8.69786377 1.06113281 -7.96994629 0.80976563 -7.2199707 0.55078125 C-5 0 -5 0 0 0 Z " fill="#0EFE0E" transform="translate(1741,31)"/>
<path d="M0 0 C0 21.45 0 42.9 0 65 C5.61 65 11.22 65 17 65 C17.33 66.32 17.66 67.64 18 69 C17 70 17 70 13.21459961 70.11352539 C11.52717271 70.11336622 9.83974095 70.10766917 8.15234375 70.09765625 C6.82270348 70.09553383 6.82270348 70.09553383 5.46620178 70.09336853 C2.62326746 70.08775215 -0.21958931 70.07519691 -3.0625 70.0625 C-4.98502491 70.05748711 -6.90755104 70.05292384 -8.83007812 70.04882812 C-13.55341549 70.03777741 -18.27669458 70.02050183 -23 70 C-23.495 67.525 -23.495 67.525 -24 65 C-17.73 65 -11.46 65 -5 65 C-5 45.53 -5 26.06 -5 6 C-9.62 7.65 -14.24 9.3 -19 11 C-20.65 11 -22.3 11 -24 11 C-23.67 9.35 -23.34 7.7 -23 6 C-20.1071271 4.99064871 -17.21121485 3.99231256 -14.3125 3 C-13.08756836 2.57074219 -13.08756836 2.57074219 -11.83789062 2.1328125 C-11.04189453 1.86210938 -10.24589844 1.59140625 -9.42578125 1.3125 C-8.69786377 1.06113281 -7.96994629 0.80976563 -7.2199707 0.55078125 C-5 0 -5 0 0 0 Z " fill="#0EFE0E" transform="translate(1674,31)"/>
<path d="M0 0 C-0.185625 0.94875 -0.37125 1.8975 -0.5625 2.875 C-1.28686632 5.89868793 -1.28686632 5.89868793 0 8 C24.75 8.33 49.5 8.66 75 9 C75 9.33 75 9.66 75 10 C64.72477575 10.06968807 54.44960826 10.12290652 44.17419529 10.15543652 C39.40225911 10.17105384 34.63048532 10.19221987 29.85864258 10.22631836 C25.24856419 10.25905259 20.63864143 10.27688256 16.02845573 10.28463173 C14.2746937 10.29015008 12.52093963 10.30092582 10.76724434 10.31719017 C-6.15640434 10.46782123 -6.15640434 10.46782123 -14 7 C-13.8125 4.625 -13.8125 4.625 -13 2 C-8.91343412 -0.60054192 -4.67631878 -0.15851928 0 0 Z " fill="#E1FEE0" transform="translate(124,232)"/>
<path d="M0 0 C0.99 0.33 1.98 0.66 3 1 C-1.95 5.95 -6.9 10.9 -12 16 C-12.66 15.67 -13.32 15.34 -14 15 C-10.8861216 9.68045774 -6.98738414 5.64877887 -2 2 C-1.34 2 -0.68 2 0 2 C0 1.34 0 0.68 0 0 Z " fill="#C5FFE3" transform="translate(1221,157)"/>
<path d="M0 0 C0 3 0 3 -1.71484375 4.97265625 C-2.44832031 5.66230469 -3.18179687 6.35195312 -3.9375 7.0625 C-6.86434414 9.73700793 -6.86434414 9.73700793 -9 13 C-9.99 12.67 -10.98 12.34 -12 12 C-8.49777237 6.88327027 -5.41372419 3.09355668 0 0 Z " fill="#3FFE1F" transform="translate(1075,151)"/>
<path d="M0 0 C0.99 0.33 1.98 0.66 3 1 C-0.63 4.63 -4.26 8.26 -8 12 C-8.33 11.01 -8.66 10.02 -9 9 C-6.03 6.03 -3.06 3.06 0 0 Z " fill="#B3FFDD" transform="translate(1079,158)"/>
<path d="M0 0 C2.97 0 5.94 0 9 0 C9 0.33 9 0.66 9 1 C6.03 1 3.06 1 0 1 C0 0.67 0 0.34 0 0 Z " fill="#FFFFFF" transform="translate(1307,20)"/>
</svg>
