<?xml version="1.0" encoding="UTF-8"?>
<svg version="1.1" xmlns="http://www.w3.org/2000/svg" width="327" height="121">
<path d="M0 0 C4.29 0 8.58 0 13 0 C13.495 6.93 13.495 6.93 14 14 C15.32 13.34 16.64 12.68 18 12 C23.04836331 11.2835656 26.94369429 11.45298454 31.5 13.8125 C34 16 34 16 36 19 C36.70576172 18.36771484 36.70576172 18.36771484 37.42578125 17.72265625 C38.04839844 17.17480469 38.67101562 16.62695312 39.3125 16.0625 C39.92738281 15.51722656 40.54226562 14.97195312 41.17578125 14.41015625 C44.83288446 11.58314499 48.35984195 11.86551617 52.8125 11.875 C54.01519531 11.87242188 55.21789062 11.86984375 56.45703125 11.8671875 C59.74010886 11.99025766 62.76709907 12.45618752 66 13 C68.12411996 13.06460219 70.25002905 13.08611079 72.375 13.0625 C73.43460938 13.05347656 74.49421875 13.04445313 75.5859375 13.03515625 C76.38257813 13.02355469 77.17921875 13.01195312 78 13 C78 13.66 78 14.32 78 15 C79.2065625 14.2575 79.2065625 14.2575 80.4375 13.5 C85.35951462 11.42757279 89.93116753 10.84697046 95.02734375 12.76171875 C98.48863495 14.61310707 101.16598275 16.52501994 103 20 C103.99 23.96 103.99 23.96 105 28 C113.91 27.01 113.91 27.01 123 26 C123 25.34 123 24.68 123 24 C121.2709226 23.97274659 119.54171824 23.95349013 117.8125 23.9375 C116.84957031 23.92589844 115.88664063 23.91429688 114.89453125 23.90234375 C112.14423487 23.99513378 109.67520409 24.37888315 107 25 C105.02 20.545 105.02 20.545 103 16 C111.01513536 12.22817159 118.67832201 10.01115749 127.43359375 12.765625 C131.19696742 14.50575374 133.89339847 16.31344732 136 20 C136.33 17.69 136.66 15.38 137 13 C142 13 147 13 152 13 C152.66 12.67 153.32 12.34 154 12 C160.48288309 11.17955214 165.68311014 12.13947562 171 16 C174.44074118 18.92295974 175.79608246 21.58520929 176.44140625 26.0625 C176.68403729 32.82486184 176.14914873 38.49140322 172 44 C167.98792194 47.76892181 164.30059349 48.13803303 158.9375 48.125 C157.87402344 48.12757812 156.81054688 48.13015625 155.71484375 48.1328125 C153 48 153 48 151 47 C150.67 51.29 150.34 55.58 150 60 C145.71 60 141.42 60 137 60 C137 56.04 137 52.08 137 48 C133.04 48 129.08 48 125 48 C125 47.34 125 46.68 125 46 C124.4740625 46.32484375 123.948125 46.6496875 123.40625 46.984375 C120.32279716 48.28583237 117.8393261 48.26531801 114.5 48.25 C113.3759375 48.25515625 112.251875 48.2603125 111.09375 48.265625 C108.14958257 48.01284295 106.48304495 47.53364541 104 46 C104 46.66 104 47.32 104 48 C99.71 48 95.42 48 91 48 C90.01 36.615 90.01 36.615 89 25 C86.36 25 83.72 25 81 25 C79.85149303 29.73879768 79.67098443 34.46291362 79.4375 39.3125 C79.39431641 40.14845703 79.35113281 40.98441406 79.30664062 41.84570312 C79.20114693 43.89696935 79.10012685 45.9484648 79 48 C74.71 48 70.42 48 66 48 C66 47.01 66 46.02 66 45 C65.01249756 45.48895752 64.02499512 45.97791504 63.00756836 46.48168945 C58.98286668 48.19920434 55.21087266 48.38776452 50.87890625 48.29296875 C50.13414536 48.28872391 49.38938446 48.28447906 48.62205505 48.28010559 C46.26848527 48.26345724 43.91580621 48.22583375 41.5625 48.1875 C39.95639267 48.17243515 38.35027177 48.15874991 36.74414062 48.14648438 C32.82908953 48.11359952 28.91469521 48.06191626 25 48 C24.970271 47.16807129 24.970271 47.16807129 24.93994141 46.31933594 C24.84442349 43.79576307 24.73485433 41.27298776 24.625 38.75 C24.5940625 37.87730469 24.563125 37.00460938 24.53125 36.10546875 C24.49257812 35.26113281 24.45390625 34.41679688 24.4140625 33.546875 C24.3826416 32.77182617 24.3512207 31.99677734 24.31884766 31.19824219 C23.96973494 28.79134258 23.19448896 27.10397705 22 25 C19.69 25 17.38 25 15 25 C14.05711817 29.9600338 13.69751789 34.84514574 13.4375 39.875 C13.39431641 40.65875 13.35113281 41.4425 13.30664062 42.25 C13.20146649 44.16650649 13.10032075 46.08323333 13 48 C8.71 48 4.42 48 0 48 C0 47.01 0 46.02 0 45 C-0.845625 45.495 -1.69125 45.99 -2.5625 46.5 C-8.56535443 49.07089462 -15.63480812 48.87203815 -22 48 C-25.69727416 45.96891717 -28.48879589 43.92322953 -30.875 40.4375 C-31.28492188 39.85871094 -31.69484375 39.27992187 -32.1171875 38.68359375 C-33 37 -33 37 -33 34 C-39.6 34 -46.2 34 -53 34 C-52.01 34.99 -51.02 35.98 -50 37 C-46.95181823 36.95353451 -46.95181823 36.95353451 -43.625 36.375 C-37.53768203 35.71672816 -37.53768203 35.71672816 -35.03515625 37.03515625 C-33.6875 38.4375 -33.6875 38.4375 -32 41 C-32.85143743 43.94132931 -33.35248054 45.59530034 -36 47.25 C-43.5446556 49.1361639 -50.57214989 49.63227275 -58 47 C-60.5625 45.375 -60.5625 45.375 -62 44 C-62.33 44.99 -62.66 45.98 -63 47 C-65.92247573 48.46123786 -68.55853839 48.2477615 -71.8125 48.3125 C-73.03582031 48.34988281 -74.25914063 48.38726562 -75.51953125 48.42578125 C-79.61960279 47.92420123 -81.14293 46.92888145 -84 44 C-86.75074262 40.34332418 -86.22552032 36.12649989 -86.125 31.75 C-86.11597656 31.00492188 -86.10695313 30.25984375 -86.09765625 29.4921875 C-86.07418358 27.66131941 -86.03831525 25.83061762 -86 24 C-87.65 24 -89.3 24 -91 24 C-91 20.7 -91 17.4 -91 14 C-89.35 14 -87.7 14 -86 14 C-86 11.03 -86 8.06 -86 5 C-81.71 5 -77.42 5 -73 5 C-73 7.97 -73 10.94 -73 14 C-70.36 14 -67.72 14 -65 14 C-64.34 15.32 -63.68 16.64 -63 18 C-62.278125 17.38125 -61.55625 16.7625 -60.8125 16.125 C-55.11554101 11.82063099 -50.00085203 11.27849512 -43 12 C-38.19502895 13.7556625 -34.79275671 16.65876195 -31 20 C-30.55269531 19.59007813 -30.10539062 19.18015625 -29.64453125 18.7578125 C-29.03996094 18.21898438 -28.43539062 17.68015625 -27.8125 17.125 C-27.22082031 16.59132813 -26.62914063 16.05765625 -26.01953125 15.5078125 C-22.06665421 12.55653486 -18.44464931 11.7082751 -13.5625 11.6875 C-12.65628906 11.67074219 -11.75007813 11.65398438 -10.81640625 11.63671875 C-8 12 -8 12 -2 15 C-1.34 10.05 -0.68 5.1 0 0 Z M65 19 C64.34 20.32 63.68 21.64 63 23 C62.34 22.67 61.68 22.34 61 22 C58.95944995 21.92934383 56.91665743 21.91578024 54.875 21.9375 C53.77929688 21.94652344 52.68359375 21.95554687 51.5546875 21.96484375 C50.29011719 21.98224609 50.29011719 21.98224609 49 22 C49 22.99 49 23.98 49 25 C57.415 27.475 57.415 27.475 66 30 C66 26.37 66 22.74 66 19 C65.67 19 65.34 19 65 19 Z M-18.9375 24.0625 C-20.55479605 27.01168691 -20.18630138 29.70867559 -20 33 C-18.68 33 -17.36 33 -16 33 C-16 34.65 -16 36.3 -16 38 C-11.2102679 38.23428313 -11.2102679 38.23428313 -7 36 C-3.3125 36.375 -3.3125 36.375 0 37 C0 32.71 0 28.42 0 24 C-4.60532389 24.69302969 -4.60532389 24.69302969 -7 26 C-7.350625 25.505 -7.70125 25.01 -8.0625 24.5 C-11.36194771 21.94558887 -15.3191368 22.07823631 -18.9375 24.0625 Z M151.125 24.25 C149.75839596 26.37582851 149.14180021 27.44759613 149 30 C150.44170707 34.32012754 150.44170707 34.32012754 153 38 C157.60277408 38.51436243 157.60277408 38.51436243 161.66796875 36.765625 C164.07266078 33.57817398 164.22525777 29.90204584 164 26 C162.63624641 23.72685588 162.63624641 23.72685588 160 23 C155.31132959 22.44923151 155.31132959 22.44923151 151.125 24.25 Z M-73 24 C-73.02685938 26.14576637 -73.04633088 28.29162645 -73.0625 30.4375 C-73.07410156 31.63246094 -73.08570312 32.82742187 -73.09765625 34.05859375 C-73.33901792 36.88873341 -73.33901792 36.88873341 -72 38 C-70.00041636 38.04080783 -67.99954746 38.04254356 -66 38 C-65.91666643 33.1666528 -66.04738513 28.76307437 -67 24 C-68.98 24 -70.96 24 -73 24 Z M38 31 C38 33.31 38 35.62 38 38 C43.66642551 39.22517308 49.23708518 39.09228867 55 39 C55.33 38.01 55.66 37.02 56 36 C53.37605694 35.16320723 50.75095616 34.33043058 48.125 33.5 C47.37863281 33.26152344 46.63226563 33.02304688 45.86328125 32.77734375 C42.00757933 31.47229585 42.00757933 31.47229585 38 31 Z M115 34 C115 35.98 115 37.96 115 40 C118.41642759 40.25015873 118.41642759 40.25015873 122 40 C124.2773501 37.18490007 124.2773501 37.18490007 124 34 C121.03 34 118.06 34 115 34 Z " fill="#1759B3" transform="translate(115,31)"/>
<path d="M0 0 C4.1800607 1.84461012 7.49523426 4.21325353 9.96484375 8.09765625 C12.08160391 13.7163376 11.78557085 20.17159253 10.04296875 25.859375 C8.3199654 29.57309935 6.48350849 32.33452256 2.8125 34.34765625 C-0.42622132 35.42723002 -2.84778205 35.48092409 -6.25 35.47265625 C-7.31347656 35.47523437 -8.37695312 35.4778125 -9.47265625 35.48046875 C-12.1875 35.34765625 -12.1875 35.34765625 -14.1875 34.34765625 C-14.24808594 34.96253906 -14.30867188 35.57742187 -14.37109375 36.2109375 C-14.45488281 37.01917969 -14.53867187 37.82742187 -14.625 38.66015625 C-14.70621094 39.46066406 -14.78742188 40.26117188 -14.87109375 41.0859375 C-15.1875 43.34765625 -15.1875 43.34765625 -16.1875 46.34765625 C-19.8175 46.34765625 -23.4475 46.34765625 -27.1875 46.34765625 C-27.1875 31.49765625 -27.1875 16.64765625 -27.1875 1.34765625 C-23.8875 1.34765625 -20.5875 1.34765625 -17.1875 1.34765625 C-17.1875 2.00765625 -17.1875 2.66765625 -17.1875 3.34765625 C-16.5275 3.34765625 -15.8675 3.34765625 -15.1875 3.34765625 C-15.1875 2.68765625 -15.1875 2.02765625 -15.1875 1.34765625 C-10.25944969 -1.42714685 -5.41345671 -1.61437013 0 0 Z M-14.0625 11.59765625 C-15.42910404 13.72348476 -16.04569979 14.79525238 -16.1875 17.34765625 C-14.74579293 21.66778379 -14.74579293 21.66778379 -12.1875 25.34765625 C-7.58472592 25.86201868 -7.58472592 25.86201868 -3.51953125 24.11328125 C-1.11483922 20.92583023 -0.96224223 17.24970209 -1.1875 13.34765625 C-2.55125359 11.07451213 -2.55125359 11.07451213 -5.1875 10.34765625 C-9.87617041 9.79688776 -9.87617041 9.79688776 -14.0625 11.59765625 Z " fill="#0F54B1" transform="translate(280.1875,43.65234375)"/>
<path d="M0 0 C0.33 1.65 0.66 3.3 1 5 C-3.29 5 -7.58 5 -12 5 C-9.00716833 -2.48207917 -7.09770446 -1.03031194 0 0 Z " fill="#D6E0F1" transform="translate(72,53)"/>
</svg>
